<mxfile host="app.diagrams.net" modified="2024-05-07T06:09:24.718Z" agent="Mozilla/5.0 (Windows NT 10.0; Win64; x64) AppleWebKit/537.36 (KHTML, like Gecko) Chrome/124.0.0.0 Safari/537.36" etag="wtZb03NIyOEJyMiywMlq" version="24.3.1" type="github">
  <diagram name="Page-1" id="XtFsj6LT9hISC9yKLkOL">
    <mxGraphModel dx="1032" dy="530" grid="1" gridSize="10" guides="1" tooltips="1" connect="1" arrows="1" fold="1" page="1" pageScale="1" pageWidth="827" pageHeight="1169" math="0" shadow="0">
      <root>
        <mxCell id="0" />
        <mxCell id="1" parent="0" />
        <mxCell id="oiw9RieTrFUaGt8_zSmy-1" value="" style="strokeColor=#c0cdd7;fillColor=#BAC8D3;fontSize=18;strokeWidth=2;fontFamily=Helvetica;html=1;opacity=90;movable=0;resizable=0;rotatable=0;deletable=0;editable=0;locked=1;connectable=0;" vertex="1" parent="1">
          <mxGeometry x="108.67" y="1461" width="650.67" height="470" as="geometry" />
        </mxCell>
        <mxCell id="oiw9RieTrFUaGt8_zSmy-2" value="" style="strokeColor=default;fillColor=#BAC8D3;fontSize=18;strokeWidth=2;fontFamily=Helvetica;html=1;opacity=90;movable=0;resizable=0;rotatable=0;deletable=0;editable=0;locked=1;connectable=0;" vertex="1" parent="1">
          <mxGeometry x="759.34" y="1460" width="650.66" height="470" as="geometry" />
        </mxCell>
        <mxCell id="oiw9RieTrFUaGt8_zSmy-3" value="" style="strokeColor=default;fillColor=#BAC8D3;fontSize=18;strokeWidth=2;fontFamily=Helvetica;html=1;opacity=90;movable=0;resizable=0;rotatable=0;deletable=0;editable=0;locked=1;connectable=0;" vertex="1" parent="1">
          <mxGeometry x="758.67" y="1250.25" width="651.33" height="209.75" as="geometry" />
        </mxCell>
        <mxCell id="oiw9RieTrFUaGt8_zSmy-4" value="" style="strokeColor=default;fillColor=#BAC8D3;fontSize=18;strokeWidth=2;fontFamily=Helvetica;html=1;opacity=90;movable=0;resizable=0;rotatable=0;deletable=0;editable=0;locked=1;connectable=0;" vertex="1" parent="1">
          <mxGeometry x="108" y="2581" width="1952" height="199.5" as="geometry" />
        </mxCell>
        <mxCell id="oiw9RieTrFUaGt8_zSmy-5" value="" style="strokeColor=default;fillColor=#BAC8D3;fontSize=18;strokeWidth=2;fontFamily=Helvetica;html=1;opacity=90;movable=0;resizable=0;rotatable=0;deletable=0;editable=0;locked=1;connectable=0;" vertex="1" parent="1">
          <mxGeometry x="108.67" y="2181" width="1951.33" height="199.5" as="geometry" />
        </mxCell>
        <mxCell id="oiw9RieTrFUaGt8_zSmy-6" value="&lt;font color=&quot;#000000&quot;&gt;&lt;b&gt;DAVAO DEL NORTE HOSPITAL INFORMATION SYSTEM&lt;/b&gt;&lt;/font&gt;" style="strokeColor=#000000;fillColor=#CCCCCC;fontSize=24;strokeWidth=2;fontFamily=Helvetica;html=1;fontColor=#FFFFFF;fontStyle=0;spacingBottom=8;spacingRight=0;spacingLeft=83;movable=0;resizable=0;rotatable=0;deletable=0;editable=0;locked=1;connectable=0;" vertex="1" parent="1">
          <mxGeometry x="22" y="874" width="2038" height="46" as="geometry" />
        </mxCell>
        <mxCell id="oiw9RieTrFUaGt8_zSmy-7" value="TRIAGE | GUARD" style="strokeColor=default;fillColor=#23445D;fontSize=24;strokeWidth=2;horizontal=0;fontFamily=Helvetica;html=1;fontColor=#FFFFFF;fontStyle=0;movable=0;resizable=0;rotatable=0;deletable=0;editable=0;locked=1;connectable=0;" vertex="1" parent="1">
          <mxGeometry x="22" y="954" width="86" height="296" as="geometry" />
        </mxCell>
        <mxCell id="oiw9RieTrFUaGt8_zSmy-8" value="v 1.0" style="strokeColor=default;fillColor=#5d7f99;fontSize=19;strokeWidth=2;fontFamily=Helvetica;html=1;labelBackgroundColor=none;fontColor=#FFFFFF;movable=0;resizable=0;rotatable=0;deletable=0;editable=0;locked=1;connectable=0;" vertex="1" parent="1">
          <mxGeometry x="22" y="874" width="86" height="80" as="geometry" />
        </mxCell>
        <mxCell id="oiw9RieTrFUaGt8_zSmy-9" value="ASSESSMENT" style="strokeColor=default;fillColor=#23445D;fontSize=24;strokeWidth=2;horizontal=0;fontFamily=Helvetica;html=1;fontColor=#FFFFFF;fontStyle=0;movable=0;resizable=0;rotatable=0;deletable=0;editable=0;locked=1;connectable=0;" vertex="1" parent="1">
          <mxGeometry x="22" y="1250.25" width="48" height="679.75" as="geometry" />
        </mxCell>
        <mxCell id="oiw9RieTrFUaGt8_zSmy-10" value="ROD" style="strokeColor=default;fillColor=#23445D;fontSize=24;strokeWidth=2;horizontal=0;fontFamily=Helvetica;html=1;fontColor=#FFFFFF;fontStyle=0;movable=0;resizable=0;rotatable=0;deletable=0;editable=0;locked=1;connectable=0;" vertex="1" parent="1">
          <mxGeometry x="22" y="1930.5" width="86" height="249.5" as="geometry" />
        </mxCell>
        <mxCell id="oiw9RieTrFUaGt8_zSmy-11" value="" style="strokeColor=default;fillColor=#BAC8D3;fontSize=18;strokeWidth=2;fontFamily=Helvetica;html=1;opacity=60;movable=0;resizable=0;rotatable=0;deletable=0;editable=0;locked=1;connectable=0;" vertex="1" parent="1">
          <mxGeometry x="108" y="954" width="650.67" height="296" as="geometry" />
        </mxCell>
        <mxCell id="oiw9RieTrFUaGt8_zSmy-12" value="" style="strokeColor=default;fillColor=#BAC8D3;fontSize=18;strokeWidth=2;fontFamily=Helvetica;html=1;opacity=90;movable=0;resizable=0;rotatable=0;deletable=0;editable=0;locked=1;connectable=0;" vertex="1" parent="1">
          <mxGeometry x="108" y="1250.25" width="650.67" height="209.75" as="geometry" />
        </mxCell>
        <mxCell id="oiw9RieTrFUaGt8_zSmy-13" value="" style="strokeColor=default;fillColor=#BAC8D3;fontSize=18;strokeWidth=2;fontFamily=Helvetica;html=1;opacity=60;movable=0;resizable=0;rotatable=0;deletable=0;editable=0;locked=1;connectable=0;fontColor=#ffffff;" vertex="1" parent="1">
          <mxGeometry x="108" y="1930" width="650.67" height="250" as="geometry" />
        </mxCell>
        <mxCell id="oiw9RieTrFUaGt8_zSmy-14" value="" style="strokeColor=default;fillColor=#BAC8D3;fontSize=18;strokeWidth=2;fontFamily=Helvetica;html=1;opacity=60;movable=0;resizable=0;rotatable=0;deletable=0;editable=0;locked=1;connectable=0;" vertex="1" parent="1">
          <mxGeometry x="758.67" y="950" width="651.33" height="300" as="geometry" />
        </mxCell>
        <mxCell id="oiw9RieTrFUaGt8_zSmy-15" value="" style="strokeColor=default;fillColor=#BAC8D3;fontSize=18;strokeWidth=2;fontFamily=Helvetica;html=1;opacity=60;fontStyle=4;movable=0;resizable=0;rotatable=0;deletable=0;editable=0;locked=1;connectable=0;" vertex="1" parent="1">
          <mxGeometry x="758.67" y="1930" width="651.33" height="250" as="geometry" />
        </mxCell>
        <mxCell id="oiw9RieTrFUaGt8_zSmy-16" value="" style="strokeColor=default;fillColor=#BAC8D3;fontSize=18;strokeWidth=2;fontFamily=Helvetica;html=1;opacity=60;movable=0;resizable=0;rotatable=0;deletable=0;editable=0;locked=1;connectable=0;" vertex="1" parent="1">
          <mxGeometry x="1410" y="954" width="650" height="296" as="geometry" />
        </mxCell>
        <mxCell id="oiw9RieTrFUaGt8_zSmy-17" value="" style="strokeColor=default;fillColor=#BAC8D3;fontSize=18;strokeWidth=2;fontFamily=Helvetica;html=1;opacity=90;movable=0;resizable=0;rotatable=0;deletable=0;editable=0;locked=1;connectable=0;" vertex="1" parent="1">
          <mxGeometry x="1410" y="1250" width="650" height="210" as="geometry" />
        </mxCell>
        <mxCell id="oiw9RieTrFUaGt8_zSmy-18" value="" style="edgeStyle=orthogonalEdgeStyle;rounded=0;orthogonalLoop=1;jettySize=auto;html=1;movable=0;resizable=0;rotatable=0;deletable=0;editable=0;locked=1;connectable=0;exitX=1;exitY=0.5;exitDx=0;exitDy=0;" edge="1" parent="1" source="oiw9RieTrFUaGt8_zSmy-19" target="oiw9RieTrFUaGt8_zSmy-26">
          <mxGeometry relative="1" as="geometry">
            <mxPoint x="383" y="1020" as="sourcePoint" />
          </mxGeometry>
        </mxCell>
        <mxCell id="oiw9RieTrFUaGt8_zSmy-19" value="&lt;font style=&quot;font-size: 10px;&quot; color=&quot;#cce5ff&quot;&gt;&lt;b&gt;SCAN QR&amp;nbsp;&lt;/b&gt;&lt;/font&gt;" style="rounded=1;fillColor=#23445D;strokeColor=#23445D;strokeWidth=2;fontFamily=Helvetica;html=1;gradientColor=none;movable=0;resizable=0;rotatable=0;deletable=0;editable=0;locked=1;connectable=0;" vertex="1" parent="1">
          <mxGeometry x="243.5045578231293" y="974" width="127" height="50" as="geometry" />
        </mxCell>
        <mxCell id="oiw9RieTrFUaGt8_zSmy-20" value="" style="edgeStyle=orthogonalEdgeStyle;rounded=0;orthogonalLoop=1;jettySize=auto;html=1;movable=0;resizable=0;rotatable=0;deletable=0;editable=0;locked=1;connectable=0;" edge="1" parent="1" source="oiw9RieTrFUaGt8_zSmy-21" target="oiw9RieTrFUaGt8_zSmy-19">
          <mxGeometry relative="1" as="geometry" />
        </mxCell>
        <mxCell id="oiw9RieTrFUaGt8_zSmy-21" value="&lt;font style=&quot;font-size: 10px;&quot; color=&quot;#cce5ff&quot;&gt;&lt;b&gt;START&lt;/b&gt;&lt;/font&gt;" style="strokeWidth=2;html=1;shape=mxgraph.flowchart.terminator;whiteSpace=wrap;fillColor=#23445D;strokeColor=#23445D;movable=0;resizable=0;rotatable=0;deletable=0;editable=0;locked=1;connectable=0;" vertex="1" parent="1">
          <mxGeometry x="128" y="979" width="80" height="40" as="geometry" />
        </mxCell>
        <mxCell id="oiw9RieTrFUaGt8_zSmy-22" value="" style="edgeStyle=orthogonalEdgeStyle;rounded=0;orthogonalLoop=1;jettySize=auto;html=1;movable=0;resizable=0;rotatable=0;deletable=0;editable=0;locked=1;connectable=0;" edge="1" parent="1" source="oiw9RieTrFUaGt8_zSmy-26" target="oiw9RieTrFUaGt8_zSmy-28">
          <mxGeometry relative="1" as="geometry" />
        </mxCell>
        <mxCell id="oiw9RieTrFUaGt8_zSmy-23" value="YES" style="edgeLabel;html=1;align=center;verticalAlign=middle;resizable=0;points=[];movable=0;rotatable=0;deletable=0;editable=0;locked=1;connectable=0;" vertex="1" connectable="0" parent="oiw9RieTrFUaGt8_zSmy-22">
          <mxGeometry x="-0.11" relative="1" as="geometry">
            <mxPoint x="-10" as="offset" />
          </mxGeometry>
        </mxCell>
        <mxCell id="oiw9RieTrFUaGt8_zSmy-24" value="" style="edgeStyle=orthogonalEdgeStyle;rounded=0;orthogonalLoop=1;jettySize=auto;html=1;movable=0;resizable=0;rotatable=0;deletable=0;editable=0;locked=1;connectable=0;" edge="1" parent="1" source="oiw9RieTrFUaGt8_zSmy-26" target="oiw9RieTrFUaGt8_zSmy-113">
          <mxGeometry relative="1" as="geometry" />
        </mxCell>
        <mxCell id="oiw9RieTrFUaGt8_zSmy-25" value="NO" style="edgeLabel;html=1;align=center;verticalAlign=middle;resizable=0;points=[];movable=0;rotatable=0;deletable=0;editable=0;locked=1;connectable=0;" vertex="1" connectable="0" parent="oiw9RieTrFUaGt8_zSmy-24">
          <mxGeometry x="-0.4329" relative="1" as="geometry">
            <mxPoint as="offset" />
          </mxGeometry>
        </mxCell>
        <mxCell id="oiw9RieTrFUaGt8_zSmy-26" value="&lt;font style=&quot;font-size: 10px;&quot;&gt;&lt;font color=&quot;#cce5ff&quot; style=&quot;&quot;&gt;&lt;b style=&quot;&quot;&gt;&lt;font style=&quot;&quot;&gt;IF&amp;nbsp;&lt;/font&gt;&lt;span style=&quot;background-color: initial;&quot;&gt;NO QR&amp;nbsp;&lt;/span&gt;&lt;/b&gt;&lt;/font&gt;&lt;/font&gt;&lt;div&gt;&lt;font style=&quot;font-size: 10px;&quot;&gt;&lt;b style=&quot;background-color: initial; color: rgb(204, 229, 255);&quot;&gt;OR&amp;nbsp;&lt;/b&gt;&lt;/font&gt;&lt;/div&gt;&lt;div&gt;&lt;font style=&quot;font-size: 10px;&quot;&gt;&lt;b style=&quot;color: rgb(204, 229, 255); background-color: initial;&quot;&gt;NOT EXIST&lt;/b&gt;&lt;/font&gt;&lt;/div&gt;&lt;div&gt;&lt;font color=&quot;#cce5ff&quot;&gt;&lt;span style=&quot;font-size: 10px;&quot;&gt;&lt;b&gt;?&lt;/b&gt;&lt;/span&gt;&lt;/font&gt;&lt;/div&gt;" style="rhombus;whiteSpace=wrap;html=1;fillColor=#23445D;strokeColor=#23445D;rounded=1;strokeWidth=2;gradientColor=none;movable=0;resizable=0;rotatable=0;deletable=0;editable=0;locked=1;connectable=0;" vertex="1" parent="1">
          <mxGeometry x="410" y="954" width="100" height="90" as="geometry" />
        </mxCell>
        <mxCell id="oiw9RieTrFUaGt8_zSmy-27" style="edgeStyle=orthogonalEdgeStyle;rounded=0;orthogonalLoop=1;jettySize=auto;html=1;movable=0;resizable=0;rotatable=0;deletable=0;editable=0;locked=1;connectable=0;" edge="1" parent="1" source="oiw9RieTrFUaGt8_zSmy-28">
          <mxGeometry relative="1" as="geometry">
            <mxPoint x="460" y="1070" as="targetPoint" />
            <Array as="points">
              <mxPoint x="618" y="1070" />
              <mxPoint x="460" y="1070" />
            </Array>
          </mxGeometry>
        </mxCell>
        <mxCell id="oiw9RieTrFUaGt8_zSmy-28" value="&lt;font color=&quot;#cce5ff&quot; style=&quot;font-size: 10px;&quot;&gt;&lt;b&gt;GENERATE TEMP QR&lt;/b&gt;&lt;/font&gt;&lt;div&gt;&lt;font color=&quot;#cce5ff&quot;&gt;&lt;span style=&quot;font-size: 10px;&quot;&gt;&lt;b&gt;&amp;amp; REGISTER&lt;/b&gt;&lt;/span&gt;&lt;/font&gt;&lt;/div&gt;" style="whiteSpace=wrap;html=1;fillColor=#23445D;strokeColor=#23445D;rounded=1;strokeWidth=2;gradientColor=none;movable=0;resizable=0;rotatable=0;deletable=0;editable=0;locked=1;connectable=0;" vertex="1" parent="1">
          <mxGeometry x="558" y="969" width="120" height="60" as="geometry" />
        </mxCell>
        <mxCell id="oiw9RieTrFUaGt8_zSmy-29" style="edgeStyle=orthogonalEdgeStyle;rounded=0;orthogonalLoop=1;jettySize=auto;html=1;entryX=0.5;entryY=0;entryDx=0;entryDy=0;movable=0;resizable=0;rotatable=0;deletable=0;editable=0;locked=1;connectable=0;" edge="1" parent="1" source="oiw9RieTrFUaGt8_zSmy-30" target="oiw9RieTrFUaGt8_zSmy-36">
          <mxGeometry relative="1" as="geometry" />
        </mxCell>
        <mxCell id="oiw9RieTrFUaGt8_zSmy-30" value="&lt;font color=&quot;#cce5ff&quot; style=&quot;font-size: 10px;&quot;&gt;&lt;b style=&quot;&quot;&gt;&lt;font style=&quot;&quot;&gt;GERERATE&amp;nbsp;&lt;/font&gt;&lt;/b&gt;&lt;/font&gt;&lt;div&gt;&lt;font color=&quot;#cce5ff&quot; style=&quot;font-size: 10px;&quot;&gt;&lt;b style=&quot;&quot;&gt;&lt;span style=&quot;background-color: initial;&quot;&gt;Queuing&amp;nbsp;&lt;/span&gt;&lt;span style=&quot;background-color: initial;&quot;&gt;Information | #&lt;/span&gt;&lt;/b&gt;&lt;/font&gt;&lt;/div&gt;" style="whiteSpace=wrap;html=1;fillColor=#23445D;strokeColor=#23445D;rounded=1;strokeWidth=2;gradientColor=none;movable=0;resizable=0;rotatable=0;deletable=0;editable=0;locked=1;connectable=0;" vertex="1" parent="1">
          <mxGeometry x="138" y="1145" width="120" height="60" as="geometry" />
        </mxCell>
        <mxCell id="oiw9RieTrFUaGt8_zSmy-31" style="edgeStyle=orthogonalEdgeStyle;rounded=0;orthogonalLoop=1;jettySize=auto;html=1;entryX=0.041;entryY=0.511;entryDx=0;entryDy=0;entryPerimeter=0;movable=0;resizable=0;rotatable=0;deletable=0;editable=0;locked=1;connectable=0;" edge="1" parent="1" source="oiw9RieTrFUaGt8_zSmy-36" target="oiw9RieTrFUaGt8_zSmy-44">
          <mxGeometry relative="1" as="geometry">
            <mxPoint x="302.9999999999918" y="1318.5" as="targetPoint" />
          </mxGeometry>
        </mxCell>
        <mxCell id="oiw9RieTrFUaGt8_zSmy-32" value="YES" style="edgeLabel;html=1;align=center;verticalAlign=middle;resizable=0;points=[];movable=0;rotatable=0;deletable=0;editable=0;locked=1;connectable=0;" vertex="1" connectable="0" parent="oiw9RieTrFUaGt8_zSmy-31">
          <mxGeometry x="0.14" relative="1" as="geometry">
            <mxPoint x="-15" as="offset" />
          </mxGeometry>
        </mxCell>
        <mxCell id="oiw9RieTrFUaGt8_zSmy-33" value="&lt;div&gt;&lt;br&gt;&lt;/div&gt;&lt;div&gt;&lt;br&gt;&lt;/div&gt;" style="edgeLabel;html=1;align=center;verticalAlign=middle;resizable=0;points=[];movable=0;rotatable=0;deletable=0;editable=0;locked=1;connectable=0;" vertex="1" connectable="0" parent="oiw9RieTrFUaGt8_zSmy-31">
          <mxGeometry x="-0.4066" y="-4" relative="1" as="geometry">
            <mxPoint as="offset" />
          </mxGeometry>
        </mxCell>
        <mxCell id="oiw9RieTrFUaGt8_zSmy-34" value="" style="edgeStyle=orthogonalEdgeStyle;rounded=0;orthogonalLoop=1;jettySize=auto;html=1;movable=0;resizable=0;rotatable=0;deletable=0;editable=0;locked=1;connectable=0;" edge="1" parent="1" source="oiw9RieTrFUaGt8_zSmy-36" target="oiw9RieTrFUaGt8_zSmy-39">
          <mxGeometry relative="1" as="geometry" />
        </mxCell>
        <mxCell id="oiw9RieTrFUaGt8_zSmy-35" value="NO" style="edgeLabel;html=1;align=center;verticalAlign=middle;resizable=0;points=[];movable=0;rotatable=0;deletable=0;editable=0;locked=1;connectable=0;" vertex="1" connectable="0" parent="oiw9RieTrFUaGt8_zSmy-34">
          <mxGeometry x="0.1348" y="-1" relative="1" as="geometry">
            <mxPoint x="1" y="-13" as="offset" />
          </mxGeometry>
        </mxCell>
        <mxCell id="oiw9RieTrFUaGt8_zSmy-36" value="&lt;font color=&quot;#cce5ff&quot;&gt;&lt;span style=&quot;font-size: 10px;&quot;&gt;&lt;b&gt;HAS&amp;nbsp;&lt;/b&gt;&lt;/span&gt;&lt;/font&gt;&lt;div&gt;&lt;font color=&quot;#cce5ff&quot;&gt;&lt;span style=&quot;font-size: 10px;&quot;&gt;&lt;b&gt;Queuing #&amp;nbsp;&lt;/b&gt;&lt;/span&gt;&lt;/font&gt;&lt;/div&gt;&lt;div&gt;&lt;font color=&quot;#cce5ff&quot;&gt;&lt;span style=&quot;font-size: 10px;&quot;&gt;&lt;b&gt;&amp;amp;&lt;/b&gt;&lt;/span&gt;&lt;/font&gt;&lt;/div&gt;&lt;div&gt;&lt;b style=&quot;color: rgb(204, 229, 255); background-color: initial;&quot;&gt;&lt;font style=&quot;font-size: 10px;&quot;&gt;QUEUED&lt;/font&gt;&lt;/b&gt;&lt;/div&gt;&lt;div&gt;&lt;font color=&quot;#cce5ff&quot;&gt;&lt;span style=&quot;font-size: 10px;&quot;&gt;&lt;b&gt;?&lt;/b&gt;&lt;/span&gt;&lt;/font&gt;&lt;/div&gt;" style="rhombus;whiteSpace=wrap;html=1;fillColor=#23445D;strokeColor=#23445D;rounded=1;strokeWidth=2;gradientColor=none;movable=0;resizable=0;rotatable=0;deletable=0;editable=0;locked=1;connectable=0;" vertex="1" parent="1">
          <mxGeometry x="148" y="1273.5" width="100" height="90" as="geometry" />
        </mxCell>
        <mxCell id="oiw9RieTrFUaGt8_zSmy-37" style="edgeStyle=orthogonalEdgeStyle;rounded=0;orthogonalLoop=1;jettySize=auto;html=1;movable=0;resizable=0;rotatable=0;deletable=0;editable=0;locked=1;connectable=0;" edge="1" parent="1" source="oiw9RieTrFUaGt8_zSmy-38">
          <mxGeometry relative="1" as="geometry">
            <mxPoint x="220" y="1000" as="targetPoint" />
          </mxGeometry>
        </mxCell>
        <mxCell id="oiw9RieTrFUaGt8_zSmy-38" value="&lt;font color=&quot;#cce5ff&quot; style=&quot;font-size: 10px;&quot;&gt;&lt;b&gt;A&lt;/b&gt;&lt;/font&gt;" style="ellipse;whiteSpace=wrap;html=1;fillColor=#23445D;strokeColor=#23445D;rounded=1;strokeWidth=2;gradientColor=none;movable=0;resizable=0;rotatable=0;deletable=0;editable=0;locked=1;connectable=0;" vertex="1" parent="1">
          <mxGeometry x="205" y="1032" width="30" height="29.5" as="geometry" />
        </mxCell>
        <mxCell id="oiw9RieTrFUaGt8_zSmy-39" value="&lt;font color=&quot;#cce5ff&quot; style=&quot;font-size: 10px;&quot;&gt;&lt;b&gt;A&lt;/b&gt;&lt;/font&gt;" style="ellipse;whiteSpace=wrap;html=1;fillColor=#23445D;strokeColor=#23445D;rounded=1;strokeWidth=2;gradientColor=none;movable=0;resizable=0;rotatable=0;deletable=0;editable=0;locked=1;connectable=0;" vertex="1" parent="1">
          <mxGeometry x="183" y="1403.5" width="30" height="29.5" as="geometry" />
        </mxCell>
        <mxCell id="oiw9RieTrFUaGt8_zSmy-40" value="" style="edgeStyle=orthogonalEdgeStyle;rounded=0;orthogonalLoop=1;jettySize=auto;html=1;movable=0;resizable=0;rotatable=0;deletable=0;editable=0;locked=1;connectable=0;" edge="1" parent="1" source="oiw9RieTrFUaGt8_zSmy-44" target="oiw9RieTrFUaGt8_zSmy-48">
          <mxGeometry relative="1" as="geometry" />
        </mxCell>
        <mxCell id="oiw9RieTrFUaGt8_zSmy-41" value="NO" style="edgeLabel;html=1;align=center;verticalAlign=middle;resizable=0;points=[];movable=0;rotatable=0;deletable=0;editable=0;locked=1;connectable=0;" vertex="1" connectable="0" parent="oiw9RieTrFUaGt8_zSmy-40">
          <mxGeometry x="-0.4232" relative="1" as="geometry">
            <mxPoint as="offset" />
          </mxGeometry>
        </mxCell>
        <mxCell id="oiw9RieTrFUaGt8_zSmy-42" value="" style="edgeStyle=orthogonalEdgeStyle;rounded=0;orthogonalLoop=1;jettySize=auto;html=1;movable=0;resizable=0;rotatable=0;deletable=0;editable=0;locked=1;connectable=0;" edge="1" parent="1" source="oiw9RieTrFUaGt8_zSmy-44" target="oiw9RieTrFUaGt8_zSmy-46">
          <mxGeometry relative="1" as="geometry" />
        </mxCell>
        <mxCell id="oiw9RieTrFUaGt8_zSmy-43" value="YES" style="edgeLabel;html=1;align=center;verticalAlign=middle;resizable=0;points=[];movable=0;rotatable=0;deletable=0;editable=0;locked=1;connectable=0;" vertex="1" connectable="0" parent="oiw9RieTrFUaGt8_zSmy-42">
          <mxGeometry x="-0.2042" y="1" relative="1" as="geometry">
            <mxPoint as="offset" />
          </mxGeometry>
        </mxCell>
        <mxCell id="oiw9RieTrFUaGt8_zSmy-44" value="&lt;font color=&quot;#cce5ff&quot;&gt;&lt;span style=&quot;font-size: 10px;&quot;&gt;&lt;b&gt;IF&lt;br&gt;REGISTERED&lt;br&gt;&lt;/b&gt;&lt;/span&gt;&lt;/font&gt;&lt;div&gt;&lt;font color=&quot;#cce5ff&quot;&gt;&lt;span style=&quot;font-size: 10px;&quot;&gt;&lt;b&gt;?&lt;/b&gt;&lt;/span&gt;&lt;/font&gt;&lt;/div&gt;" style="rhombus;whiteSpace=wrap;html=1;fillColor=#23445D;strokeColor=#23445D;rounded=1;strokeWidth=2;gradientColor=none;movable=0;resizable=0;rotatable=0;deletable=0;editable=0;locked=1;connectable=0;" vertex="1" parent="1">
          <mxGeometry x="298" y="1273.5" width="100" height="90" as="geometry" />
        </mxCell>
        <mxCell id="oiw9RieTrFUaGt8_zSmy-45" value="" style="edgeStyle=orthogonalEdgeStyle;rounded=0;orthogonalLoop=1;jettySize=auto;html=1;movable=0;resizable=0;rotatable=0;deletable=0;editable=0;locked=1;connectable=0;" edge="1" parent="1" source="oiw9RieTrFUaGt8_zSmy-46" target="oiw9RieTrFUaGt8_zSmy-53">
          <mxGeometry relative="1" as="geometry" />
        </mxCell>
        <mxCell id="oiw9RieTrFUaGt8_zSmy-46" value="&lt;font color=&quot;#cce5ff&quot; style=&quot;font-size: 10px;&quot;&gt;&lt;b&gt;ENCODE&amp;nbsp;&lt;/b&gt;&lt;/font&gt;&lt;div&gt;&lt;font color=&quot;#cce5ff&quot;&gt;&lt;span style=&quot;font-size: 10px;&quot;&gt;&lt;b&gt;(Add/Update Vital Sign)&lt;/b&gt;&lt;/span&gt;&lt;/font&gt;&lt;/div&gt;" style="whiteSpace=wrap;html=1;fillColor=#23445D;strokeColor=#23445D;rounded=1;strokeWidth=2;gradientColor=none;movable=0;resizable=0;rotatable=0;deletable=0;editable=0;locked=1;connectable=0;" vertex="1" parent="1">
          <mxGeometry x="443" y="1288.5" width="95" height="60" as="geometry" />
        </mxCell>
        <mxCell id="oiw9RieTrFUaGt8_zSmy-47" style="edgeStyle=orthogonalEdgeStyle;rounded=0;orthogonalLoop=1;jettySize=auto;html=1;movable=0;resizable=0;rotatable=0;deletable=0;editable=0;locked=1;connectable=0;" edge="1" parent="1" source="oiw9RieTrFUaGt8_zSmy-48">
          <mxGeometry relative="1" as="geometry">
            <mxPoint x="418" y="1323.5" as="targetPoint" />
          </mxGeometry>
        </mxCell>
        <mxCell id="oiw9RieTrFUaGt8_zSmy-48" value="&lt;font color=&quot;#cce5ff&quot; style=&quot;font-size: 10px;&quot;&gt;&lt;b&gt;REGISTER&lt;/b&gt;&lt;/font&gt;&lt;div&gt;&lt;font color=&quot;#cce5ff&quot; style=&quot;font-size: 10px;&quot;&gt;&lt;b&gt;PATIENT&lt;/b&gt;&lt;/font&gt;&lt;/div&gt;" style="whiteSpace=wrap;html=1;fillColor=#23445D;strokeColor=#23445D;rounded=1;strokeWidth=2;gradientColor=none;movable=0;resizable=0;rotatable=0;deletable=0;editable=0;locked=1;connectable=0;" vertex="1" parent="1">
          <mxGeometry x="308" y="1403" width="80" height="30" as="geometry" />
        </mxCell>
        <mxCell id="oiw9RieTrFUaGt8_zSmy-49" style="edgeStyle=orthogonalEdgeStyle;rounded=0;orthogonalLoop=1;jettySize=auto;html=1;entryX=0.5;entryY=0;entryDx=0;entryDy=0;movable=0;resizable=0;rotatable=0;deletable=0;editable=0;locked=1;connectable=0;" edge="1" parent="1" source="oiw9RieTrFUaGt8_zSmy-53" target="oiw9RieTrFUaGt8_zSmy-56">
          <mxGeometry relative="1" as="geometry">
            <mxPoint x="618" y="1403.5" as="targetPoint" />
          </mxGeometry>
        </mxCell>
        <mxCell id="oiw9RieTrFUaGt8_zSmy-50" value="NO" style="edgeLabel;html=1;align=center;verticalAlign=middle;resizable=0;points=[];movable=0;rotatable=0;deletable=0;editable=0;locked=1;connectable=0;" vertex="1" connectable="0" parent="oiw9RieTrFUaGt8_zSmy-49">
          <mxGeometry x="-0.4156" y="1" relative="1" as="geometry">
            <mxPoint y="-3" as="offset" />
          </mxGeometry>
        </mxCell>
        <mxCell id="oiw9RieTrFUaGt8_zSmy-51" style="edgeStyle=orthogonalEdgeStyle;rounded=0;orthogonalLoop=1;jettySize=auto;html=1;exitX=0.982;exitY=0.508;exitDx=0;exitDy=0;exitPerimeter=0;movable=0;resizable=0;rotatable=0;deletable=0;editable=0;locked=1;connectable=0;" edge="1" parent="1" source="oiw9RieTrFUaGt8_zSmy-53" target="oiw9RieTrFUaGt8_zSmy-127">
          <mxGeometry relative="1" as="geometry">
            <Array as="points">
              <mxPoint x="700" y="1319" />
            </Array>
          </mxGeometry>
        </mxCell>
        <mxCell id="oiw9RieTrFUaGt8_zSmy-52" value="YES" style="edgeLabel;html=1;align=center;verticalAlign=middle;resizable=0;points=[];movable=0;rotatable=0;deletable=0;editable=0;locked=1;connectable=0;" connectable="0" vertex="1" parent="oiw9RieTrFUaGt8_zSmy-51">
          <mxGeometry x="-0.4083" y="-2" relative="1" as="geometry">
            <mxPoint x="-3" y="-3" as="offset" />
          </mxGeometry>
        </mxCell>
        <mxCell id="oiw9RieTrFUaGt8_zSmy-53" value="&lt;font color=&quot;#cce5ff&quot;&gt;&lt;span style=&quot;font-size: 10px;&quot;&gt;&lt;b&gt;REFER&lt;/b&gt;&lt;/span&gt;&lt;/font&gt;&lt;br&gt;&lt;div&gt;&lt;font color=&quot;#cce5ff&quot;&gt;&lt;span style=&quot;font-size: 10px;&quot;&gt;&lt;b&gt;TO ER&lt;/b&gt;&lt;/span&gt;&lt;/font&gt;&lt;b style=&quot;font-size: 10px; color: rgb(204, 229, 255); background-color: initial;&quot;&gt;?&lt;/b&gt;&lt;/div&gt;" style="rhombus;whiteSpace=wrap;html=1;fillColor=#23445D;strokeColor=#23445D;rounded=1;strokeWidth=2;gradientColor=none;movable=0;resizable=0;rotatable=0;deletable=0;editable=0;locked=1;connectable=0;" vertex="1" parent="1">
          <mxGeometry x="568" y="1273.5" width="100" height="90" as="geometry" />
        </mxCell>
        <mxCell id="oiw9RieTrFUaGt8_zSmy-54" value="" style="strokeColor=default;fillColor=#BAC8D3;fontSize=18;strokeWidth=2;fontFamily=Helvetica;html=1;opacity=60;fontStyle=4;movable=0;resizable=0;rotatable=0;deletable=0;editable=0;locked=1;connectable=0;" vertex="1" parent="1">
          <mxGeometry x="1411.67" y="1930.5" width="648.33" height="249.5" as="geometry" />
        </mxCell>
        <mxCell id="oiw9RieTrFUaGt8_zSmy-55" style="edgeStyle=orthogonalEdgeStyle;rounded=0;orthogonalLoop=1;jettySize=auto;html=1;entryX=0.5;entryY=0;entryDx=0;entryDy=0;fontFamily=Helvetica;fontSize=18;fontColor=#ffffff;movable=0;resizable=0;rotatable=0;deletable=0;editable=0;locked=1;connectable=0;" edge="1" parent="1" source="oiw9RieTrFUaGt8_zSmy-56" target="oiw9RieTrFUaGt8_zSmy-158">
          <mxGeometry relative="1" as="geometry">
            <Array as="points">
              <mxPoint x="618" y="1470" />
              <mxPoint x="198" y="1470" />
            </Array>
          </mxGeometry>
        </mxCell>
        <mxCell id="oiw9RieTrFUaGt8_zSmy-56" value="&lt;font color=&quot;#cce5ff&quot; style=&quot;font-size: 10px;&quot;&gt;&lt;b style=&quot;&quot;&gt;&lt;font style=&quot;&quot;&gt;GERERATE&amp;nbsp;&lt;/font&gt;&lt;/b&gt;&lt;/font&gt;&lt;div&gt;&lt;font color=&quot;#cce5ff&quot; style=&quot;font-size: 10px;&quot;&gt;&lt;b style=&quot;&quot;&gt;&lt;span style=&quot;background-color: initial;&quot;&gt;Queuing&amp;nbsp;&lt;/span&gt;&lt;span style=&quot;background-color: initial;&quot;&gt;Information | #&lt;/span&gt;&lt;/b&gt;&lt;/font&gt;&lt;/div&gt;" style="whiteSpace=wrap;html=1;fillColor=#23445D;strokeColor=#23445D;rounded=1;strokeWidth=2;gradientColor=none;movable=0;resizable=0;rotatable=0;deletable=0;editable=0;locked=1;connectable=0;" vertex="1" parent="1">
          <mxGeometry x="550.5" y="1395.25" width="135" height="45.5" as="geometry" />
        </mxCell>
        <mxCell id="oiw9RieTrFUaGt8_zSmy-57" style="edgeStyle=orthogonalEdgeStyle;rounded=0;orthogonalLoop=1;jettySize=auto;html=1;movable=0;resizable=0;rotatable=0;deletable=0;editable=0;locked=1;connectable=0;" edge="1" parent="1" source="oiw9RieTrFUaGt8_zSmy-61">
          <mxGeometry relative="1" as="geometry">
            <mxPoint x="198" y="1940" as="targetPoint" />
            <Array as="points">
              <mxPoint x="270" y="1995" />
              <mxPoint x="270" y="1940" />
            </Array>
          </mxGeometry>
        </mxCell>
        <mxCell id="oiw9RieTrFUaGt8_zSmy-58" value="NO" style="edgeLabel;html=1;align=center;verticalAlign=middle;resizable=0;points=[];movable=0;rotatable=0;deletable=0;editable=0;locked=1;connectable=0;" vertex="1" connectable="0" parent="oiw9RieTrFUaGt8_zSmy-57">
          <mxGeometry x="-0.6771" y="1" relative="1" as="geometry">
            <mxPoint x="-10" y="1" as="offset" />
          </mxGeometry>
        </mxCell>
        <mxCell id="oiw9RieTrFUaGt8_zSmy-59" style="edgeStyle=orthogonalEdgeStyle;rounded=0;orthogonalLoop=1;jettySize=auto;html=1;movable=0;resizable=0;rotatable=0;deletable=0;editable=0;locked=1;connectable=0;entryX=0.5;entryY=0;entryDx=0;entryDy=0;" edge="1" parent="1" source="oiw9RieTrFUaGt8_zSmy-61" target="oiw9RieTrFUaGt8_zSmy-63">
          <mxGeometry relative="1" as="geometry">
            <mxPoint x="198" y="2060" as="targetPoint" />
          </mxGeometry>
        </mxCell>
        <mxCell id="oiw9RieTrFUaGt8_zSmy-60" value="YES" style="edgeLabel;html=1;align=center;verticalAlign=middle;resizable=0;points=[];movable=0;rotatable=0;deletable=0;editable=0;locked=1;connectable=0;" vertex="1" connectable="0" parent="oiw9RieTrFUaGt8_zSmy-59">
          <mxGeometry x="-0.3513" relative="1" as="geometry">
            <mxPoint as="offset" />
          </mxGeometry>
        </mxCell>
        <mxCell id="oiw9RieTrFUaGt8_zSmy-61" value="&lt;font style=&quot;font-size: 10px;&quot; color=&quot;#cce5ff&quot;&gt;&lt;b style=&quot;&quot;&gt;IF&lt;/b&gt;&lt;/font&gt;&lt;div&gt;&lt;b style=&quot;color: rgb(204, 229, 255); background-color: initial;&quot;&gt;&lt;font style=&quot;font-size: 10px;&quot;&gt;QUEUED&lt;/font&gt;&lt;/b&gt;&lt;/div&gt;&lt;div&gt;&lt;b style=&quot;color: rgb(204, 229, 255); background-color: initial;&quot;&gt;&lt;font style=&quot;font-size: 10px;&quot;&gt;?&lt;/font&gt;&lt;/b&gt;&lt;/div&gt;" style="rhombus;whiteSpace=wrap;html=1;fillColor=#23445D;strokeColor=#23445D;rounded=1;strokeWidth=2;gradientColor=none;movable=0;resizable=0;rotatable=0;deletable=0;editable=0;locked=1;connectable=0;" vertex="1" parent="1">
          <mxGeometry x="158" y="1960" width="80" height="70" as="geometry" />
        </mxCell>
        <mxCell id="oiw9RieTrFUaGt8_zSmy-62" style="edgeStyle=orthogonalEdgeStyle;rounded=0;orthogonalLoop=1;jettySize=auto;html=1;entryX=0.046;entryY=0.5;entryDx=0;entryDy=0;entryPerimeter=0;movable=0;resizable=0;rotatable=0;deletable=0;editable=0;locked=1;connectable=0;exitX=1;exitY=0.5;exitDx=0;exitDy=0;" edge="1" parent="1" source="oiw9RieTrFUaGt8_zSmy-63" target="oiw9RieTrFUaGt8_zSmy-68">
          <mxGeometry relative="1" as="geometry">
            <mxPoint x="278" y="1990" as="targetPoint" />
            <Array as="points">
              <mxPoint x="278" y="2088" />
              <mxPoint x="278" y="1995" />
            </Array>
          </mxGeometry>
        </mxCell>
        <mxCell id="oiw9RieTrFUaGt8_zSmy-63" value="&lt;font style=&quot;font-size: 10px;&quot;&gt;&lt;font color=&quot;#cce5ff&quot;&gt;&lt;b&gt;ENCODE&lt;/b&gt;&lt;/font&gt;&lt;/font&gt;&lt;div&gt;&lt;font style=&quot;font-size: 10px;&quot;&gt;&lt;b style=&quot;color: rgb(204, 229, 255); background-color: initial;&quot;&gt;Diagnoses, RX and Examination Request&lt;/b&gt;&lt;/font&gt;&lt;/div&gt;" style="whiteSpace=wrap;html=1;fillColor=#23445D;strokeColor=#23445D;rounded=1;strokeWidth=2;gradientColor=none;movable=0;resizable=0;rotatable=0;deletable=0;editable=0;locked=1;connectable=0;" vertex="1" parent="1">
          <mxGeometry x="135.25" y="2063.25" width="125.5" height="50" as="geometry" />
        </mxCell>
        <mxCell id="oiw9RieTrFUaGt8_zSmy-64" value="" style="edgeStyle=orthogonalEdgeStyle;rounded=0;orthogonalLoop=1;jettySize=auto;html=1;movable=0;resizable=0;rotatable=0;deletable=0;editable=0;locked=1;connectable=0;" edge="1" parent="1" source="oiw9RieTrFUaGt8_zSmy-68" target="oiw9RieTrFUaGt8_zSmy-69">
          <mxGeometry relative="1" as="geometry" />
        </mxCell>
        <mxCell id="oiw9RieTrFUaGt8_zSmy-65" value="NO" style="edgeLabel;html=1;align=center;verticalAlign=middle;resizable=0;points=[];movable=0;rotatable=0;deletable=0;editable=0;locked=1;connectable=0;" vertex="1" connectable="0" parent="oiw9RieTrFUaGt8_zSmy-64">
          <mxGeometry x="-0.45" y="-1" relative="1" as="geometry">
            <mxPoint as="offset" />
          </mxGeometry>
        </mxCell>
        <mxCell id="oiw9RieTrFUaGt8_zSmy-66" value="" style="edgeStyle=orthogonalEdgeStyle;rounded=0;orthogonalLoop=1;jettySize=auto;html=1;movable=0;resizable=0;rotatable=0;deletable=0;editable=0;locked=1;connectable=0;entryX=0;entryY=0.5;entryDx=0;entryDy=0;" edge="1" parent="1" source="oiw9RieTrFUaGt8_zSmy-68" target="oiw9RieTrFUaGt8_zSmy-220">
          <mxGeometry relative="1" as="geometry">
            <mxPoint x="530" y="1995" as="targetPoint" />
          </mxGeometry>
        </mxCell>
        <mxCell id="oiw9RieTrFUaGt8_zSmy-67" value="YES" style="edgeLabel;html=1;align=center;verticalAlign=middle;resizable=0;points=[];opacity=60;strokeColor=#ffffff;strokeWidth=2;fontFamily=Helvetica;fontSize=11;fontColor=#000000;fillColor=#BAC8D3;movable=0;rotatable=0;deletable=0;editable=0;locked=1;connectable=0;" connectable="0" vertex="1" parent="oiw9RieTrFUaGt8_zSmy-66">
          <mxGeometry x="-0.3167" y="-1" relative="1" as="geometry">
            <mxPoint y="-1" as="offset" />
          </mxGeometry>
        </mxCell>
        <mxCell id="oiw9RieTrFUaGt8_zSmy-68" value="&lt;div&gt;&lt;font color=&quot;#cce5ff&quot;&gt;&lt;span style=&quot;font-size: 10px;&quot;&gt;&lt;b&gt;REFER&lt;/b&gt;&lt;/span&gt;&lt;/font&gt;&lt;/div&gt;&lt;div&gt;&lt;font color=&quot;#cce5ff&quot;&gt;&lt;span style=&quot;font-size: 10px;&quot;&gt;&lt;b&gt;TO&lt;/b&gt;&lt;/span&gt;&lt;/font&gt;&lt;/div&gt;&lt;div&gt;&lt;font color=&quot;#cce5ff&quot;&gt;&lt;span style=&quot;font-size: 10px;&quot;&gt;&lt;b&gt;IPD&lt;/b&gt;&lt;/span&gt;&lt;/font&gt;&lt;/div&gt;" style="rhombus;whiteSpace=wrap;html=1;fillColor=#23445D;strokeColor=#23445D;rounded=1;strokeWidth=2;gradientColor=none;movable=0;resizable=0;rotatable=0;deletable=0;editable=0;locked=1;connectable=0;" vertex="1" parent="1">
          <mxGeometry x="380" y="1960" width="80" height="70" as="geometry" />
        </mxCell>
        <mxCell id="oiw9RieTrFUaGt8_zSmy-69" value="&lt;font color=&quot;#cce5ff&quot; style=&quot;font-size: 10px;&quot;&gt;&lt;b&gt;PRINT&amp;nbsp;&lt;/b&gt;&lt;/font&gt;&lt;div&gt;&lt;font color=&quot;#cce5ff&quot; style=&quot;font-size: 10px;&quot;&gt;&lt;b&gt;DIAGNOSE RESULT AND REQUEST&lt;br&gt;&lt;/b&gt;&lt;/font&gt;&lt;div&gt;&lt;font style=&quot;font-size: 8px;&quot;&gt;&lt;b style=&quot;background-color: initial; color: rgb(204, 229, 255);&quot;&gt;(MEDS &amp;amp; SUPPLY, EXAMINATION AND OTHER SERVICES&lt;/b&gt;&lt;b style=&quot;color: rgb(204, 229, 255); background-color: initial;&quot;&gt;)&lt;/b&gt;&lt;/font&gt;&lt;/div&gt;&lt;/div&gt;" style="shape=parallelogram;perimeter=parallelogramPerimeter;whiteSpace=wrap;html=1;fixedSize=1;fillColor=#23445D;strokeColor=#23445D;rounded=1;strokeWidth=2;gradientColor=none;movable=0;resizable=0;rotatable=0;deletable=0;editable=0;locked=1;connectable=0;" vertex="1" parent="1">
          <mxGeometry x="280" y="2063.25" width="280" height="56.75" as="geometry" />
        </mxCell>
        <mxCell id="oiw9RieTrFUaGt8_zSmy-70" value="RADIOLOGY" style="strokeColor=#BAC8D3;fillColor=#23445D;fontSize=24;strokeWidth=2;horizontal=0;fontFamily=Helvetica;html=1;fontColor=#FFFFFF;fontStyle=0;movable=0;resizable=0;rotatable=0;deletable=0;editable=0;locked=1;connectable=0;" vertex="1" parent="1">
          <mxGeometry x="22.67" y="2180" width="86" height="200" as="geometry" />
        </mxCell>
        <mxCell id="oiw9RieTrFUaGt8_zSmy-71" value="LABORATORY" style="strokeColor=#BAC8D3;fillColor=#23445D;fontSize=24;strokeWidth=2;horizontal=0;fontFamily=Helvetica;html=1;fontColor=#FFFFFF;fontStyle=0;movable=0;resizable=0;rotatable=0;deletable=0;editable=0;locked=1;connectable=0;" vertex="1" parent="1">
          <mxGeometry x="22.67" y="2380.5" width="86" height="200" as="geometry" />
        </mxCell>
        <mxCell id="oiw9RieTrFUaGt8_zSmy-72" value="" style="strokeColor=default;fillColor=#BAC8D3;fontSize=18;strokeWidth=2;fontFamily=Helvetica;html=1;opacity=60;movable=0;resizable=0;rotatable=0;deletable=0;editable=0;locked=1;connectable=0;" vertex="1" parent="1">
          <mxGeometry x="108.67" y="2380.5" width="1951.33" height="200.5" as="geometry" />
        </mxCell>
        <mxCell id="oiw9RieTrFUaGt8_zSmy-73" style="edgeStyle=orthogonalEdgeStyle;rounded=0;orthogonalLoop=1;jettySize=auto;html=1;movable=0;resizable=0;rotatable=0;deletable=0;editable=0;locked=1;connectable=0;entryX=0;entryY=0.5;entryDx=0;entryDy=0;" edge="1" parent="1" source="oiw9RieTrFUaGt8_zSmy-77" target="oiw9RieTrFUaGt8_zSmy-230">
          <mxGeometry relative="1" as="geometry">
            <mxPoint x="244.5" y="2255" as="targetPoint" />
          </mxGeometry>
        </mxCell>
        <mxCell id="oiw9RieTrFUaGt8_zSmy-74" value="NO" style="edgeLabel;html=1;align=center;verticalAlign=middle;resizable=0;points=[];movable=0;rotatable=0;deletable=0;editable=0;locked=1;connectable=0;" vertex="1" connectable="0" parent="oiw9RieTrFUaGt8_zSmy-73">
          <mxGeometry x="-0.6767" relative="1" as="geometry">
            <mxPoint x="7" as="offset" />
          </mxGeometry>
        </mxCell>
        <mxCell id="oiw9RieTrFUaGt8_zSmy-75" style="edgeStyle=orthogonalEdgeStyle;rounded=0;orthogonalLoop=1;jettySize=auto;html=1;entryX=0;entryY=0.5;entryDx=0;entryDy=0;movable=0;resizable=0;rotatable=0;deletable=0;editable=0;locked=1;connectable=0;" edge="1" parent="1" source="oiw9RieTrFUaGt8_zSmy-77" target="oiw9RieTrFUaGt8_zSmy-82">
          <mxGeometry relative="1" as="geometry">
            <mxPoint x="183.17" y="2349" as="targetPoint" />
            <Array as="points">
              <mxPoint x="168.5" y="2310" />
              <mxPoint x="168.5" y="2338" />
            </Array>
          </mxGeometry>
        </mxCell>
        <mxCell id="oiw9RieTrFUaGt8_zSmy-76" value="YES" style="edgeLabel;html=1;align=center;verticalAlign=middle;resizable=0;points=[];movable=0;rotatable=0;deletable=0;editable=0;locked=1;connectable=0;" vertex="1" connectable="0" parent="oiw9RieTrFUaGt8_zSmy-75">
          <mxGeometry x="-0.7052" y="2" relative="1" as="geometry">
            <mxPoint x="-1" y="3" as="offset" />
          </mxGeometry>
        </mxCell>
        <mxCell id="oiw9RieTrFUaGt8_zSmy-77" value="&lt;font style=&quot;font-size: 10px;&quot; color=&quot;#cce5ff&quot;&gt;&lt;b style=&quot;&quot;&gt;IF&lt;/b&gt;&lt;/font&gt;&lt;div&gt;&lt;b style=&quot;color: rgb(204, 229, 255); background-color: initial;&quot;&gt;&lt;font style=&quot;font-size: 10px;&quot;&gt;QUEUED&lt;/font&gt;&lt;/b&gt;&lt;/div&gt;" style="rhombus;whiteSpace=wrap;html=1;fillColor=#23445D;strokeColor=#23445D;rounded=1;strokeWidth=2;gradientColor=none;movable=0;resizable=0;rotatable=0;deletable=0;editable=0;locked=1;connectable=0;" vertex="1" parent="1">
          <mxGeometry x="128" y="2220" width="80" height="70" as="geometry" />
        </mxCell>
        <mxCell id="oiw9RieTrFUaGt8_zSmy-78" style="edgeStyle=orthogonalEdgeStyle;rounded=0;orthogonalLoop=1;jettySize=auto;html=1;entryX=0;entryY=0.5;entryDx=0;entryDy=0;movable=0;resizable=0;rotatable=0;deletable=0;editable=0;locked=1;connectable=0;" edge="1" parent="1" source="oiw9RieTrFUaGt8_zSmy-80" target="oiw9RieTrFUaGt8_zSmy-84">
          <mxGeometry relative="1" as="geometry">
            <mxPoint x="241.67" y="2509" as="targetPoint" />
            <Array as="points">
              <mxPoint x="163" y="2508" />
              <mxPoint x="194" y="2508" />
            </Array>
          </mxGeometry>
        </mxCell>
        <mxCell id="oiw9RieTrFUaGt8_zSmy-79" value="YES" style="edgeLabel;html=1;align=center;verticalAlign=middle;resizable=0;points=[];movable=0;rotatable=0;deletable=0;editable=0;locked=1;connectable=0;" vertex="1" connectable="0" parent="oiw9RieTrFUaGt8_zSmy-78">
          <mxGeometry x="-0.742" y="1" relative="1" as="geometry">
            <mxPoint as="offset" />
          </mxGeometry>
        </mxCell>
        <mxCell id="oiw9RieTrFUaGt8_zSmy-80" value="&lt;font style=&quot;font-size: 10px;&quot; color=&quot;#cce5ff&quot;&gt;&lt;b style=&quot;&quot;&gt;IF&lt;/b&gt;&lt;/font&gt;&lt;div&gt;&lt;b style=&quot;color: rgb(204, 229, 255); background-color: initial;&quot;&gt;&lt;font style=&quot;font-size: 10px;&quot;&gt;QUEUED&lt;/font&gt;&lt;/b&gt;&lt;/div&gt;" style="rhombus;whiteSpace=wrap;html=1;fillColor=#23445D;strokeColor=#23445D;rounded=1;strokeWidth=2;gradientColor=none;movable=0;resizable=0;rotatable=0;deletable=0;editable=0;locked=1;connectable=0;" vertex="1" parent="1">
          <mxGeometry x="122.67" y="2409" width="80" height="70" as="geometry" />
        </mxCell>
        <mxCell id="oiw9RieTrFUaGt8_zSmy-81" value="" style="edgeStyle=orthogonalEdgeStyle;rounded=0;orthogonalLoop=1;jettySize=auto;html=1;movable=0;resizable=0;rotatable=0;deletable=0;editable=0;locked=1;connectable=0;" edge="1" parent="1" source="oiw9RieTrFUaGt8_zSmy-82" target="oiw9RieTrFUaGt8_zSmy-290">
          <mxGeometry relative="1" as="geometry" />
        </mxCell>
        <mxCell id="oiw9RieTrFUaGt8_zSmy-82" value="&lt;font style=&quot;font-size: 10px;&quot;&gt;&lt;font color=&quot;#cce5ff&quot;&gt;&lt;b style=&quot;&quot;&gt;COMMIT REQUEST&amp;nbsp;&lt;/b&gt;&lt;/font&gt;&lt;/font&gt;&lt;div&gt;&lt;font style=&quot;font-size: 8px;&quot; color=&quot;#cce5ff&quot;&gt;&lt;b style=&quot;&quot;&gt;(EXAMINATIONS)&lt;/b&gt;&lt;/font&gt;&lt;/div&gt;" style="whiteSpace=wrap;html=1;fillColor=#23445D;strokeColor=#23445D;rounded=1;strokeWidth=2;gradientColor=none;movable=0;resizable=0;rotatable=0;deletable=0;editable=0;locked=1;connectable=0;" vertex="1" parent="1">
          <mxGeometry x="210" y="2320" width="113.67" height="35" as="geometry" />
        </mxCell>
        <mxCell id="oiw9RieTrFUaGt8_zSmy-83" value="" style="edgeStyle=orthogonalEdgeStyle;rounded=0;orthogonalLoop=1;jettySize=auto;html=1;movable=0;resizable=0;rotatable=0;deletable=0;editable=0;locked=1;connectable=0;" edge="1" parent="1" source="oiw9RieTrFUaGt8_zSmy-84" target="oiw9RieTrFUaGt8_zSmy-293">
          <mxGeometry relative="1" as="geometry" />
        </mxCell>
        <mxCell id="oiw9RieTrFUaGt8_zSmy-84" value="&lt;font style=&quot;font-size: 10px;&quot;&gt;&lt;b style=&quot;color: rgb(204, 229, 255);&quot;&gt;COMMIT&amp;nbsp;&lt;/b&gt;&lt;b style=&quot;color: rgb(204, 229, 255);&quot;&gt;REQUEST&lt;/b&gt;&lt;/font&gt;&lt;div&gt;&lt;font color=&quot;#cce5ff&quot;&gt;&lt;span style=&quot;font-size: 8px;&quot;&gt;&lt;b&gt;(LABORATORY)&lt;/b&gt;&lt;/span&gt;&lt;/font&gt;&lt;/div&gt;" style="whiteSpace=wrap;html=1;fillColor=#23445D;strokeColor=#23445D;rounded=1;strokeWidth=2;gradientColor=none;movable=0;resizable=0;rotatable=0;deletable=0;editable=0;locked=1;connectable=0;" vertex="1" parent="1">
          <mxGeometry x="213.67" y="2490" width="118" height="35" as="geometry" />
        </mxCell>
        <mxCell id="oiw9RieTrFUaGt8_zSmy-85" value="PHARMACY" style="strokeColor=#BAC8D3;fillColor=#23445D;fontSize=24;strokeWidth=2;horizontal=0;fontFamily=Helvetica;html=1;fontColor=#FFFFFF;fontStyle=0;movable=0;resizable=0;rotatable=0;deletable=0;editable=0;locked=1;connectable=0;" vertex="1" parent="1">
          <mxGeometry x="22.67" y="2581" width="86" height="200" as="geometry" />
        </mxCell>
        <mxCell id="oiw9RieTrFUaGt8_zSmy-86" style="edgeStyle=orthogonalEdgeStyle;rounded=0;orthogonalLoop=1;jettySize=auto;html=1;entryX=0;entryY=0.5;entryDx=0;entryDy=0;movable=0;resizable=0;rotatable=0;deletable=0;editable=0;locked=1;connectable=0;" edge="1" parent="1" source="oiw9RieTrFUaGt8_zSmy-88" target="oiw9RieTrFUaGt8_zSmy-90">
          <mxGeometry relative="1" as="geometry">
            <mxPoint x="167.9999999999999" y="2720" as="targetPoint" />
          </mxGeometry>
        </mxCell>
        <mxCell id="oiw9RieTrFUaGt8_zSmy-87" value="YES" style="edgeLabel;html=1;align=center;verticalAlign=middle;resizable=0;points=[];movable=0;rotatable=0;deletable=0;editable=0;locked=1;connectable=0;" vertex="1" connectable="0" parent="oiw9RieTrFUaGt8_zSmy-86">
          <mxGeometry x="-0.4877" relative="1" as="geometry">
            <mxPoint as="offset" />
          </mxGeometry>
        </mxCell>
        <mxCell id="oiw9RieTrFUaGt8_zSmy-88" value="&lt;font style=&quot;font-size: 10px;&quot; color=&quot;#cce5ff&quot;&gt;&lt;b style=&quot;&quot;&gt;IF&lt;/b&gt;&lt;/font&gt;&lt;div&gt;&lt;b style=&quot;color: rgb(204, 229, 255); background-color: initial;&quot;&gt;&lt;font style=&quot;font-size: 10px;&quot;&gt;QUEUED&lt;/font&gt;&lt;/b&gt;&lt;/div&gt;" style="rhombus;whiteSpace=wrap;html=1;fillColor=#23445D;strokeColor=#23445D;rounded=1;strokeWidth=2;gradientColor=none;movable=0;resizable=0;rotatable=0;deletable=0;editable=0;locked=1;connectable=0;" vertex="1" parent="1">
          <mxGeometry x="127.99999999999999" y="2610" width="80" height="70" as="geometry" />
        </mxCell>
        <mxCell id="oiw9RieTrFUaGt8_zSmy-89" value="" style="edgeStyle=orthogonalEdgeStyle;rounded=0;orthogonalLoop=1;jettySize=auto;html=1;movable=0;resizable=0;rotatable=0;deletable=0;editable=0;locked=1;connectable=0;" edge="1" parent="1" source="oiw9RieTrFUaGt8_zSmy-90" target="oiw9RieTrFUaGt8_zSmy-296">
          <mxGeometry relative="1" as="geometry" />
        </mxCell>
        <mxCell id="oiw9RieTrFUaGt8_zSmy-90" value="&lt;font style=&quot;font-size: 10px;&quot;&gt;&lt;b style=&quot;color: rgb(204, 229, 255);&quot;&gt;COMMIT&amp;nbsp;&lt;/b&gt;&lt;font color=&quot;#cce5ff&quot;&gt;&lt;b style=&quot;&quot;&gt;REQUEST&lt;/b&gt;&lt;/font&gt;&lt;/font&gt;&lt;div&gt;&lt;font color=&quot;#cce5ff&quot;&gt;&lt;span style=&quot;font-size: 8px;&quot;&gt;&lt;b&gt;(MEDS AND SUPPLIES)&lt;/b&gt;&lt;/span&gt;&lt;/font&gt;&lt;/div&gt;" style="whiteSpace=wrap;html=1;fillColor=#23445D;strokeColor=#23445D;rounded=1;strokeWidth=2;gradientColor=none;movable=0;resizable=0;rotatable=0;deletable=0;editable=0;locked=1;connectable=0;" vertex="1" parent="1">
          <mxGeometry x="208" y="2702.5" width="118" height="35" as="geometry" />
        </mxCell>
        <mxCell id="oiw9RieTrFUaGt8_zSmy-91" value="SOCIAL&lt;div&gt;WELFARE&lt;/div&gt;" style="strokeColor=#BAC8D3;fillColor=#23445D;fontSize=24;strokeWidth=2;horizontal=0;fontFamily=Helvetica;html=1;fontColor=#FFFFFF;fontStyle=0;movable=0;resizable=0;rotatable=0;deletable=0;editable=0;locked=1;connectable=0;" vertex="1" parent="1">
          <mxGeometry x="22.67" y="2781.5" width="86" height="200" as="geometry" />
        </mxCell>
        <mxCell id="oiw9RieTrFUaGt8_zSmy-92" value="" style="strokeColor=default;fillColor=#BAC8D3;fontSize=18;strokeWidth=2;fontFamily=Helvetica;html=1;opacity=60;movable=0;resizable=0;rotatable=0;deletable=0;editable=0;locked=1;connectable=0;" vertex="1" parent="1">
          <mxGeometry x="108.67" y="2781.5" width="1951.33" height="200.5" as="geometry" />
        </mxCell>
        <mxCell id="oiw9RieTrFUaGt8_zSmy-93" value="CASHIER" style="strokeColor=#BAC8D3;fillColor=#23445D;fontSize=24;strokeWidth=2;horizontal=0;fontFamily=Helvetica;html=1;fontColor=#FFFFFF;fontStyle=0;movable=0;resizable=0;rotatable=0;deletable=0;editable=0;locked=1;connectable=0;" vertex="1" parent="1">
          <mxGeometry x="22.67" y="2982" width="86" height="227" as="geometry" />
        </mxCell>
        <mxCell id="oiw9RieTrFUaGt8_zSmy-94" value="" style="strokeColor=default;fillColor=#BAC8D3;fontSize=18;strokeWidth=2;fontFamily=Helvetica;html=1;opacity=60;movable=0;resizable=0;rotatable=0;deletable=0;editable=0;locked=1;connectable=0;" vertex="1" parent="1">
          <mxGeometry x="108.67" y="2982" width="1951.33" height="227" as="geometry" />
        </mxCell>
        <mxCell id="oiw9RieTrFUaGt8_zSmy-95" style="edgeStyle=orthogonalEdgeStyle;rounded=0;orthogonalLoop=1;jettySize=auto;html=1;movable=0;resizable=0;rotatable=0;deletable=0;editable=0;locked=1;connectable=0;entryX=0;entryY=0.5;entryDx=0;entryDy=0;" edge="1" parent="1" source="oiw9RieTrFUaGt8_zSmy-99" target="oiw9RieTrFUaGt8_zSmy-263">
          <mxGeometry relative="1" as="geometry">
            <mxPoint x="244" y="3025" as="targetPoint" />
          </mxGeometry>
        </mxCell>
        <mxCell id="oiw9RieTrFUaGt8_zSmy-96" value="NO" style="edgeLabel;html=1;align=center;verticalAlign=middle;resizable=0;points=[];movable=0;rotatable=0;deletable=0;editable=0;locked=1;connectable=0;" connectable="0" vertex="1" parent="oiw9RieTrFUaGt8_zSmy-95">
          <mxGeometry x="-0.7174" y="-1" relative="1" as="geometry">
            <mxPoint x="7" y="-2" as="offset" />
          </mxGeometry>
        </mxCell>
        <mxCell id="oiw9RieTrFUaGt8_zSmy-97" style="edgeStyle=orthogonalEdgeStyle;rounded=0;orthogonalLoop=1;jettySize=auto;html=1;movable=0;resizable=0;rotatable=0;deletable=0;editable=0;locked=1;connectable=0;entryX=0;entryY=0.5;entryDx=0;entryDy=0;" edge="1" parent="1" source="oiw9RieTrFUaGt8_zSmy-99" target="oiw9RieTrFUaGt8_zSmy-313">
          <mxGeometry relative="1" as="geometry">
            <mxPoint x="224" y="3085" as="targetPoint" />
            <Array as="points">
              <mxPoint x="163" y="3085" />
            </Array>
          </mxGeometry>
        </mxCell>
        <mxCell id="oiw9RieTrFUaGt8_zSmy-98" value="YES" style="edgeLabel;html=1;align=center;verticalAlign=middle;resizable=0;points=[];movable=0;rotatable=0;deletable=0;editable=0;locked=1;connectable=0;" connectable="0" vertex="1" parent="oiw9RieTrFUaGt8_zSmy-97">
          <mxGeometry x="-0.6743" y="-1" relative="1" as="geometry">
            <mxPoint y="-3" as="offset" />
          </mxGeometry>
        </mxCell>
        <mxCell id="oiw9RieTrFUaGt8_zSmy-99" value="&lt;font style=&quot;font-size: 10px;&quot; color=&quot;#cce5ff&quot;&gt;&lt;b style=&quot;&quot;&gt;IF&lt;/b&gt;&lt;/font&gt;&lt;div&gt;&lt;b style=&quot;color: rgb(204, 229, 255); background-color: initial;&quot;&gt;&lt;font style=&quot;font-size: 10px;&quot;&gt;QUEUED&lt;/font&gt;&lt;/b&gt;&lt;/div&gt;" style="rhombus;whiteSpace=wrap;html=1;fillColor=#23445D;strokeColor=#23445D;rounded=1;strokeWidth=2;gradientColor=none;movable=0;resizable=0;rotatable=0;deletable=0;editable=0;locked=1;connectable=0;" vertex="1" parent="1">
          <mxGeometry x="122.67" y="2990" width="80" height="70" as="geometry" />
        </mxCell>
        <mxCell id="oiw9RieTrFUaGt8_zSmy-100" style="edgeStyle=orthogonalEdgeStyle;rounded=0;orthogonalLoop=1;jettySize=auto;html=1;entryX=0;entryY=0.5;entryDx=0;entryDy=0;entryPerimeter=0;movable=0;resizable=0;rotatable=0;deletable=0;editable=0;locked=1;connectable=0;" edge="1" parent="1" source="oiw9RieTrFUaGt8_zSmy-101" target="oiw9RieTrFUaGt8_zSmy-102">
          <mxGeometry relative="1" as="geometry">
            <mxPoint x="292.18" y="3208" as="targetPoint" />
          </mxGeometry>
        </mxCell>
        <mxCell id="oiw9RieTrFUaGt8_zSmy-101" value="&lt;div&gt;&lt;font color=&quot;#cce5ff&quot;&gt;&lt;span style=&quot;font-size: 10px;&quot;&gt;&lt;b&gt;ENCODE&amp;nbsp;&lt;/b&gt;&lt;/span&gt;&lt;/font&gt;&lt;/div&gt;&lt;div&gt;&lt;font color=&quot;#cce5ff&quot;&gt;&lt;span style=&quot;font-size: 10px;&quot;&gt;&lt;b&gt;PAYMENT&lt;/b&gt;&lt;/span&gt;&lt;/font&gt;&lt;/div&gt;" style="whiteSpace=wrap;html=1;fillColor=#23445D;strokeColor=#23445D;rounded=1;strokeWidth=2;gradientColor=none;movable=0;resizable=0;rotatable=0;deletable=0;editable=0;locked=1;connectable=0;" vertex="1" parent="1">
          <mxGeometry x="222.34" y="3162.5" width="98.67" height="35" as="geometry" />
        </mxCell>
        <mxCell id="oiw9RieTrFUaGt8_zSmy-102" value="&lt;font color=&quot;#cce5ff&quot;&gt;&lt;span style=&quot;font-size: 10px;&quot;&gt;&lt;b&gt;END&lt;/b&gt;&lt;/span&gt;&lt;/font&gt;" style="strokeWidth=2;html=1;shape=mxgraph.flowchart.terminator;whiteSpace=wrap;fillColor=#23445D;strokeColor=#23445D;movable=0;resizable=0;rotatable=0;deletable=0;editable=0;locked=1;connectable=0;" vertex="1" parent="1">
          <mxGeometry x="367.99999999999994" y="3160" width="80" height="40" as="geometry" />
        </mxCell>
        <mxCell id="oiw9RieTrFUaGt8_zSmy-103" style="edgeStyle=orthogonalEdgeStyle;rounded=0;orthogonalLoop=1;jettySize=auto;html=1;entryX=0.5;entryY=0;entryDx=0;entryDy=0;movable=0;resizable=0;rotatable=0;deletable=0;editable=0;locked=1;connectable=0;exitX=0;exitY=0.5;exitDx=0;exitDy=0;" edge="1" parent="1" source="oiw9RieTrFUaGt8_zSmy-131" target="oiw9RieTrFUaGt8_zSmy-136">
          <mxGeometry relative="1" as="geometry">
            <mxPoint x="830" y="1740" as="targetPoint" />
            <mxPoint x="870" y="1700" as="sourcePoint" />
            <Array as="points">
              <mxPoint x="831" y="1733" />
            </Array>
          </mxGeometry>
        </mxCell>
        <mxCell id="oiw9RieTrFUaGt8_zSmy-104" value="" style="edgeStyle=orthogonalEdgeStyle;rounded=0;orthogonalLoop=1;jettySize=auto;html=1;movable=0;resizable=0;rotatable=0;deletable=0;editable=0;locked=1;connectable=0;" edge="1" parent="1" source="oiw9RieTrFUaGt8_zSmy-105" target="oiw9RieTrFUaGt8_zSmy-187">
          <mxGeometry relative="1" as="geometry" />
        </mxCell>
        <mxCell id="oiw9RieTrFUaGt8_zSmy-105" value="&lt;font color=&quot;#cce5ff&quot; style=&quot;font-size: 10px;&quot;&gt;&lt;b&gt;ENCODE ER | MEDICOLEGAL LOGBOOK&lt;/b&gt;&lt;/font&gt;&lt;div&gt;&lt;font color=&quot;#cce5ff&quot; style=&quot;font-size: 10px;&quot;&gt;&lt;b&gt;(CHIEF COMPLAIN, VITAL SIGN &amp;amp; ETC.)&lt;/b&gt;&lt;/font&gt;&lt;/div&gt;" style="whiteSpace=wrap;html=1;fillColor=#23445D;strokeColor=#23445D;rounded=1;strokeWidth=2;gradientColor=none;movable=0;resizable=0;rotatable=0;deletable=0;editable=0;locked=1;connectable=0;" vertex="1" parent="1">
          <mxGeometry x="931.25" y="1503.62" width="159.5" height="70.25" as="geometry" />
        </mxCell>
        <mxCell id="oiw9RieTrFUaGt8_zSmy-106" value="" style="edgeStyle=orthogonalEdgeStyle;rounded=0;orthogonalLoop=1;jettySize=auto;html=1;exitX=0;exitY=0.5;exitDx=0;exitDy=0;movable=0;resizable=0;rotatable=0;deletable=0;editable=0;locked=1;connectable=0;" edge="1" parent="1" source="oiw9RieTrFUaGt8_zSmy-110" target="oiw9RieTrFUaGt8_zSmy-30">
          <mxGeometry relative="1" as="geometry" />
        </mxCell>
        <mxCell id="oiw9RieTrFUaGt8_zSmy-107" value="NO" style="edgeLabel;html=1;align=center;verticalAlign=middle;resizable=0;points=[];movable=0;rotatable=0;deletable=0;editable=0;locked=1;connectable=0;" vertex="1" connectable="0" parent="oiw9RieTrFUaGt8_zSmy-106">
          <mxGeometry x="-0.5886" y="-1" relative="1" as="geometry">
            <mxPoint as="offset" />
          </mxGeometry>
        </mxCell>
        <mxCell id="oiw9RieTrFUaGt8_zSmy-108" style="edgeStyle=orthogonalEdgeStyle;rounded=0;orthogonalLoop=1;jettySize=auto;html=1;entryX=0;entryY=0.5;entryDx=0;entryDy=0;movable=0;resizable=0;rotatable=0;deletable=0;editable=0;locked=1;connectable=0;" edge="1" parent="1" source="oiw9RieTrFUaGt8_zSmy-110" target="oiw9RieTrFUaGt8_zSmy-126">
          <mxGeometry relative="1" as="geometry">
            <Array as="points">
              <mxPoint x="296" y="1166" />
              <mxPoint x="296" y="1189" />
            </Array>
          </mxGeometry>
        </mxCell>
        <mxCell id="oiw9RieTrFUaGt8_zSmy-109" value="YES" style="edgeLabel;html=1;align=center;verticalAlign=middle;resizable=0;points=[];movable=0;rotatable=0;deletable=0;editable=0;locked=1;connectable=0;" connectable="0" vertex="1" parent="oiw9RieTrFUaGt8_zSmy-108">
          <mxGeometry x="-0.7565" y="2" relative="1" as="geometry">
            <mxPoint as="offset" />
          </mxGeometry>
        </mxCell>
        <mxCell id="oiw9RieTrFUaGt8_zSmy-110" value="&lt;div&gt;&lt;font color=&quot;#cce5ff&quot;&gt;&lt;span style=&quot;font-size: 10px;&quot;&gt;&lt;b&gt;IF&lt;/b&gt;&lt;/span&gt;&lt;/font&gt;&lt;/div&gt;&lt;font color=&quot;#cce5ff&quot;&gt;&lt;span style=&quot;font-size: 10px;&quot;&gt;&lt;b&gt;REFER&lt;/b&gt;&lt;/span&gt;&lt;/font&gt;&lt;div&gt;&lt;font color=&quot;#cce5ff&quot;&gt;&lt;span style=&quot;font-size: 10px;&quot;&gt;&lt;b&gt;TO ER&lt;/b&gt;&lt;/span&gt;&lt;/font&gt;&lt;/div&gt;&lt;div&gt;&lt;b style=&quot;background-color: initial; font-size: 10px; color: rgb(204, 229, 255);&quot;&gt;?&lt;/b&gt;&lt;/div&gt;" style="rhombus;whiteSpace=wrap;html=1;fillColor=#23445D;strokeColor=#23445D;rounded=1;strokeWidth=2;gradientColor=none;movable=0;resizable=0;rotatable=0;deletable=0;editable=0;locked=1;connectable=0;" vertex="1" parent="1">
          <mxGeometry x="245.5" y="1056" width="100" height="90" as="geometry" />
        </mxCell>
        <mxCell id="oiw9RieTrFUaGt8_zSmy-111" style="edgeStyle=orthogonalEdgeStyle;rounded=0;orthogonalLoop=1;jettySize=auto;html=1;exitX=0.5;exitY=1;exitDx=0;exitDy=0;movable=0;resizable=0;rotatable=0;deletable=0;editable=0;locked=1;connectable=0;" edge="1" parent="1" source="oiw9RieTrFUaGt8_zSmy-19" target="oiw9RieTrFUaGt8_zSmy-19">
          <mxGeometry relative="1" as="geometry" />
        </mxCell>
        <mxCell id="oiw9RieTrFUaGt8_zSmy-112" value="" style="edgeStyle=orthogonalEdgeStyle;rounded=0;orthogonalLoop=1;jettySize=auto;html=1;movable=0;resizable=0;rotatable=0;deletable=0;editable=0;locked=1;connectable=0;" edge="1" parent="1" source="oiw9RieTrFUaGt8_zSmy-113" target="oiw9RieTrFUaGt8_zSmy-110">
          <mxGeometry relative="1" as="geometry" />
        </mxCell>
        <mxCell id="oiw9RieTrFUaGt8_zSmy-113" value="&lt;font color=&quot;#cce5ff&quot; style=&quot;font-size: 10px;&quot;&gt;&lt;b&gt;VALIDATE PATIENT&amp;nbsp;&lt;/b&gt;&lt;/font&gt;&lt;b style=&quot;font-size: 10px; color: rgb(204, 229, 255); background-color: initial;&quot;&gt;INFO&amp;nbsp;&lt;/b&gt;&lt;div&gt;&lt;div&gt;&lt;font color=&quot;#cce5ff&quot;&gt;&lt;span style=&quot;font-size: 10px;&quot;&gt;&lt;b&gt;(Basic Patient Info&amp;nbsp; &amp;amp; Vital Sign)&lt;/b&gt;&lt;/span&gt;&lt;/font&gt;&lt;/div&gt;&lt;/div&gt;" style="whiteSpace=wrap;html=1;fillColor=#23445D;strokeColor=#23445D;rounded=1;strokeWidth=2;gradientColor=none;movable=0;resizable=0;rotatable=0;deletable=0;editable=0;locked=1;connectable=0;" vertex="1" parent="1">
          <mxGeometry x="377.25" y="1083.5" width="165.5" height="35" as="geometry" />
        </mxCell>
        <mxCell id="oiw9RieTrFUaGt8_zSmy-114" value="" style="edgeStyle=orthogonalEdgeStyle;rounded=0;orthogonalLoop=1;jettySize=auto;html=1;movable=0;resizable=0;rotatable=0;deletable=0;editable=0;locked=1;connectable=0;" edge="1" parent="1" source="oiw9RieTrFUaGt8_zSmy-116" target="oiw9RieTrFUaGt8_zSmy-105">
          <mxGeometry relative="1" as="geometry" />
        </mxCell>
        <mxCell id="oiw9RieTrFUaGt8_zSmy-115" value="YES" style="edgeLabel;html=1;align=center;verticalAlign=middle;resizable=0;points=[];movable=0;rotatable=0;deletable=0;editable=0;locked=1;connectable=0;" vertex="1" connectable="0" parent="oiw9RieTrFUaGt8_zSmy-114">
          <mxGeometry x="-0.5" relative="1" as="geometry">
            <mxPoint x="2" as="offset" />
          </mxGeometry>
        </mxCell>
        <mxCell id="oiw9RieTrFUaGt8_zSmy-116" value="&lt;font color=&quot;#cce5ff&quot;&gt;&lt;span style=&quot;font-size: 10px;&quot;&gt;&lt;b&gt;IF&lt;/b&gt;&lt;/span&gt;&lt;/font&gt;&lt;br&gt;&lt;div&gt;&lt;b style=&quot;color: rgb(204, 229, 255); background-color: initial;&quot;&gt;&lt;font style=&quot;font-size: 10px;&quot;&gt;QUEUED&lt;/font&gt;&lt;/b&gt;&lt;/div&gt;&lt;div&gt;&lt;font color=&quot;#cce5ff&quot;&gt;&lt;span style=&quot;font-size: 10px;&quot;&gt;&lt;b&gt;?&lt;/b&gt;&lt;/span&gt;&lt;/font&gt;&lt;/div&gt;" style="rhombus;whiteSpace=wrap;html=1;fillColor=#23445D;strokeColor=#23445D;rounded=1;strokeWidth=2;gradientColor=none;movable=0;resizable=0;rotatable=0;deletable=0;editable=0;locked=1;connectable=0;" vertex="1" parent="1">
          <mxGeometry x="780" y="1492" width="100" height="90" as="geometry" />
        </mxCell>
        <mxCell id="oiw9RieTrFUaGt8_zSmy-117" value="" style="edgeStyle=orthogonalEdgeStyle;rounded=0;orthogonalLoop=1;jettySize=auto;html=1;movable=0;resizable=0;rotatable=0;deletable=0;editable=0;locked=1;connectable=0;exitX=0.5;exitY=1;exitDx=0;exitDy=0;" edge="1" parent="1" source="oiw9RieTrFUaGt8_zSmy-116">
          <mxGeometry relative="1" as="geometry">
            <mxPoint x="830" y="1620" as="sourcePoint" />
            <mxPoint x="1110" y="1310" as="targetPoint" />
            <Array as="points">
              <mxPoint x="830" y="1630" />
              <mxPoint x="770" y="1630" />
              <mxPoint x="770" y="1440" />
            </Array>
          </mxGeometry>
        </mxCell>
        <mxCell id="oiw9RieTrFUaGt8_zSmy-118" value="NO" style="edgeLabel;html=1;align=center;verticalAlign=middle;resizable=0;points=[];movable=0;rotatable=0;deletable=0;editable=0;locked=1;connectable=0;" vertex="1" connectable="0" parent="oiw9RieTrFUaGt8_zSmy-117">
          <mxGeometry x="0.1348" y="-1" relative="1" as="geometry">
            <mxPoint x="-77" y="154" as="offset" />
          </mxGeometry>
        </mxCell>
        <mxCell id="oiw9RieTrFUaGt8_zSmy-119" style="edgeStyle=orthogonalEdgeStyle;rounded=0;orthogonalLoop=1;jettySize=auto;html=1;entryX=0;entryY=0.5;entryDx=0;entryDy=0;movable=0;resizable=0;rotatable=0;deletable=0;editable=0;locked=1;connectable=0;" edge="1" parent="1" source="oiw9RieTrFUaGt8_zSmy-120" target="oiw9RieTrFUaGt8_zSmy-129">
          <mxGeometry relative="1" as="geometry" />
        </mxCell>
        <mxCell id="oiw9RieTrFUaGt8_zSmy-120" value="&lt;font color=&quot;#cce5ff&quot;&gt;&lt;span style=&quot;font-size: 10px;&quot;&gt;&lt;b&gt;REFERAL VERIFICATION&lt;/b&gt;&lt;/span&gt;&lt;/font&gt;&lt;div&gt;&lt;font color=&quot;#cce5ff&quot;&gt;&lt;span style=&quot;font-size: 10px;&quot;&gt;&lt;b&gt;(THRU E-REFEREAL)&lt;/b&gt;&lt;/span&gt;&lt;/font&gt;&lt;/div&gt;" style="whiteSpace=wrap;html=1;fillColor=#23445D;strokeColor=#23445D;rounded=1;strokeWidth=2;gradientColor=none;movable=0;resizable=0;rotatable=0;deletable=0;editable=0;locked=1;connectable=0;" vertex="1" parent="1">
          <mxGeometry x="770.5" y="1275" width="120" height="60" as="geometry" />
        </mxCell>
        <mxCell id="oiw9RieTrFUaGt8_zSmy-121" value="&lt;b&gt;CLERK&lt;/b&gt;" style="fontSize=24;strokeWidth=2;horizontal=0;fontFamily=Helvetica;html=1;fontStyle=0;movable=0;resizable=0;rotatable=0;deletable=0;editable=0;locked=1;connectable=0;fillColor=#d5dde4;strokeColor=#23445d;fontColor=#23445d;" vertex="1" parent="1">
          <mxGeometry x="70" y="1250" width="38" height="210" as="geometry" />
        </mxCell>
        <mxCell id="oiw9RieTrFUaGt8_zSmy-122" value="&lt;font color=&quot;#cce5ff&quot; style=&quot;font-size: 10px;&quot;&gt;&lt;b style=&quot;&quot;&gt;&lt;font style=&quot;&quot;&gt;GERERATE&amp;nbsp;&lt;/font&gt;&lt;/b&gt;&lt;/font&gt;&lt;div&gt;&lt;font color=&quot;#cce5ff&quot; style=&quot;font-size: 10px;&quot;&gt;&lt;b style=&quot;&quot;&gt;&lt;span style=&quot;background-color: initial;&quot;&gt;Queuing&amp;nbsp;&lt;/span&gt;&lt;span style=&quot;background-color: initial;&quot;&gt;Information | #&lt;/span&gt;&lt;/b&gt;&lt;/font&gt;&lt;/div&gt;" style="whiteSpace=wrap;html=1;fillColor=#23445D;strokeColor=#23445D;rounded=1;strokeWidth=2;gradientColor=none;movable=0;resizable=0;rotatable=0;deletable=0;editable=0;locked=1;connectable=0;" vertex="1" parent="1">
          <mxGeometry x="1143.5" y="1282.25" width="135" height="45.5" as="geometry" />
        </mxCell>
        <mxCell id="oiw9RieTrFUaGt8_zSmy-123" value="&lt;b&gt;STATION&lt;/b&gt;" style="fontSize=24;strokeWidth=2;horizontal=0;fontFamily=Helvetica;html=1;fontStyle=0;movable=0;resizable=0;rotatable=0;deletable=0;editable=0;locked=1;connectable=0;fillColor=#d5dde4;strokeColor=default;fontColor=#23445d;" vertex="1" parent="1">
          <mxGeometry x="70" y="1460" width="38" height="470" as="geometry" />
        </mxCell>
        <mxCell id="oiw9RieTrFUaGt8_zSmy-124" value="" style="edgeStyle=orthogonalEdgeStyle;rounded=0;orthogonalLoop=1;jettySize=auto;html=1;movable=0;resizable=0;rotatable=0;deletable=0;editable=0;locked=1;connectable=0;" edge="1" parent="1" source="oiw9RieTrFUaGt8_zSmy-125" target="oiw9RieTrFUaGt8_zSmy-287">
          <mxGeometry relative="1" as="geometry" />
        </mxCell>
        <mxCell id="oiw9RieTrFUaGt8_zSmy-125" value="&lt;b&gt;INPATIENT&lt;/b&gt;" style="shape=process;whiteSpace=wrap;html=1;backgroundOutline=1;glass=0;rounded=1;strokeColor=#c0cdd7;fillColor=#23445d;gradientColor=none;fontColor=#cce5ff;movable=0;resizable=0;rotatable=0;deletable=0;editable=0;locked=1;connectable=0;" vertex="1" parent="1">
          <mxGeometry x="624" y="1601.31" width="100" height="35" as="geometry" />
        </mxCell>
        <mxCell id="oiw9RieTrFUaGt8_zSmy-126" value="&lt;b&gt;ER&lt;/b&gt;" style="shape=process;whiteSpace=wrap;html=1;backgroundOutline=1;glass=0;rounded=1;strokeColor=#c0cdd7;fillColor=#23445d;gradientColor=none;fontColor=#cce5ff;movable=0;resizable=0;rotatable=0;deletable=0;editable=0;locked=1;connectable=0;" vertex="1" parent="1">
          <mxGeometry x="377.25" y="1172" width="100" height="35" as="geometry" />
        </mxCell>
        <mxCell id="oiw9RieTrFUaGt8_zSmy-127" value="&lt;b&gt;ER&lt;/b&gt;" style="shape=process;whiteSpace=wrap;html=1;backgroundOutline=1;glass=0;rounded=1;strokeColor=#c0cdd7;fillColor=#23445d;gradientColor=none;fontColor=#cce5ff;movable=0;resizable=0;rotatable=0;deletable=0;editable=0;locked=1;connectable=0;" vertex="1" parent="1">
          <mxGeometry x="650" y="1349" width="100" height="35" as="geometry" />
        </mxCell>
        <mxCell id="oiw9RieTrFUaGt8_zSmy-128" value="" style="edgeStyle=orthogonalEdgeStyle;rounded=0;orthogonalLoop=1;jettySize=auto;html=1;movable=0;resizable=0;rotatable=0;deletable=0;editable=0;locked=1;connectable=0;" edge="1" parent="1" source="oiw9RieTrFUaGt8_zSmy-129" target="oiw9RieTrFUaGt8_zSmy-122">
          <mxGeometry relative="1" as="geometry" />
        </mxCell>
        <mxCell id="oiw9RieTrFUaGt8_zSmy-129" value="&lt;font color=&quot;#cce5ff&quot;&gt;&lt;span style=&quot;font-size: 10px;&quot;&gt;&lt;b&gt;IMPORT DATA /&amp;nbsp;&lt;/b&gt;&lt;/span&gt;&lt;/font&gt;&lt;div&gt;&lt;font color=&quot;#cce5ff&quot;&gt;&lt;span style=&quot;font-size: 10px;&quot;&gt;&lt;b&gt;ENCODE DATA&lt;/b&gt;&lt;/span&gt;&lt;/font&gt;&lt;/div&gt;&lt;div&gt;&lt;font color=&quot;#cce5ff&quot;&gt;&lt;span style=&quot;font-size: 10px;&quot;&gt;&lt;b&gt;(FROM E-REFERAL)&lt;/b&gt;&lt;/span&gt;&lt;/font&gt;&lt;/div&gt;" style="whiteSpace=wrap;html=1;fillColor=#23445D;strokeColor=#23445D;rounded=1;strokeWidth=2;gradientColor=none;movable=0;resizable=0;rotatable=0;deletable=0;editable=0;locked=1;connectable=0;" vertex="1" parent="1">
          <mxGeometry x="951" y="1275" width="120" height="60" as="geometry" />
        </mxCell>
        <mxCell id="oiw9RieTrFUaGt8_zSmy-130" style="edgeStyle=orthogonalEdgeStyle;rounded=0;orthogonalLoop=1;jettySize=auto;html=1;entryX=0.5;entryY=0;entryDx=0;entryDy=0;movable=0;resizable=0;rotatable=0;deletable=0;editable=0;locked=1;connectable=0;" edge="1" parent="1" source="oiw9RieTrFUaGt8_zSmy-122" target="oiw9RieTrFUaGt8_zSmy-116">
          <mxGeometry relative="1" as="geometry">
            <Array as="points">
              <mxPoint x="1200" y="1470" />
              <mxPoint x="830" y="1470" />
            </Array>
          </mxGeometry>
        </mxCell>
        <mxCell id="oiw9RieTrFUaGt8_zSmy-131" value="&lt;font color=&quot;#cce5ff&quot; style=&quot;font-size: 10px;&quot;&gt;&lt;b style=&quot;&quot;&gt;&lt;font style=&quot;&quot;&gt;GERERATE&amp;nbsp;&lt;/font&gt;&lt;/b&gt;&lt;/font&gt;&lt;div&gt;&lt;font color=&quot;#cce5ff&quot; style=&quot;font-size: 10px;&quot;&gt;&lt;b style=&quot;&quot;&gt;&lt;span style=&quot;background-color: initial;&quot;&gt;Queuing&amp;nbsp;&lt;/span&gt;&lt;span style=&quot;background-color: initial;&quot;&gt;Information | #&lt;/span&gt;&lt;/b&gt;&lt;/font&gt;&lt;/div&gt;" style="whiteSpace=wrap;html=1;fillColor=#23445D;strokeColor=#23445D;rounded=1;strokeWidth=2;gradientColor=none;movable=0;resizable=0;rotatable=0;deletable=0;editable=0;locked=1;connectable=0;" vertex="1" parent="1">
          <mxGeometry x="914" y="1710.31" width="135" height="45.5" as="geometry" />
        </mxCell>
        <mxCell id="oiw9RieTrFUaGt8_zSmy-132" style="edgeStyle=orthogonalEdgeStyle;rounded=0;orthogonalLoop=1;jettySize=auto;html=1;movable=0;resizable=0;rotatable=0;deletable=0;editable=0;locked=1;connectable=0;" edge="1" parent="1" source="oiw9RieTrFUaGt8_zSmy-136">
          <mxGeometry relative="1" as="geometry">
            <mxPoint x="830" y="1940" as="targetPoint" />
            <Array as="points">
              <mxPoint x="902" y="1990" />
            </Array>
          </mxGeometry>
        </mxCell>
        <mxCell id="oiw9RieTrFUaGt8_zSmy-133" value="NO" style="edgeLabel;html=1;align=center;verticalAlign=middle;resizable=0;points=[];movable=0;rotatable=0;deletable=0;editable=0;locked=1;connectable=0;" connectable="0" vertex="1" parent="oiw9RieTrFUaGt8_zSmy-132">
          <mxGeometry x="-0.6771" y="1" relative="1" as="geometry">
            <mxPoint x="-1" y="1" as="offset" />
          </mxGeometry>
        </mxCell>
        <mxCell id="oiw9RieTrFUaGt8_zSmy-134" style="edgeStyle=orthogonalEdgeStyle;rounded=0;orthogonalLoop=1;jettySize=auto;html=1;movable=0;resizable=0;rotatable=0;deletable=0;editable=0;locked=1;connectable=0;entryX=0.5;entryY=0;entryDx=0;entryDy=0;" edge="1" parent="1" source="oiw9RieTrFUaGt8_zSmy-136" target="oiw9RieTrFUaGt8_zSmy-138">
          <mxGeometry relative="1" as="geometry">
            <mxPoint x="830" y="2067" as="targetPoint" />
          </mxGeometry>
        </mxCell>
        <mxCell id="oiw9RieTrFUaGt8_zSmy-135" value="YES" style="edgeLabel;html=1;align=center;verticalAlign=middle;resizable=0;points=[];movable=0;rotatable=0;deletable=0;editable=0;locked=1;connectable=0;" connectable="0" vertex="1" parent="oiw9RieTrFUaGt8_zSmy-134">
          <mxGeometry x="-0.3513" relative="1" as="geometry">
            <mxPoint as="offset" />
          </mxGeometry>
        </mxCell>
        <mxCell id="oiw9RieTrFUaGt8_zSmy-136" value="&lt;font style=&quot;font-size: 10px;&quot; color=&quot;#cce5ff&quot;&gt;&lt;b style=&quot;&quot;&gt;IF&lt;/b&gt;&lt;/font&gt;&lt;div&gt;&lt;b style=&quot;color: rgb(204, 229, 255); background-color: initial;&quot;&gt;&lt;font style=&quot;font-size: 10px;&quot;&gt;QUEUED&lt;/font&gt;&lt;/b&gt;&lt;/div&gt;&lt;div&gt;&lt;b style=&quot;color: rgb(204, 229, 255); background-color: initial;&quot;&gt;&lt;font style=&quot;font-size: 10px;&quot;&gt;?&lt;/font&gt;&lt;/b&gt;&lt;/div&gt;" style="rhombus;whiteSpace=wrap;html=1;fillColor=#23445D;strokeColor=#23445D;rounded=1;strokeWidth=2;gradientColor=none;movable=0;resizable=0;rotatable=0;deletable=0;editable=0;locked=1;connectable=0;" vertex="1" parent="1">
          <mxGeometry x="790.5" y="1960" width="80" height="70" as="geometry" />
        </mxCell>
        <mxCell id="oiw9RieTrFUaGt8_zSmy-137" style="edgeStyle=orthogonalEdgeStyle;rounded=0;orthogonalLoop=1;jettySize=auto;html=1;movable=0;resizable=0;rotatable=0;deletable=0;editable=0;locked=1;connectable=0;entryX=0;entryY=0.5;entryDx=0;entryDy=0;exitX=1;exitY=0.5;exitDx=0;exitDy=0;" edge="1" parent="1" source="oiw9RieTrFUaGt8_zSmy-138" target="oiw9RieTrFUaGt8_zSmy-144">
          <mxGeometry relative="1" as="geometry">
            <mxPoint x="940" y="2140" as="targetPoint" />
            <Array as="points">
              <mxPoint x="920" y="2085" />
              <mxPoint x="920" y="1975" />
            </Array>
          </mxGeometry>
        </mxCell>
        <mxCell id="oiw9RieTrFUaGt8_zSmy-138" value="&lt;font style=&quot;font-size: 10px;&quot;&gt;&lt;font color=&quot;#cce5ff&quot;&gt;&lt;b style=&quot;&quot;&gt;ENCODE&lt;/b&gt;&lt;/font&gt;&lt;/font&gt;&lt;div&gt;&lt;font style=&quot;font-size: 10px;&quot;&gt;&lt;b style=&quot;color: rgb(204, 229, 255); background-color: initial;&quot;&gt;Diagnoses, RX and Examination Request&lt;/b&gt;&lt;/font&gt;&lt;/div&gt;" style="whiteSpace=wrap;html=1;fillColor=#23445D;strokeColor=#23445D;rounded=1;strokeWidth=2;gradientColor=none;movable=0;resizable=0;rotatable=0;deletable=0;editable=0;locked=1;connectable=0;" vertex="1" parent="1">
          <mxGeometry x="772.25" y="2060" width="115.5" height="49.25" as="geometry" />
        </mxCell>
        <mxCell id="oiw9RieTrFUaGt8_zSmy-139" value="" style="edgeStyle=orthogonalEdgeStyle;rounded=0;orthogonalLoop=1;jettySize=auto;html=1;movable=0;resizable=0;rotatable=0;deletable=0;editable=0;locked=1;connectable=0;entryX=0.057;entryY=0.507;entryDx=0;entryDy=0;entryPerimeter=0;" edge="1" parent="1" source="oiw9RieTrFUaGt8_zSmy-144" target="oiw9RieTrFUaGt8_zSmy-217">
          <mxGeometry relative="1" as="geometry">
            <mxPoint x="1200" y="1975" as="targetPoint" />
          </mxGeometry>
        </mxCell>
        <mxCell id="oiw9RieTrFUaGt8_zSmy-140" value="YES" style="edgeLabel;html=1;align=center;verticalAlign=middle;resizable=0;points=[];movable=0;rotatable=0;deletable=0;editable=0;locked=1;connectable=0;" connectable="0" vertex="1" parent="oiw9RieTrFUaGt8_zSmy-139">
          <mxGeometry x="-0.275" y="2" relative="1" as="geometry">
            <mxPoint x="-4" y="2" as="offset" />
          </mxGeometry>
        </mxCell>
        <mxCell id="oiw9RieTrFUaGt8_zSmy-141" value="" style="edgeStyle=orthogonalEdgeStyle;rounded=0;orthogonalLoop=1;jettySize=auto;html=1;fontFamily=Helvetica;fontSize=18;fontColor=#ffffff;movable=0;resizable=0;rotatable=0;deletable=0;editable=0;locked=1;connectable=0;" edge="1" parent="1" source="oiw9RieTrFUaGt8_zSmy-144" target="oiw9RieTrFUaGt8_zSmy-146">
          <mxGeometry relative="1" as="geometry" />
        </mxCell>
        <mxCell id="oiw9RieTrFUaGt8_zSmy-142" value="" style="edgeStyle=orthogonalEdgeStyle;rounded=0;orthogonalLoop=1;jettySize=auto;html=1;fontFamily=Helvetica;fontSize=18;fontColor=#ffffff;movable=0;resizable=0;rotatable=0;deletable=0;editable=0;locked=1;connectable=0;" edge="1" parent="1" source="oiw9RieTrFUaGt8_zSmy-144" target="oiw9RieTrFUaGt8_zSmy-146">
          <mxGeometry relative="1" as="geometry" />
        </mxCell>
        <mxCell id="oiw9RieTrFUaGt8_zSmy-143" value="" style="edgeStyle=orthogonalEdgeStyle;rounded=0;orthogonalLoop=1;jettySize=auto;html=1;fontFamily=Helvetica;fontSize=18;fontColor=#ffffff;movable=0;resizable=0;rotatable=0;deletable=0;editable=0;locked=1;connectable=0;" edge="1" parent="1" source="oiw9RieTrFUaGt8_zSmy-144" target="oiw9RieTrFUaGt8_zSmy-146">
          <mxGeometry relative="1" as="geometry" />
        </mxCell>
        <mxCell id="oiw9RieTrFUaGt8_zSmy-144" value="&lt;div&gt;&lt;font color=&quot;#cce5ff&quot;&gt;&lt;span style=&quot;font-size: 10px;&quot;&gt;&lt;b&gt;REFER&lt;/b&gt;&lt;/span&gt;&lt;/font&gt;&lt;/div&gt;&lt;div&gt;&lt;font color=&quot;#cce5ff&quot;&gt;&lt;span style=&quot;font-size: 10px;&quot;&gt;&lt;b&gt;TO&lt;/b&gt;&lt;/span&gt;&lt;/font&gt;&lt;/div&gt;&lt;div&gt;&lt;font color=&quot;#cce5ff&quot;&gt;&lt;span style=&quot;font-size: 10px;&quot;&gt;&lt;b&gt;IPD&lt;/b&gt;&lt;/span&gt;&lt;/font&gt;&lt;/div&gt;" style="rhombus;whiteSpace=wrap;html=1;fillColor=#23445D;strokeColor=#23445D;rounded=1;strokeWidth=2;gradientColor=none;movable=0;resizable=0;rotatable=0;deletable=0;editable=0;locked=1;connectable=0;" vertex="1" parent="1">
          <mxGeometry x="1023" y="1939.75" width="80" height="70" as="geometry" />
        </mxCell>
        <mxCell id="oiw9RieTrFUaGt8_zSmy-145" value="" style="edgeStyle=orthogonalEdgeStyle;rounded=0;orthogonalLoop=1;jettySize=auto;html=1;movable=0;resizable=0;rotatable=0;deletable=0;editable=0;locked=1;connectable=0;" edge="1" parent="1" source="oiw9RieTrFUaGt8_zSmy-146" target="oiw9RieTrFUaGt8_zSmy-320">
          <mxGeometry relative="1" as="geometry" />
        </mxCell>
        <mxCell id="oiw9RieTrFUaGt8_zSmy-146" value="&lt;font color=&quot;#cce5ff&quot; style=&quot;font-size: 10px;&quot;&gt;&lt;b&gt;PRINT&amp;nbsp;&lt;/b&gt;&lt;/font&gt;&lt;b style=&quot;font-size: 10px; color: rgb(204, 229, 255); background-color: initial;&quot;&gt;DIAGNOSE RESULT&amp;nbsp; AND REQUEST&lt;/b&gt;&lt;div&gt;&lt;div&gt;&lt;font style=&quot;font-size: 8px;&quot;&gt;&lt;font color=&quot;#cce5ff&quot; style=&quot;&quot;&gt;&lt;b style=&quot;&quot;&gt;(MEDS &amp;amp; SUPPLY, EXAMINATION AND OTHER SERVICES&lt;/b&gt;&lt;/font&gt;&lt;b style=&quot;color: rgb(204, 229, 255); background-color: initial;&quot;&gt;)&lt;/b&gt;&lt;/font&gt;&lt;/div&gt;&lt;/div&gt;" style="shape=parallelogram;perimeter=parallelogramPerimeter;whiteSpace=wrap;html=1;fixedSize=1;fillColor=#23445D;strokeColor=#23445D;rounded=1;strokeWidth=2;gradientColor=none;movable=0;resizable=0;rotatable=0;deletable=0;editable=0;locked=1;connectable=0;" vertex="1" parent="1">
          <mxGeometry x="928" y="2050" width="270" height="38.75" as="geometry" />
        </mxCell>
        <mxCell id="oiw9RieTrFUaGt8_zSmy-147" style="edgeStyle=orthogonalEdgeStyle;rounded=0;orthogonalLoop=1;jettySize=auto;html=1;entryX=0.5;entryY=0;entryDx=0;entryDy=0;movable=0;resizable=0;rotatable=0;deletable=0;editable=0;locked=1;connectable=0;" edge="1" parent="1" source="oiw9RieTrFUaGt8_zSmy-148" target="oiw9RieTrFUaGt8_zSmy-150">
          <mxGeometry relative="1" as="geometry" />
        </mxCell>
        <mxCell id="oiw9RieTrFUaGt8_zSmy-148" value="&lt;font color=&quot;#cce5ff&quot;&gt;&lt;span style=&quot;font-size: 10px;&quot;&gt;&lt;b&gt;REGISTER&amp;nbsp;&lt;/b&gt;&lt;/span&gt;&lt;/font&gt;&lt;div&gt;&lt;font color=&quot;#cce5ff&quot;&gt;&lt;span style=&quot;font-size: 10px;&quot;&gt;&lt;b&gt;ER CASE&lt;/b&gt;&lt;/span&gt;&lt;/font&gt;&lt;/div&gt;" style="whiteSpace=wrap;html=1;fillColor=#23445D;strokeColor=#23445D;rounded=1;strokeWidth=2;gradientColor=none;movable=0;resizable=0;rotatable=0;deletable=0;editable=0;locked=1;connectable=0;" vertex="1" parent="1">
          <mxGeometry x="1125" y="1610" width="90" height="35" as="geometry" />
        </mxCell>
        <mxCell id="oiw9RieTrFUaGt8_zSmy-149" style="edgeStyle=orthogonalEdgeStyle;rounded=0;orthogonalLoop=1;jettySize=auto;html=1;entryX=1;entryY=0.5;entryDx=0;entryDy=0;fontFamily=Helvetica;fontSize=18;fontColor=#ffffff;movable=0;resizable=0;rotatable=0;deletable=0;editable=0;locked=1;connectable=0;" edge="1" parent="1" source="oiw9RieTrFUaGt8_zSmy-150" target="oiw9RieTrFUaGt8_zSmy-131">
          <mxGeometry relative="1" as="geometry" />
        </mxCell>
        <mxCell id="oiw9RieTrFUaGt8_zSmy-150" value="&lt;font color=&quot;#cce5ff&quot;&gt;&lt;span style=&quot;font-size: 10px;&quot;&gt;&lt;b&gt;REQUEST | CHARGE&lt;/b&gt;&lt;/span&gt;&lt;/font&gt;&lt;div&gt;&lt;font style=&quot;background-color: initial; font-size: 8px;&quot; color=&quot;#cce5ff&quot;&gt;&lt;b&gt;(MEDS &amp;amp; SUPPLY, EXAMINATION AND OTHER SERVICES&lt;/b&gt;&lt;/font&gt;&lt;b style=&quot;background-color: initial; font-size: 8px; color: rgb(204, 229, 255);&quot;&gt;)&lt;/b&gt;&lt;/div&gt;" style="whiteSpace=wrap;html=1;fillColor=#23445D;strokeColor=#23445D;rounded=1;strokeWidth=2;gradientColor=none;movable=0;resizable=0;rotatable=0;deletable=0;editable=0;locked=1;connectable=0;" vertex="1" parent="1">
          <mxGeometry x="1090" y="1710" width="160" height="45.5" as="geometry" />
        </mxCell>
        <mxCell id="oiw9RieTrFUaGt8_zSmy-151" value="NO" style="edgeLabel;html=1;align=center;verticalAlign=middle;resizable=0;points=[];movable=0;rotatable=0;deletable=0;editable=0;locked=1;connectable=0;" connectable="0" vertex="1" parent="1">
          <mxGeometry x="1056" y="2024" width="15" as="geometry">
            <mxPoint x="1" y="-2" as="offset" />
          </mxGeometry>
        </mxCell>
        <mxCell id="oiw9RieTrFUaGt8_zSmy-152" value="" style="edgeStyle=orthogonalEdgeStyle;rounded=0;orthogonalLoop=1;jettySize=auto;html=1;movable=0;resizable=0;rotatable=0;deletable=0;editable=0;locked=1;connectable=0;" edge="1" parent="1" source="oiw9RieTrFUaGt8_zSmy-153" target="oiw9RieTrFUaGt8_zSmy-201">
          <mxGeometry relative="1" as="geometry" />
        </mxCell>
        <mxCell id="oiw9RieTrFUaGt8_zSmy-153" value="&lt;font color=&quot;#cce5ff&quot;&gt;&lt;span style=&quot;font-size: 10px;&quot;&gt;&lt;b&gt;REQUEST | CHARGE&lt;/b&gt;&lt;/span&gt;&lt;/font&gt;&lt;div&gt;&lt;font style=&quot;background-color: initial; font-size: 8px;&quot; color=&quot;#cce5ff&quot;&gt;&lt;b&gt;(MEDS &amp;amp; SUPPLY, EXAMINATION AND OTHER SERVICES&lt;/b&gt;&lt;/font&gt;&lt;b style=&quot;background-color: initial; font-size: 8px; color: rgb(204, 229, 255);&quot;&gt;)&lt;/b&gt;&lt;/div&gt;" style="whiteSpace=wrap;html=1;fillColor=#23445D;strokeColor=#23445D;rounded=1;strokeWidth=2;gradientColor=none;movable=0;resizable=0;rotatable=0;deletable=0;editable=0;locked=1;connectable=0;" vertex="1" parent="1">
          <mxGeometry x="1260" y="1512.37" width="140" height="52.75" as="geometry" />
        </mxCell>
        <mxCell id="oiw9RieTrFUaGt8_zSmy-154" style="edgeStyle=orthogonalEdgeStyle;rounded=0;orthogonalLoop=1;jettySize=auto;html=1;fontFamily=Helvetica;fontSize=18;fontColor=#ffffff;exitX=0.5;exitY=1;exitDx=0;exitDy=0;movable=0;resizable=0;rotatable=0;deletable=0;editable=0;locked=1;connectable=0;" edge="1" parent="1" source="oiw9RieTrFUaGt8_zSmy-158">
          <mxGeometry relative="1" as="geometry">
            <mxPoint x="198" y="1480" as="targetPoint" />
            <Array as="points">
              <mxPoint x="198" y="1620" />
              <mxPoint x="140" y="1620" />
              <mxPoint x="140" y="1480" />
            </Array>
          </mxGeometry>
        </mxCell>
        <mxCell id="oiw9RieTrFUaGt8_zSmy-155" value="NO" style="edgeLabel;html=1;align=center;verticalAlign=middle;resizable=0;points=[];opacity=60;strokeColor=#ffffff;strokeWidth=2;fontFamily=Helvetica;fontSize=11;fontColor=#000000;fillColor=#BAC8D3;movable=0;rotatable=0;deletable=0;editable=0;locked=1;connectable=0;" connectable="0" vertex="1" parent="oiw9RieTrFUaGt8_zSmy-154">
          <mxGeometry x="-0.3848" y="-1" relative="1" as="geometry">
            <mxPoint x="58" y="-17" as="offset" />
          </mxGeometry>
        </mxCell>
        <mxCell id="oiw9RieTrFUaGt8_zSmy-156" style="edgeStyle=orthogonalEdgeStyle;rounded=0;orthogonalLoop=1;jettySize=auto;html=1;fontFamily=Helvetica;fontSize=18;fontColor=#ffffff;entryX=0;entryY=0.5;entryDx=0;entryDy=0;movable=0;resizable=0;rotatable=0;deletable=0;editable=0;locked=1;connectable=0;" edge="1" parent="1" source="oiw9RieTrFUaGt8_zSmy-158" target="oiw9RieTrFUaGt8_zSmy-160">
          <mxGeometry relative="1" as="geometry">
            <mxPoint x="330" y="1545" as="targetPoint" />
          </mxGeometry>
        </mxCell>
        <mxCell id="oiw9RieTrFUaGt8_zSmy-157" value="YES" style="edgeLabel;html=1;align=center;verticalAlign=middle;resizable=0;points=[];opacity=60;strokeColor=#ffffff;strokeWidth=2;fontFamily=Helvetica;fontSize=11;fontColor=#000000;fillColor=#BAC8D3;movable=0;rotatable=0;deletable=0;editable=0;locked=1;connectable=0;" connectable="0" vertex="1" parent="oiw9RieTrFUaGt8_zSmy-156">
          <mxGeometry x="-0.6202" y="-5" relative="1" as="geometry">
            <mxPoint x="4" y="-6" as="offset" />
          </mxGeometry>
        </mxCell>
        <mxCell id="oiw9RieTrFUaGt8_zSmy-158" value="&lt;font color=&quot;#cce5ff&quot;&gt;&lt;span style=&quot;font-size: 10px;&quot;&gt;&lt;b&gt;IF&lt;/b&gt;&lt;/span&gt;&lt;/font&gt;&lt;br&gt;&lt;div&gt;&lt;b style=&quot;color: rgb(204, 229, 255); background-color: initial;&quot;&gt;&lt;font style=&quot;font-size: 10px;&quot;&gt;QUEUED&lt;/font&gt;&lt;/b&gt;&lt;/div&gt;&lt;div&gt;&lt;font color=&quot;#cce5ff&quot;&gt;&lt;span style=&quot;font-size: 10px;&quot;&gt;&lt;b&gt;?&lt;/b&gt;&lt;/span&gt;&lt;/font&gt;&lt;/div&gt;" style="rhombus;whiteSpace=wrap;html=1;fillColor=#23445D;strokeColor=#23445D;rounded=1;strokeWidth=2;gradientColor=none;movable=0;resizable=0;rotatable=0;deletable=0;editable=0;locked=1;connectable=0;" vertex="1" parent="1">
          <mxGeometry x="147.99999999999994" y="1500" width="100" height="90" as="geometry" />
        </mxCell>
        <mxCell id="oiw9RieTrFUaGt8_zSmy-159" value="" style="edgeStyle=orthogonalEdgeStyle;rounded=0;orthogonalLoop=1;jettySize=auto;html=1;fontFamily=Helvetica;fontSize=12;fontColor=#cce5ff;movable=0;resizable=0;rotatable=0;deletable=0;editable=0;locked=1;connectable=0;" edge="1" parent="1" source="oiw9RieTrFUaGt8_zSmy-160" target="oiw9RieTrFUaGt8_zSmy-162">
          <mxGeometry relative="1" as="geometry" />
        </mxCell>
        <mxCell id="oiw9RieTrFUaGt8_zSmy-160" value="&lt;font color=&quot;#cce5ff&quot;&gt;&lt;span style=&quot;font-size: 10px;&quot;&gt;&lt;b&gt;REGISTER&amp;nbsp;&lt;/b&gt;&lt;/span&gt;&lt;/font&gt;&lt;div&gt;&lt;font color=&quot;#cce5ff&quot;&gt;&lt;span style=&quot;font-size: 10px;&quot;&gt;&lt;b&gt;OPD CASE&lt;/b&gt;&lt;/span&gt;&lt;/font&gt;&lt;/div&gt;" style="whiteSpace=wrap;html=1;fillColor=#23445D;strokeColor=#23445D;rounded=1;strokeWidth=2;gradientColor=none;movable=0;resizable=0;rotatable=0;deletable=0;editable=0;locked=1;connectable=0;" vertex="1" parent="1">
          <mxGeometry x="308" y="1527.5" width="90" height="35" as="geometry" />
        </mxCell>
        <mxCell id="oiw9RieTrFUaGt8_zSmy-161" style="edgeStyle=orthogonalEdgeStyle;rounded=0;orthogonalLoop=1;jettySize=auto;html=1;fontFamily=Helvetica;fontSize=18;fontColor=#ffffff;entryX=0.5;entryY=0;entryDx=0;entryDy=0;movable=0;resizable=0;rotatable=0;deletable=0;editable=0;locked=1;connectable=0;exitX=0.5;exitY=1;exitDx=0;exitDy=0;" edge="1" parent="1" source="oiw9RieTrFUaGt8_zSmy-162" target="oiw9RieTrFUaGt8_zSmy-61">
          <mxGeometry relative="1" as="geometry">
            <mxPoint x="210" y="1670" as="targetPoint" />
            <Array as="points">
              <mxPoint x="353" y="1680" />
              <mxPoint x="198" y="1680" />
            </Array>
          </mxGeometry>
        </mxCell>
        <mxCell id="oiw9RieTrFUaGt8_zSmy-162" value="&lt;font color=&quot;#cce5ff&quot; style=&quot;font-size: 10px;&quot;&gt;&lt;b style=&quot;&quot;&gt;&lt;font style=&quot;&quot;&gt;GERERATE&amp;nbsp;&lt;/font&gt;&lt;/b&gt;&lt;/font&gt;&lt;div&gt;&lt;font color=&quot;#cce5ff&quot; style=&quot;font-size: 10px;&quot;&gt;&lt;b style=&quot;&quot;&gt;&lt;span style=&quot;background-color: initial;&quot;&gt;Queuing&amp;nbsp;&lt;/span&gt;&lt;span style=&quot;background-color: initial;&quot;&gt;Information | #&lt;/span&gt;&lt;/b&gt;&lt;/font&gt;&lt;/div&gt;" style="whiteSpace=wrap;html=1;fillColor=#23445D;strokeColor=#23445D;rounded=1;strokeWidth=2;gradientColor=none;movable=0;resizable=0;rotatable=0;deletable=0;editable=0;locked=1;connectable=0;" vertex="1" parent="1">
          <mxGeometry x="285.5" y="1604.75" width="135" height="45.5" as="geometry" />
        </mxCell>
        <mxCell id="oiw9RieTrFUaGt8_zSmy-163" style="edgeStyle=orthogonalEdgeStyle;rounded=0;orthogonalLoop=1;jettySize=auto;html=1;entryX=0.5;entryY=0;entryDx=0;entryDy=0;fontFamily=Helvetica;fontSize=18;fontColor=#ffffff;movable=0;resizable=0;rotatable=0;deletable=0;editable=0;locked=1;connectable=0;" edge="1" parent="1" source="oiw9RieTrFUaGt8_zSmy-164" target="oiw9RieTrFUaGt8_zSmy-125">
          <mxGeometry relative="1" as="geometry" />
        </mxCell>
        <mxCell id="oiw9RieTrFUaGt8_zSmy-164" value="&lt;font color=&quot;#cce5ff&quot;&gt;&lt;span style=&quot;font-size: 10px;&quot;&gt;&lt;b&gt;REQUEST | CHARGE&lt;/b&gt;&lt;/span&gt;&lt;/font&gt;&lt;div&gt;&lt;font style=&quot;background-color: initial; font-size: 8px;&quot; color=&quot;#cce5ff&quot;&gt;&lt;b&gt;(MEDS &amp;amp; SUPPLY, EXAMINATION AND OTHER SERVICES&lt;/b&gt;&lt;/font&gt;&lt;b style=&quot;background-color: initial; font-size: 8px; color: rgb(204, 229, 255);&quot;&gt;)&lt;/b&gt;&lt;/div&gt;" style="whiteSpace=wrap;html=1;fillColor=#23445D;strokeColor=#23445D;rounded=1;strokeWidth=2;gradientColor=none;movable=0;resizable=0;rotatable=0;deletable=0;editable=0;locked=1;connectable=0;" vertex="1" parent="1">
          <mxGeometry x="604" y="1531.38" width="140" height="50.62" as="geometry" />
        </mxCell>
        <mxCell id="oiw9RieTrFUaGt8_zSmy-165" value="" style="group;movable=0;resizable=0;rotatable=0;deletable=0;editable=0;locked=1;connectable=0;strokeColor=none;" vertex="1" connectable="0" parent="1">
          <mxGeometry x="108" y="914" width="1952" height="40" as="geometry" />
        </mxCell>
        <mxCell id="oiw9RieTrFUaGt8_zSmy-166" value="ER (EMERGENCY)" style="strokeColor=default;fillColor=#5d7f99;fontSize=19;strokeWidth=2;fontFamily=Helvetica;html=1;labelBackgroundColor=none;fontColor=#FFFFFF;movable=0;resizable=0;rotatable=0;deletable=0;editable=0;locked=1;connectable=0;" vertex="1" parent="oiw9RieTrFUaGt8_zSmy-165">
          <mxGeometry x="650" width="650" height="40" as="geometry" />
        </mxCell>
        <mxCell id="oiw9RieTrFUaGt8_zSmy-167" value="IPD (INPATIENT)" style="strokeColor=default;fillColor=#5d7f99;fontSize=19;strokeWidth=2;fontFamily=Helvetica;html=1;labelBackgroundColor=none;fontColor=#FFFFFF;movable=0;resizable=0;rotatable=0;deletable=0;editable=0;locked=1;connectable=0;" vertex="1" parent="oiw9RieTrFUaGt8_zSmy-165">
          <mxGeometry x="1300" width="652" height="40" as="geometry" />
        </mxCell>
        <mxCell id="oiw9RieTrFUaGt8_zSmy-168" value="OPD (OUTPATIENT)" style="strokeColor=default;fillColor=#5d7f99;fontSize=19;strokeWidth=2;fontFamily=Helvetica;html=1;labelBackgroundColor=none;fontColor=#FFFFFF;movable=0;resizable=0;rotatable=0;deletable=0;editable=0;locked=1;connectable=0;" vertex="1" parent="oiw9RieTrFUaGt8_zSmy-165">
          <mxGeometry width="650.6656298963762" height="40" as="geometry" />
        </mxCell>
        <mxCell id="oiw9RieTrFUaGt8_zSmy-169" value="" style="strokeColor=default;fillColor=#BAC8D3;fontSize=18;strokeWidth=2;fontFamily=Helvetica;html=1;opacity=90;movable=0;resizable=0;rotatable=0;deletable=0;editable=0;locked=1;connectable=0;" vertex="1" parent="1">
          <mxGeometry x="1410" y="1460" width="650" height="470" as="geometry" />
        </mxCell>
        <mxCell id="oiw9RieTrFUaGt8_zSmy-170" style="edgeStyle=orthogonalEdgeStyle;rounded=0;orthogonalLoop=1;jettySize=auto;html=1;entryX=0;entryY=0.5;entryDx=0;entryDy=0;movable=0;resizable=0;rotatable=0;deletable=0;editable=0;locked=1;connectable=0;" edge="1" parent="1" source="oiw9RieTrFUaGt8_zSmy-172">
          <mxGeometry relative="1" as="geometry">
            <mxPoint x="198.66999999999996" y="2926.5" as="targetPoint" />
            <Array as="points">
              <mxPoint x="163" y="2927" />
              <mxPoint x="199" y="2927" />
            </Array>
          </mxGeometry>
        </mxCell>
        <mxCell id="oiw9RieTrFUaGt8_zSmy-171" value="YES" style="edgeLabel;html=1;align=center;verticalAlign=middle;resizable=0;points=[];movable=0;rotatable=0;deletable=0;editable=0;locked=1;connectable=0;" connectable="0" vertex="1" parent="oiw9RieTrFUaGt8_zSmy-170">
          <mxGeometry x="-0.6741" y="-2" relative="1" as="geometry">
            <mxPoint as="offset" />
          </mxGeometry>
        </mxCell>
        <mxCell id="oiw9RieTrFUaGt8_zSmy-172" value="&lt;font style=&quot;font-size: 10px;&quot; color=&quot;#cce5ff&quot;&gt;&lt;b style=&quot;&quot;&gt;IF&lt;/b&gt;&lt;/font&gt;&lt;div&gt;&lt;b style=&quot;color: rgb(204, 229, 255); background-color: initial;&quot;&gt;&lt;font style=&quot;font-size: 10px;&quot;&gt;QUEUED&lt;/font&gt;&lt;/b&gt;&lt;/div&gt;" style="rhombus;whiteSpace=wrap;html=1;fillColor=#23445D;strokeColor=#23445D;rounded=1;strokeWidth=2;gradientColor=none;movable=0;resizable=0;rotatable=0;deletable=0;editable=0;locked=1;connectable=0;" vertex="1" parent="1">
          <mxGeometry x="122.67000000000003" y="2829" width="80" height="70" as="geometry" />
        </mxCell>
        <mxCell id="oiw9RieTrFUaGt8_zSmy-173" value="" style="edgeStyle=orthogonalEdgeStyle;rounded=0;orthogonalLoop=1;jettySize=auto;html=1;movable=0;resizable=0;rotatable=0;deletable=0;editable=0;locked=1;connectable=0;" edge="1" parent="1" source="oiw9RieTrFUaGt8_zSmy-174" target="oiw9RieTrFUaGt8_zSmy-257">
          <mxGeometry relative="1" as="geometry" />
        </mxCell>
        <mxCell id="oiw9RieTrFUaGt8_zSmy-174" value="&lt;div&gt;&lt;div&gt;&lt;b style=&quot;font-size: 10px; color: rgb(204, 229, 255); background-color: initial;&quot;&gt;ADD/ UPPDATE&lt;/b&gt;&lt;br&gt;&lt;/div&gt;&lt;div&gt;&lt;font style=&quot;font-size: 8px;&quot; color=&quot;#cce5ff&quot;&gt;&lt;b&gt;(Cassification, Guarantors &amp;amp; Sponsorship)&lt;/b&gt;&lt;/font&gt;&lt;/div&gt;&lt;/div&gt;" style="whiteSpace=wrap;html=1;fillColor=#23445D;strokeColor=#23445D;rounded=1;strokeWidth=2;gradientColor=none;movable=0;resizable=0;rotatable=0;deletable=0;editable=0;locked=1;connectable=0;spacing=0;verticalAlign=middle;" vertex="1" parent="1">
          <mxGeometry x="198.67000000000002" y="2906" width="125" height="41" as="geometry" />
        </mxCell>
        <mxCell id="oiw9RieTrFUaGt8_zSmy-175" value="" style="edgeStyle=orthogonalEdgeStyle;rounded=0;orthogonalLoop=1;jettySize=auto;html=1;movable=0;resizable=0;rotatable=0;deletable=0;editable=0;locked=1;connectable=0;" edge="1" parent="1" source="oiw9RieTrFUaGt8_zSmy-176" target="oiw9RieTrFUaGt8_zSmy-182">
          <mxGeometry relative="1" as="geometry" />
        </mxCell>
        <mxCell id="oiw9RieTrFUaGt8_zSmy-176" value="&lt;font style=&quot;font-size: 10px;&quot; color=&quot;#cce5ff&quot;&gt;&lt;b&gt;START&lt;/b&gt;&lt;/font&gt;" style="strokeWidth=2;html=1;shape=mxgraph.flowchart.terminator;whiteSpace=wrap;fillColor=#23445D;strokeColor=#23445D;movable=0;resizable=0;rotatable=0;deletable=0;editable=0;locked=1;connectable=0;" vertex="1" parent="1">
          <mxGeometry x="769.9999999999999" y="989" width="80" height="40" as="geometry" />
        </mxCell>
        <mxCell id="oiw9RieTrFUaGt8_zSmy-177" style="edgeStyle=orthogonalEdgeStyle;rounded=0;orthogonalLoop=1;jettySize=auto;html=1;exitX=0.5;exitY=1;exitDx=0;exitDy=0;movable=0;resizable=0;rotatable=0;deletable=0;editable=0;locked=1;connectable=0;" edge="1" parent="1">
          <mxGeometry relative="1" as="geometry">
            <mxPoint x="959.0045578231293" y="1030" as="sourcePoint" />
            <mxPoint x="959.0045578231293" y="1030" as="targetPoint" />
          </mxGeometry>
        </mxCell>
        <mxCell id="oiw9RieTrFUaGt8_zSmy-178" style="edgeStyle=orthogonalEdgeStyle;rounded=0;orthogonalLoop=1;jettySize=auto;html=1;movable=0;resizable=0;rotatable=0;deletable=0;editable=0;locked=1;connectable=0;entryX=0.5;entryY=0;entryDx=0;entryDy=0;" edge="1" parent="1" source="oiw9RieTrFUaGt8_zSmy-182" target="oiw9RieTrFUaGt8_zSmy-120">
          <mxGeometry relative="1" as="geometry">
            <mxPoint x="830" y="1270" as="targetPoint" />
            <Array as="points">
              <mxPoint x="950" y="1090" />
              <mxPoint x="830" y="1090" />
            </Array>
          </mxGeometry>
        </mxCell>
        <mxCell id="oiw9RieTrFUaGt8_zSmy-179" value="YES" style="edgeLabel;html=1;align=center;verticalAlign=middle;resizable=0;points=[];movable=0;rotatable=0;deletable=0;editable=0;locked=1;connectable=0;" vertex="1" connectable="0" parent="oiw9RieTrFUaGt8_zSmy-178">
          <mxGeometry x="-0.8039" relative="1" as="geometry">
            <mxPoint x="4" y="-16" as="offset" />
          </mxGeometry>
        </mxCell>
        <mxCell id="oiw9RieTrFUaGt8_zSmy-180" style="edgeStyle=orthogonalEdgeStyle;rounded=0;orthogonalLoop=1;jettySize=auto;html=1;movable=0;resizable=0;rotatable=0;deletable=0;editable=0;locked=1;connectable=0;" edge="1" parent="1" source="oiw9RieTrFUaGt8_zSmy-182">
          <mxGeometry relative="1" as="geometry">
            <mxPoint x="1110" y="1300" as="targetPoint" />
          </mxGeometry>
        </mxCell>
        <mxCell id="oiw9RieTrFUaGt8_zSmy-181" value="NO" style="edgeLabel;html=1;align=center;verticalAlign=middle;resizable=0;points=[];movable=0;rotatable=0;deletable=0;editable=0;locked=1;connectable=0;" connectable="0" vertex="1" parent="oiw9RieTrFUaGt8_zSmy-180">
          <mxGeometry x="-0.8243" relative="1" as="geometry">
            <mxPoint x="-17" as="offset" />
          </mxGeometry>
        </mxCell>
        <mxCell id="oiw9RieTrFUaGt8_zSmy-182" value="&lt;font color=&quot;#cce5ff&quot;&gt;&lt;span style=&quot;font-size: 10px;&quot;&gt;&lt;b&gt;IF&lt;/b&gt;&lt;/span&gt;&lt;/font&gt;&lt;div&gt;&lt;font color=&quot;#cce5ff&quot;&gt;&lt;span style=&quot;font-size: 10px;&quot;&gt;&lt;b&gt;REFERED FROM&lt;/b&gt;&lt;/span&gt;&lt;/font&gt;&lt;/div&gt;&lt;div&gt;&lt;font color=&quot;#cce5ff&quot;&gt;&lt;span style=&quot;font-size: 10px;&quot;&gt;&lt;b&gt;OTHER HOSPITAL&lt;/b&gt;&lt;/span&gt;&lt;/font&gt;&lt;/div&gt;&lt;div&gt;&lt;font color=&quot;#cce5ff&quot;&gt;&lt;span style=&quot;font-size: 10px;&quot;&gt;&lt;b&gt;?&lt;/b&gt;&lt;/span&gt;&lt;/font&gt;&lt;/div&gt;" style="rhombus;whiteSpace=wrap;html=1;fillColor=#23445D;strokeColor=#23445D;rounded=1;strokeWidth=2;gradientColor=none;movable=0;resizable=0;rotatable=0;deletable=0;editable=0;locked=1;connectable=0;" vertex="1" parent="1">
          <mxGeometry x="890" y="955.5" width="120" height="106" as="geometry" />
        </mxCell>
        <mxCell id="oiw9RieTrFUaGt8_zSmy-183" style="edgeStyle=orthogonalEdgeStyle;rounded=0;orthogonalLoop=1;jettySize=auto;html=1;entryX=0.5;entryY=0;entryDx=0;entryDy=0;movable=0;resizable=0;rotatable=0;deletable=0;editable=0;locked=1;connectable=0;" edge="1" parent="1" source="oiw9RieTrFUaGt8_zSmy-187" target="oiw9RieTrFUaGt8_zSmy-148">
          <mxGeometry relative="1" as="geometry" />
        </mxCell>
        <mxCell id="oiw9RieTrFUaGt8_zSmy-184" value="YES" style="edgeLabel;html=1;align=center;verticalAlign=middle;resizable=0;points=[];movable=0;rotatable=0;deletable=0;editable=0;locked=1;connectable=0;" connectable="0" vertex="1" parent="oiw9RieTrFUaGt8_zSmy-183">
          <mxGeometry x="-0.2715" y="-1" relative="1" as="geometry">
            <mxPoint x="2" y="-10" as="offset" />
          </mxGeometry>
        </mxCell>
        <mxCell id="oiw9RieTrFUaGt8_zSmy-185" value="" style="edgeStyle=orthogonalEdgeStyle;rounded=0;orthogonalLoop=1;jettySize=auto;html=1;movable=0;resizable=0;rotatable=0;deletable=0;editable=0;locked=1;connectable=0;" edge="1" parent="1" source="oiw9RieTrFUaGt8_zSmy-187" target="oiw9RieTrFUaGt8_zSmy-153">
          <mxGeometry relative="1" as="geometry" />
        </mxCell>
        <mxCell id="oiw9RieTrFUaGt8_zSmy-186" value="NO" style="edgeLabel;html=1;align=center;verticalAlign=middle;resizable=0;points=[];movable=0;rotatable=0;deletable=0;editable=0;locked=1;connectable=0;" connectable="0" vertex="1" parent="oiw9RieTrFUaGt8_zSmy-185">
          <mxGeometry x="-0.6256" relative="1" as="geometry">
            <mxPoint x="4" as="offset" />
          </mxGeometry>
        </mxCell>
        <mxCell id="oiw9RieTrFUaGt8_zSmy-187" value="&lt;font color=&quot;#ffffff&quot;&gt;IF&lt;/font&gt;&lt;div&gt;&lt;font color=&quot;#ffffff&quot;&gt;ER CASE&lt;/font&gt;&lt;/div&gt;&lt;div&gt;&lt;font color=&quot;#ffffff&quot;&gt;?&lt;/font&gt;&lt;/div&gt;" style="rhombus;whiteSpace=wrap;html=1;fillColor=#23445D;strokeColor=#23445D;rounded=1;strokeWidth=2;gradientColor=none;movable=0;resizable=0;rotatable=0;deletable=0;editable=0;locked=1;connectable=0;" vertex="1" parent="1">
          <mxGeometry x="1130" y="1498.75" width="80" height="80" as="geometry" />
        </mxCell>
        <mxCell id="oiw9RieTrFUaGt8_zSmy-188" value="" style="edgeStyle=orthogonalEdgeStyle;rounded=0;orthogonalLoop=1;jettySize=auto;html=1;movable=0;resizable=0;rotatable=0;deletable=0;editable=0;locked=1;connectable=0;" edge="1" parent="1" source="oiw9RieTrFUaGt8_zSmy-189" target="oiw9RieTrFUaGt8_zSmy-193">
          <mxGeometry relative="1" as="geometry" />
        </mxCell>
        <mxCell id="oiw9RieTrFUaGt8_zSmy-189" value="&lt;font style=&quot;font-size: 10px;&quot; color=&quot;#cce5ff&quot;&gt;&lt;b&gt;START&lt;/b&gt;&lt;/font&gt;" style="strokeWidth=2;html=1;shape=mxgraph.flowchart.terminator;whiteSpace=wrap;fillColor=#23445D;strokeColor=#23445D;movable=0;resizable=0;rotatable=0;deletable=0;editable=0;locked=1;connectable=0;" vertex="1" parent="1">
          <mxGeometry x="1430" y="1510" width="80" height="40" as="geometry" />
        </mxCell>
        <mxCell id="oiw9RieTrFUaGt8_zSmy-190" value="" style="edgeStyle=orthogonalEdgeStyle;rounded=0;orthogonalLoop=1;jettySize=auto;html=1;movable=0;resizable=0;rotatable=0;deletable=0;editable=0;locked=1;connectable=0;" edge="1" parent="1" source="oiw9RieTrFUaGt8_zSmy-191" target="oiw9RieTrFUaGt8_zSmy-331">
          <mxGeometry relative="1" as="geometry" />
        </mxCell>
        <mxCell id="oiw9RieTrFUaGt8_zSmy-191" value="&lt;font style=&quot;font-size: 10px;&quot; color=&quot;#cce5ff&quot;&gt;&lt;b&gt;ENCODE&amp;nbsp;&lt;/b&gt;&lt;/font&gt;&lt;div&gt;&lt;font color=&quot;#cce5ff&quot;&gt;&lt;span style=&quot;font-size: 10px;&quot;&gt;&lt;b&gt;(Add/Update Vital Sign)&lt;/b&gt;&lt;/span&gt;&lt;/font&gt;&lt;/div&gt;" style="whiteSpace=wrap;html=1;fillColor=#23445D;strokeColor=#23445D;rounded=1;strokeWidth=2;gradientColor=none;movable=0;resizable=0;rotatable=0;deletable=0;editable=0;locked=1;connectable=0;" vertex="1" parent="1">
          <mxGeometry x="1732.5" y="1507.25" width="135" height="45.5" as="geometry" />
        </mxCell>
        <mxCell id="oiw9RieTrFUaGt8_zSmy-192" value="" style="edgeStyle=orthogonalEdgeStyle;rounded=0;orthogonalLoop=1;jettySize=auto;html=1;movable=0;resizable=0;rotatable=0;deletable=0;editable=0;locked=1;connectable=0;" edge="1" parent="1" source="oiw9RieTrFUaGt8_zSmy-193" target="oiw9RieTrFUaGt8_zSmy-191">
          <mxGeometry relative="1" as="geometry" />
        </mxCell>
        <mxCell id="oiw9RieTrFUaGt8_zSmy-193" value="&lt;font style=&quot;font-size: 10px;&quot; color=&quot;#cce5ff&quot;&gt;&lt;b&gt;ENCODE&amp;nbsp;&lt;/b&gt;&lt;/font&gt;&lt;div&gt;&lt;font color=&quot;#cce5ff&quot;&gt;&lt;span style=&quot;font-size: 10px;&quot;&gt;&lt;b&gt;DIET LIST&lt;/b&gt;&lt;/span&gt;&lt;/font&gt;&lt;/div&gt;" style="whiteSpace=wrap;html=1;fillColor=#23445D;strokeColor=#23445D;rounded=1;strokeWidth=2;gradientColor=none;movable=0;resizable=0;rotatable=0;deletable=0;editable=0;locked=1;connectable=0;" vertex="1" parent="1">
          <mxGeometry x="1560" y="1507.25" width="135" height="45.5" as="geometry" />
        </mxCell>
        <mxCell id="oiw9RieTrFUaGt8_zSmy-194" value="" style="edgeStyle=orthogonalEdgeStyle;rounded=0;orthogonalLoop=1;jettySize=auto;html=1;movable=0;resizable=0;rotatable=0;deletable=0;editable=0;locked=1;connectable=0;" edge="1" parent="1" source="oiw9RieTrFUaGt8_zSmy-195" target="oiw9RieTrFUaGt8_zSmy-197">
          <mxGeometry relative="1" as="geometry" />
        </mxCell>
        <mxCell id="oiw9RieTrFUaGt8_zSmy-195" value="&lt;font color=&quot;#cce5ff&quot;&gt;&lt;span style=&quot;font-size: 10px;&quot;&gt;&lt;b&gt;ENCODE ASSESSMENT&lt;/b&gt;&lt;/span&gt;&lt;/font&gt;&lt;div&gt;&lt;font color=&quot;#cce5ff&quot;&gt;&lt;span style=&quot;font-size: 10px;&quot;&gt;&lt;b&gt;(Diagnosis, CF4 &amp;amp; Others&lt;/b&gt;&lt;/span&gt;&lt;/font&gt;&lt;b style=&quot;font-size: 10px; color: rgb(204, 229, 255); background-color: initial;&quot;&gt;)&lt;/b&gt;&lt;/div&gt;" style="whiteSpace=wrap;html=1;fillColor=#23445D;strokeColor=#23445D;rounded=1;strokeWidth=2;gradientColor=none;movable=0;resizable=0;rotatable=0;deletable=0;editable=0;locked=1;connectable=0;" vertex="1" parent="1">
          <mxGeometry x="1732.5" y="1662.56" width="135" height="60.5" as="geometry" />
        </mxCell>
        <mxCell id="oiw9RieTrFUaGt8_zSmy-196" value="" style="edgeStyle=orthogonalEdgeStyle;rounded=0;orthogonalLoop=1;jettySize=auto;html=1;movable=0;resizable=0;rotatable=0;deletable=0;editable=0;locked=1;connectable=0;" edge="1" parent="1" source="oiw9RieTrFUaGt8_zSmy-197" target="oiw9RieTrFUaGt8_zSmy-329">
          <mxGeometry relative="1" as="geometry" />
        </mxCell>
        <mxCell id="oiw9RieTrFUaGt8_zSmy-197" value="&lt;font color=&quot;#cce5ff&quot;&gt;&lt;span style=&quot;font-size: 10px;&quot;&gt;&lt;b&gt;REQUEST | CHARGE&lt;/b&gt;&lt;/span&gt;&lt;/font&gt;&lt;div&gt;&lt;font style=&quot;background-color: initial; font-size: 8px;&quot; color=&quot;#cce5ff&quot;&gt;&lt;b&gt;(MEDS &amp;amp; SUPPLY, EXAMINATION AND OTHER SERVICES&lt;/b&gt;&lt;/font&gt;&lt;b style=&quot;background-color: initial; font-size: 8px; color: rgb(204, 229, 255);&quot;&gt;)&lt;/b&gt;&lt;/div&gt;" style="whiteSpace=wrap;html=1;fillColor=#23445D;strokeColor=#23445D;rounded=1;strokeWidth=2;gradientColor=none;movable=0;resizable=0;rotatable=0;deletable=0;editable=0;locked=1;connectable=0;" vertex="1" parent="1">
          <mxGeometry x="1525" y="1667.81" width="160" height="50" as="geometry" />
        </mxCell>
        <mxCell id="oiw9RieTrFUaGt8_zSmy-198" value="" style="edgeStyle=orthogonalEdgeStyle;rounded=0;orthogonalLoop=1;jettySize=auto;html=1;movable=0;resizable=0;rotatable=0;deletable=0;editable=0;locked=1;connectable=0;" edge="1" parent="1" source="oiw9RieTrFUaGt8_zSmy-199" target="oiw9RieTrFUaGt8_zSmy-206">
          <mxGeometry relative="1" as="geometry" />
        </mxCell>
        <mxCell id="oiw9RieTrFUaGt8_zSmy-199" value="&lt;font color=&quot;#cce5ff&quot;&gt;&lt;span style=&quot;font-size: 10px;&quot;&gt;&lt;b&gt;POST DIAGNOSIS &amp;amp;&amp;nbsp;&lt;/b&gt;&lt;/span&gt;&lt;/font&gt;&lt;div&gt;&lt;font color=&quot;#cce5ff&quot;&gt;&lt;span style=&quot;font-size: 10px;&quot;&gt;&lt;b&gt;INSTRUCTIONS&lt;/b&gt;&lt;/span&gt;&lt;/font&gt;&lt;/div&gt;&lt;div&gt;&lt;font color=&quot;#cce5ff&quot;&gt;&lt;span style=&quot;font-size: 10px;&quot;&gt;&lt;b&gt;(Doctor Progress Notes)&lt;/b&gt;&lt;/span&gt;&lt;/font&gt;&lt;/div&gt;" style="whiteSpace=wrap;html=1;fillColor=#23445D;strokeColor=#23445D;rounded=1;strokeWidth=2;gradientColor=none;movable=0;resizable=0;rotatable=0;deletable=0;editable=0;locked=1;connectable=0;" vertex="1" parent="1">
          <mxGeometry x="1430" y="1949.75" width="160" height="50" as="geometry" />
        </mxCell>
        <mxCell id="oiw9RieTrFUaGt8_zSmy-200" value="" style="edgeStyle=orthogonalEdgeStyle;rounded=0;orthogonalLoop=1;jettySize=auto;html=1;movable=0;resizable=0;rotatable=0;deletable=0;editable=0;locked=1;connectable=0;" edge="1" parent="1" source="oiw9RieTrFUaGt8_zSmy-201" target="oiw9RieTrFUaGt8_zSmy-308">
          <mxGeometry relative="1" as="geometry" />
        </mxCell>
        <mxCell id="oiw9RieTrFUaGt8_zSmy-201" value="&lt;b&gt;INPATIENT&lt;/b&gt;" style="shape=process;whiteSpace=wrap;html=1;backgroundOutline=1;glass=0;rounded=1;strokeColor=#c0cdd7;fillColor=#23445d;gradientColor=none;fontColor=#cce5ff;movable=0;resizable=0;rotatable=0;deletable=0;editable=0;locked=1;connectable=0;" vertex="1" parent="1">
          <mxGeometry x="1280.0000000000002" y="1582" width="100" height="35" as="geometry" />
        </mxCell>
        <mxCell id="oiw9RieTrFUaGt8_zSmy-202" style="edgeStyle=orthogonalEdgeStyle;rounded=0;orthogonalLoop=1;jettySize=auto;html=1;entryX=0.5;entryY=0;entryDx=0;entryDy=0;movable=0;resizable=0;rotatable=0;deletable=0;editable=0;locked=1;connectable=0;" edge="1" parent="1" source="oiw9RieTrFUaGt8_zSmy-206" target="oiw9RieTrFUaGt8_zSmy-224">
          <mxGeometry relative="1" as="geometry">
            <mxPoint x="1667.5" y="2050" as="targetPoint" />
          </mxGeometry>
        </mxCell>
        <mxCell id="oiw9RieTrFUaGt8_zSmy-203" value="NO" style="edgeLabel;html=1;align=center;verticalAlign=middle;resizable=0;points=[];movable=0;rotatable=0;deletable=0;editable=0;locked=1;connectable=0;" connectable="0" vertex="1" parent="oiw9RieTrFUaGt8_zSmy-202">
          <mxGeometry x="-0.2348" y="1" relative="1" as="geometry">
            <mxPoint x="-1" y="-8" as="offset" />
          </mxGeometry>
        </mxCell>
        <mxCell id="oiw9RieTrFUaGt8_zSmy-204" style="edgeStyle=orthogonalEdgeStyle;rounded=0;orthogonalLoop=1;jettySize=auto;html=1;movable=0;resizable=0;rotatable=0;deletable=0;editable=0;locked=1;connectable=0;entryX=0;entryY=0.5;entryDx=0;entryDy=0;" edge="1" parent="1" source="oiw9RieTrFUaGt8_zSmy-206" target="oiw9RieTrFUaGt8_zSmy-208">
          <mxGeometry relative="1" as="geometry">
            <mxPoint x="1750" y="1975" as="targetPoint" />
          </mxGeometry>
        </mxCell>
        <mxCell id="oiw9RieTrFUaGt8_zSmy-205" value="YES" style="edgeLabel;html=1;align=center;verticalAlign=middle;resizable=0;points=[];movable=0;rotatable=0;deletable=0;editable=0;locked=1;connectable=0;" connectable="0" vertex="1" parent="oiw9RieTrFUaGt8_zSmy-204">
          <mxGeometry x="-0.4116" y="4" relative="1" as="geometry">
            <mxPoint x="1" y="4" as="offset" />
          </mxGeometry>
        </mxCell>
        <mxCell id="oiw9RieTrFUaGt8_zSmy-206" value="&lt;font color=&quot;#ffffff&quot;&gt;IF&lt;/font&gt;&lt;div&gt;&lt;span style=&quot;color: rgb(255, 255, 255); background-color: initial;&quot;&gt;&amp;nbsp;MGH&lt;/span&gt;&lt;/div&gt;&lt;div&gt;&lt;span style=&quot;color: rgb(255, 255, 255); background-color: initial;&quot;&gt;?&lt;/span&gt;&lt;br&gt;&lt;/div&gt;" style="rhombus;whiteSpace=wrap;html=1;fillColor=#23445D;strokeColor=#23445D;rounded=1;strokeWidth=2;gradientColor=none;movable=0;resizable=0;rotatable=0;deletable=0;editable=0;locked=1;connectable=0;" vertex="1" parent="1">
          <mxGeometry x="1627.5" y="1934.75" width="80" height="80" as="geometry" />
        </mxCell>
        <mxCell id="oiw9RieTrFUaGt8_zSmy-207" value="" style="edgeStyle=orthogonalEdgeStyle;rounded=0;orthogonalLoop=1;jettySize=auto;html=1;movable=0;resizable=0;rotatable=0;deletable=0;editable=0;locked=1;connectable=0;" edge="1" parent="1" source="oiw9RieTrFUaGt8_zSmy-208" target="oiw9RieTrFUaGt8_zSmy-210">
          <mxGeometry relative="1" as="geometry" />
        </mxCell>
        <mxCell id="oiw9RieTrFUaGt8_zSmy-208" value="&lt;b&gt;MEDICAL&lt;/b&gt;&lt;div&gt;&lt;b&gt;RECORDS&lt;/b&gt;&lt;/div&gt;" style="shape=process;whiteSpace=wrap;html=1;backgroundOutline=1;glass=0;rounded=1;strokeColor=#c0cdd7;fillColor=#23445d;gradientColor=none;fontColor=#cce5ff;movable=0;resizable=0;rotatable=0;deletable=0;editable=0;locked=1;connectable=0;" vertex="1" parent="1">
          <mxGeometry x="1750" y="1953.9999999999998" width="100" height="42.75" as="geometry" />
        </mxCell>
        <mxCell id="oiw9RieTrFUaGt8_zSmy-209" value="" style="edgeStyle=orthogonalEdgeStyle;rounded=0;orthogonalLoop=1;jettySize=auto;html=1;movable=0;resizable=0;rotatable=0;deletable=0;editable=0;locked=1;connectable=0;" edge="1" parent="1" source="oiw9RieTrFUaGt8_zSmy-210" target="oiw9RieTrFUaGt8_zSmy-227">
          <mxGeometry relative="1" as="geometry" />
        </mxCell>
        <mxCell id="oiw9RieTrFUaGt8_zSmy-210" value="&lt;b&gt;BILLING&lt;/b&gt;" style="shape=process;whiteSpace=wrap;html=1;backgroundOutline=1;glass=0;rounded=1;strokeColor=#c0cdd7;fillColor=#23445d;gradientColor=none;fontColor=#cce5ff;movable=0;resizable=0;rotatable=0;deletable=0;editable=0;locked=1;connectable=0;" vertex="1" parent="1">
          <mxGeometry x="1885" y="1953.3799999999997" width="100" height="42.75" as="geometry" />
        </mxCell>
        <mxCell id="oiw9RieTrFUaGt8_zSmy-211" value="A" style="ellipse;whiteSpace=wrap;html=1;fillColor=#23445d;strokeColor=#c0cdd7;fontColor=#cce5ff;glass=0;rounded=1;gradientColor=none;movable=0;resizable=0;rotatable=0;deletable=0;editable=0;locked=1;connectable=0;" vertex="1" parent="1">
          <mxGeometry x="1650" y="2113.25" width="35" height="35.12" as="geometry" />
        </mxCell>
        <mxCell id="oiw9RieTrFUaGt8_zSmy-212" style="edgeStyle=orthogonalEdgeStyle;rounded=0;orthogonalLoop=1;jettySize=auto;html=1;exitX=0.5;exitY=1;exitDx=0;exitDy=0;movable=0;resizable=0;rotatable=0;deletable=0;editable=0;locked=1;connectable=0;" edge="1" parent="1" source="oiw9RieTrFUaGt8_zSmy-213">
          <mxGeometry relative="1" as="geometry">
            <mxPoint x="1712.5" y="1527.5" as="targetPoint" />
            <mxPoint x="1712.5" y="1505.5000000000002" as="sourcePoint" />
          </mxGeometry>
        </mxCell>
        <mxCell id="oiw9RieTrFUaGt8_zSmy-213" value="A" style="ellipse;whiteSpace=wrap;html=1;fillColor=#23445d;strokeColor=#c0cdd7;fontColor=#cce5ff;glass=0;rounded=1;gradientColor=none;movable=0;resizable=0;rotatable=0;deletable=0;editable=0;locked=1;connectable=0;" vertex="1" parent="1">
          <mxGeometry x="1695" y="1464.3800000000003" width="35" height="35.12" as="geometry" />
        </mxCell>
        <mxCell id="oiw9RieTrFUaGt8_zSmy-214" value="" style="edgeStyle=orthogonalEdgeStyle;rounded=0;orthogonalLoop=1;jettySize=auto;html=1;movable=0;resizable=0;rotatable=0;deletable=0;editable=0;locked=1;connectable=0;" edge="1" parent="1" source="oiw9RieTrFUaGt8_zSmy-215" target="oiw9RieTrFUaGt8_zSmy-216">
          <mxGeometry relative="1" as="geometry" />
        </mxCell>
        <mxCell id="oiw9RieTrFUaGt8_zSmy-215" value="&lt;font color=&quot;#cce5ff&quot;&gt;&lt;span style=&quot;font-size: 10px;&quot;&gt;&lt;b&gt;DISCHARGE PLAN&lt;br&gt;&lt;/b&gt;&lt;/span&gt;&lt;/font&gt;&lt;div&gt;&lt;font color=&quot;#cce5ff&quot;&gt;&lt;span style=&quot;font-size: 10px;&quot;&gt;&lt;b&gt;(Home meds and procedure)&lt;/b&gt;&lt;/span&gt;&lt;/font&gt;&lt;/div&gt;" style="whiteSpace=wrap;html=1;fillColor=#23445D;strokeColor=#23445D;rounded=1;strokeWidth=2;gradientColor=none;movable=0;resizable=0;rotatable=0;deletable=0;editable=0;locked=1;connectable=0;" vertex="1" parent="1">
          <mxGeometry x="1900" y="1592.31" width="132.5" height="44" as="geometry" />
        </mxCell>
        <mxCell id="oiw9RieTrFUaGt8_zSmy-216" value="&lt;font style=&quot;font-size: 10px;&quot; color=&quot;#cce5ff&quot;&gt;&lt;b&gt;END&lt;/b&gt;&lt;/font&gt;" style="strokeWidth=2;html=1;shape=mxgraph.flowchart.terminator;whiteSpace=wrap;fillColor=#23445D;strokeColor=#23445D;movable=0;resizable=0;rotatable=0;deletable=0;editable=0;locked=1;connectable=0;" vertex="1" parent="1">
          <mxGeometry x="1938.13" y="1692.81" width="56.25" height="30.25" as="geometry" />
        </mxCell>
        <mxCell id="oiw9RieTrFUaGt8_zSmy-217" value="A" style="ellipse;whiteSpace=wrap;html=1;fillColor=#23445d;strokeColor=#c0cdd7;fontColor=#cce5ff;glass=0;rounded=1;gradientColor=none;movable=0;resizable=0;rotatable=0;deletable=0;editable=0;locked=1;connectable=0;" vertex="1" parent="1">
          <mxGeometry x="1158.5" y="1957.19" width="35" height="35.12" as="geometry" />
        </mxCell>
        <mxCell id="oiw9RieTrFUaGt8_zSmy-218" style="edgeStyle=orthogonalEdgeStyle;rounded=0;orthogonalLoop=1;jettySize=auto;html=1;movable=0;resizable=0;rotatable=0;deletable=0;editable=0;locked=1;connectable=0;" edge="1" parent="1" source="oiw9RieTrFUaGt8_zSmy-219">
          <mxGeometry relative="1" as="geometry">
            <mxPoint x="1238.5" y="1540" as="targetPoint" />
          </mxGeometry>
        </mxCell>
        <mxCell id="oiw9RieTrFUaGt8_zSmy-219" value="A" style="ellipse;whiteSpace=wrap;html=1;fillColor=#23445d;strokeColor=#c0cdd7;fontColor=#cce5ff;glass=0;rounded=1;gradientColor=none;movable=0;resizable=0;rotatable=0;deletable=0;editable=0;locked=1;connectable=0;" vertex="1" parent="1">
          <mxGeometry x="1221" y="1463.63" width="35" height="35.12" as="geometry" />
        </mxCell>
        <mxCell id="oiw9RieTrFUaGt8_zSmy-220" value="C" style="ellipse;whiteSpace=wrap;html=1;fillColor=#23445d;strokeColor=#c0cdd7;fontColor=#cce5ff;glass=0;rounded=1;gradientColor=none;movable=0;resizable=0;rotatable=0;deletable=0;editable=0;locked=1;connectable=0;" vertex="1" parent="1">
          <mxGeometry x="515.5" y="1977.44" width="35" height="35.12" as="geometry" />
        </mxCell>
        <mxCell id="oiw9RieTrFUaGt8_zSmy-221" value="" style="edgeStyle=orthogonalEdgeStyle;rounded=0;orthogonalLoop=1;jettySize=auto;html=1;movable=0;resizable=0;rotatable=0;deletable=0;editable=0;locked=1;connectable=0;" edge="1" parent="1" source="oiw9RieTrFUaGt8_zSmy-222" target="oiw9RieTrFUaGt8_zSmy-164">
          <mxGeometry relative="1" as="geometry" />
        </mxCell>
        <mxCell id="oiw9RieTrFUaGt8_zSmy-222" value="C" style="ellipse;whiteSpace=wrap;html=1;fillColor=#23445d;strokeColor=#c0cdd7;fontColor=#cce5ff;glass=0;rounded=1;gradientColor=none;movable=0;resizable=0;rotatable=0;deletable=0;editable=0;locked=1;connectable=0;" vertex="1" parent="1">
          <mxGeometry x="656.5" y="1475.94" width="35" height="35.12" as="geometry" />
        </mxCell>
        <mxCell id="oiw9RieTrFUaGt8_zSmy-223" value="" style="edgeStyle=orthogonalEdgeStyle;rounded=0;orthogonalLoop=1;jettySize=auto;html=1;movable=0;resizable=0;rotatable=0;deletable=0;editable=0;locked=1;connectable=0;" edge="1" parent="1" source="oiw9RieTrFUaGt8_zSmy-224" target="oiw9RieTrFUaGt8_zSmy-211">
          <mxGeometry relative="1" as="geometry" />
        </mxCell>
        <mxCell id="oiw9RieTrFUaGt8_zSmy-224" value="&lt;font color=&quot;#cce5ff&quot; style=&quot;font-size: 10px;&quot;&gt;&lt;b&gt;PRINT&amp;nbsp;&lt;/b&gt;&lt;/font&gt;&lt;b style=&quot;font-size: 10px; color: rgb(204, 229, 255); background-color: initial;&quot;&gt;DIAGNOSE RESULT&amp;nbsp; AND REQUEST&lt;/b&gt;&lt;div&gt;&lt;div&gt;&lt;font style=&quot;font-size: 8px;&quot;&gt;&lt;font color=&quot;#cce5ff&quot; style=&quot;&quot;&gt;&lt;b style=&quot;&quot;&gt;(MEDS &amp;amp; SUPPLY, EXAMINATION AND OTHER SERVICES&lt;/b&gt;&lt;/font&gt;&lt;b style=&quot;color: rgb(204, 229, 255); background-color: initial;&quot;&gt;)&lt;/b&gt;&lt;/font&gt;&lt;/div&gt;&lt;/div&gt;" style="shape=parallelogram;perimeter=parallelogramPerimeter;whiteSpace=wrap;html=1;fixedSize=1;fillColor=#23445D;strokeColor=#23445D;rounded=1;strokeWidth=2;gradientColor=none;movable=0;resizable=0;rotatable=0;deletable=0;editable=0;locked=1;connectable=0;" vertex="1" parent="1">
          <mxGeometry x="1532.5" y="2050" width="270" height="38.75" as="geometry" />
        </mxCell>
        <mxCell id="oiw9RieTrFUaGt8_zSmy-225" style="edgeStyle=orthogonalEdgeStyle;rounded=0;orthogonalLoop=1;jettySize=auto;html=1;entryX=0.5;entryY=0;entryDx=0;entryDy=0;movable=0;resizable=0;rotatable=0;deletable=0;editable=0;locked=1;connectable=0;" edge="1" parent="1" source="oiw9RieTrFUaGt8_zSmy-226" target="oiw9RieTrFUaGt8_zSmy-215">
          <mxGeometry relative="1" as="geometry" />
        </mxCell>
        <mxCell id="oiw9RieTrFUaGt8_zSmy-226" value="&lt;font color=&quot;#cce5ff&quot;&gt;&lt;span style=&quot;font-size: 10px;&quot;&gt;&lt;b&gt;CLEARANCE&lt;/b&gt;&lt;/span&gt;&lt;/font&gt;" style="whiteSpace=wrap;html=1;fillColor=#23445D;strokeColor=#23445D;rounded=1;strokeWidth=2;gradientColor=none;movable=0;resizable=0;rotatable=0;deletable=0;editable=0;locked=1;connectable=0;" vertex="1" parent="1">
          <mxGeometry x="1900.01" y="1525.31" width="132.5" height="44" as="geometry" />
        </mxCell>
        <mxCell id="oiw9RieTrFUaGt8_zSmy-227" value="B" style="ellipse;whiteSpace=wrap;html=1;fillColor=#23445d;strokeColor=#c0cdd7;fontColor=#cce5ff;glass=0;rounded=1;gradientColor=none;movable=0;resizable=0;rotatable=0;deletable=0;editable=0;locked=1;connectable=0;" vertex="1" parent="1">
          <mxGeometry x="1917.5" y="2028.13" width="35" height="35.12" as="geometry" />
        </mxCell>
        <mxCell id="oiw9RieTrFUaGt8_zSmy-228" value="" style="edgeStyle=orthogonalEdgeStyle;rounded=0;orthogonalLoop=1;jettySize=auto;html=1;movable=0;resizable=0;rotatable=0;deletable=0;editable=0;locked=1;connectable=0;" edge="1" parent="1" source="oiw9RieTrFUaGt8_zSmy-229" target="oiw9RieTrFUaGt8_zSmy-226">
          <mxGeometry relative="1" as="geometry" />
        </mxCell>
        <mxCell id="oiw9RieTrFUaGt8_zSmy-229" value="B" style="ellipse;whiteSpace=wrap;html=1;fillColor=#23445d;strokeColor=#c0cdd7;fontColor=#cce5ff;glass=0;rounded=1;gradientColor=none;movable=0;resizable=0;rotatable=0;deletable=0;editable=0;locked=1;connectable=0;" vertex="1" parent="1">
          <mxGeometry x="1948.76" y="1467.1899999999998" width="35" height="35.12" as="geometry" />
        </mxCell>
        <mxCell id="oiw9RieTrFUaGt8_zSmy-230" value="B" style="ellipse;whiteSpace=wrap;html=1;fillColor=#23445d;strokeColor=#c0cdd7;fontColor=#cce5ff;glass=0;rounded=1;gradientColor=none;movable=0;resizable=0;rotatable=0;deletable=0;editable=0;locked=1;connectable=0;" vertex="1" parent="1">
          <mxGeometry x="249.33000000000007" y="2237.44" width="35" height="35.12" as="geometry" />
        </mxCell>
        <mxCell id="oiw9RieTrFUaGt8_zSmy-231" style="edgeStyle=orthogonalEdgeStyle;rounded=0;orthogonalLoop=1;jettySize=auto;html=1;movable=0;resizable=0;rotatable=0;deletable=0;editable=0;locked=1;connectable=0;entryX=0;entryY=0.5;entryDx=0;entryDy=0;exitX=1;exitY=0.5;exitDx=0;exitDy=0;" edge="1" parent="1" source="oiw9RieTrFUaGt8_zSmy-80" target="oiw9RieTrFUaGt8_zSmy-233">
          <mxGeometry relative="1" as="geometry">
            <mxPoint x="242" y="2444" as="targetPoint" />
            <mxPoint x="205" y="2444" as="sourcePoint" />
            <Array as="points" />
          </mxGeometry>
        </mxCell>
        <mxCell id="oiw9RieTrFUaGt8_zSmy-232" value="NO" style="edgeLabel;html=1;align=center;verticalAlign=middle;resizable=0;points=[];movable=0;rotatable=0;deletable=0;editable=0;locked=1;connectable=0;" vertex="1" connectable="0" parent="oiw9RieTrFUaGt8_zSmy-231">
          <mxGeometry x="-0.6767" relative="1" as="geometry">
            <mxPoint x="7" as="offset" />
          </mxGeometry>
        </mxCell>
        <mxCell id="oiw9RieTrFUaGt8_zSmy-233" value="B" style="ellipse;whiteSpace=wrap;html=1;fillColor=#23445d;strokeColor=#c0cdd7;fontColor=#cce5ff;glass=0;rounded=1;gradientColor=none;movable=0;resizable=0;rotatable=0;deletable=0;editable=0;locked=1;connectable=0;" vertex="1" parent="1">
          <mxGeometry x="251.50000000000009" y="2426.44" width="35" height="35.12" as="geometry" />
        </mxCell>
        <mxCell id="oiw9RieTrFUaGt8_zSmy-234" style="edgeStyle=orthogonalEdgeStyle;rounded=0;orthogonalLoop=1;jettySize=auto;html=1;movable=0;resizable=0;rotatable=0;deletable=0;editable=0;locked=1;connectable=0;entryX=0;entryY=0.5;entryDx=0;entryDy=0;exitX=0.959;exitY=0.499;exitDx=0;exitDy=0;exitPerimeter=0;" edge="1" parent="1" target="oiw9RieTrFUaGt8_zSmy-236">
          <mxGeometry relative="1" as="geometry">
            <mxPoint x="245" y="2645" as="targetPoint" />
            <mxPoint x="208" y="2645" as="sourcePoint" />
            <Array as="points" />
          </mxGeometry>
        </mxCell>
        <mxCell id="oiw9RieTrFUaGt8_zSmy-235" value="NO" style="edgeLabel;html=1;align=center;verticalAlign=middle;resizable=0;points=[];movable=0;rotatable=0;deletable=0;editable=0;locked=1;connectable=0;" vertex="1" connectable="0" parent="oiw9RieTrFUaGt8_zSmy-234">
          <mxGeometry x="-0.6767" relative="1" as="geometry">
            <mxPoint x="7" as="offset" />
          </mxGeometry>
        </mxCell>
        <mxCell id="oiw9RieTrFUaGt8_zSmy-236" value="B" style="ellipse;whiteSpace=wrap;html=1;fillColor=#23445d;strokeColor=#c0cdd7;fontColor=#cce5ff;glass=0;rounded=1;gradientColor=none;movable=0;resizable=0;rotatable=0;deletable=0;editable=0;locked=1;connectable=0;" vertex="1" parent="1">
          <mxGeometry x="252.3300000000001" y="2627.44" width="35" height="35.12" as="geometry" />
        </mxCell>
        <mxCell id="oiw9RieTrFUaGt8_zSmy-237" style="edgeStyle=orthogonalEdgeStyle;rounded=0;orthogonalLoop=1;jettySize=auto;html=1;movable=0;resizable=0;rotatable=0;deletable=0;editable=0;locked=1;connectable=0;entryX=0;entryY=0.5;entryDx=0;entryDy=0;exitX=0.967;exitY=0.5;exitDx=0;exitDy=0;exitPerimeter=0;" edge="1" parent="1" target="oiw9RieTrFUaGt8_zSmy-239">
          <mxGeometry relative="1" as="geometry">
            <mxPoint x="239.67000000000002" y="2864" as="targetPoint" />
            <mxPoint x="202.67000000000002" y="2864" as="sourcePoint" />
            <Array as="points" />
          </mxGeometry>
        </mxCell>
        <mxCell id="oiw9RieTrFUaGt8_zSmy-238" value="NO" style="edgeLabel;html=1;align=center;verticalAlign=middle;resizable=0;points=[];movable=0;rotatable=0;deletable=0;editable=0;locked=1;connectable=0;" vertex="1" connectable="0" parent="oiw9RieTrFUaGt8_zSmy-237">
          <mxGeometry x="-0.6767" relative="1" as="geometry">
            <mxPoint x="7" as="offset" />
          </mxGeometry>
        </mxCell>
        <mxCell id="oiw9RieTrFUaGt8_zSmy-239" value="B" style="ellipse;whiteSpace=wrap;html=1;fillColor=#23445d;strokeColor=#c0cdd7;fontColor=#cce5ff;glass=0;rounded=1;gradientColor=none;movable=0;resizable=0;rotatable=0;deletable=0;editable=0;locked=1;connectable=0;" vertex="1" parent="1">
          <mxGeometry x="252.3400000000001" y="2846.44" width="35" height="35.12" as="geometry" />
        </mxCell>
        <mxCell id="oiw9RieTrFUaGt8_zSmy-240" value="MEDICAL&lt;div&gt;RECORDS&lt;/div&gt;" style="strokeColor=#BAC8D3;fillColor=#23445D;fontSize=24;strokeWidth=2;horizontal=0;fontFamily=Helvetica;html=1;fontColor=#FFFFFF;fontStyle=0;movable=0;resizable=0;rotatable=0;deletable=0;editable=0;locked=1;connectable=0;" vertex="1" parent="1">
          <mxGeometry x="22.67" y="3210" width="86" height="200" as="geometry" />
        </mxCell>
        <mxCell id="oiw9RieTrFUaGt8_zSmy-241" value="" style="strokeColor=default;fillColor=#BAC8D3;fontSize=18;strokeWidth=2;fontFamily=Helvetica;html=1;opacity=60;movable=0;resizable=0;rotatable=0;deletable=0;editable=0;locked=1;connectable=0;" vertex="1" parent="1">
          <mxGeometry x="108.67" y="3210" width="1951.33" height="200.5" as="geometry" />
        </mxCell>
        <mxCell id="oiw9RieTrFUaGt8_zSmy-242" value="" style="strokeColor=default;fillColor=#BAC8D3;fontSize=18;strokeWidth=2;fontFamily=Helvetica;html=1;opacity=90;movable=0;resizable=0;rotatable=0;deletable=0;editable=0;locked=1;connectable=0;" vertex="1" parent="1">
          <mxGeometry x="110" y="3411.5" width="1950" height="599.5" as="geometry" />
        </mxCell>
        <mxCell id="oiw9RieTrFUaGt8_zSmy-243" value="BILLING" style="strokeColor=#BAC8D3;fillColor=#23445D;fontSize=24;strokeWidth=2;horizontal=0;fontFamily=Helvetica;html=1;fontColor=#FFFFFF;fontStyle=0;movable=0;resizable=0;rotatable=0;deletable=0;editable=0;locked=1;connectable=0;" vertex="1" parent="1">
          <mxGeometry x="23.84" y="3410.5" width="86" height="599.5" as="geometry" />
        </mxCell>
        <mxCell id="oiw9RieTrFUaGt8_zSmy-244" value="" style="strokeColor=default;fillColor=#BAC8D3;fontSize=18;strokeWidth=2;fontFamily=Helvetica;html=1;opacity=90;movable=0;resizable=0;rotatable=0;deletable=0;editable=0;locked=1;connectable=0;" vertex="1" parent="1">
          <mxGeometry x="109.17" y="4010" width="650" height="199.5" as="geometry" />
        </mxCell>
        <mxCell id="oiw9RieTrFUaGt8_zSmy-245" value="PHILHEALTH" style="strokeColor=#BAC8D3;fillColor=#23445D;fontSize=24;strokeWidth=2;horizontal=0;fontFamily=Helvetica;html=1;fontColor=#FFFFFF;fontStyle=0;movable=0;resizable=0;rotatable=0;deletable=0;editable=0;locked=1;connectable=0;" vertex="1" parent="1">
          <mxGeometry x="23.840000000000003" y="4010" width="86" height="200" as="geometry" />
        </mxCell>
        <mxCell id="oiw9RieTrFUaGt8_zSmy-246" value="" style="strokeColor=default;fillColor=#BAC8D3;fontSize=18;strokeWidth=2;fontFamily=Helvetica;html=1;opacity=90;movable=0;resizable=0;rotatable=0;deletable=0;editable=0;locked=1;connectable=0;" vertex="1" parent="1">
          <mxGeometry x="761.17" y="4011" width="650" height="199.5" as="geometry" />
        </mxCell>
        <mxCell id="oiw9RieTrFUaGt8_zSmy-247" value="" style="strokeColor=default;fillColor=#BAC8D3;fontSize=18;strokeWidth=2;fontFamily=Helvetica;html=1;opacity=90;movable=0;resizable=0;rotatable=0;deletable=0;editable=0;locked=1;connectable=0;" vertex="1" parent="1">
          <mxGeometry x="1411.17" y="4011" width="650" height="199.5" as="geometry" />
        </mxCell>
        <mxCell id="oiw9RieTrFUaGt8_zSmy-248" value="" style="edgeStyle=orthogonalEdgeStyle;rounded=0;orthogonalLoop=1;jettySize=auto;html=1;movable=0;resizable=0;rotatable=0;deletable=0;editable=0;locked=1;connectable=0;" edge="1" parent="1" source="oiw9RieTrFUaGt8_zSmy-249" target="oiw9RieTrFUaGt8_zSmy-299">
          <mxGeometry relative="1" as="geometry" />
        </mxCell>
        <mxCell id="oiw9RieTrFUaGt8_zSmy-249" value="&lt;b&gt;BILLING&lt;/b&gt;" style="shape=process;whiteSpace=wrap;html=1;backgroundOutline=1;glass=0;rounded=1;strokeColor=#c0cdd7;fillColor=#23445d;gradientColor=none;fontColor=#cce5ff;movable=0;resizable=0;rotatable=0;deletable=0;editable=0;locked=1;connectable=0;" vertex="1" parent="1">
          <mxGeometry x="448" y="1738" width="100" height="35" as="geometry" />
        </mxCell>
        <mxCell id="oiw9RieTrFUaGt8_zSmy-250" value="" style="edgeStyle=orthogonalEdgeStyle;rounded=0;orthogonalLoop=1;jettySize=auto;html=1;movable=0;resizable=0;rotatable=0;deletable=0;editable=0;locked=1;connectable=0;" edge="1" parent="1" source="oiw9RieTrFUaGt8_zSmy-251" target="oiw9RieTrFUaGt8_zSmy-306">
          <mxGeometry relative="1" as="geometry" />
        </mxCell>
        <mxCell id="oiw9RieTrFUaGt8_zSmy-251" value="&lt;font color=&quot;#cce5ff&quot;&gt;&lt;span style=&quot;font-size: 10px;&quot;&gt;&lt;b&gt;REQUEST | CHARGE&lt;/b&gt;&lt;/span&gt;&lt;/font&gt;&lt;div&gt;&lt;font style=&quot;background-color: initial; font-size: 8px;&quot; color=&quot;#cce5ff&quot;&gt;&lt;b&gt;(MEDS &amp;amp; SUPPLY, EXAMINATION AND OTHER SERVICES&lt;/b&gt;&lt;/font&gt;&lt;b style=&quot;background-color: initial; font-size: 8px; color: rgb(204, 229, 255);&quot;&gt;)&lt;/b&gt;&lt;/div&gt;" style="whiteSpace=wrap;html=1;fillColor=#23445D;strokeColor=#23445D;rounded=1;strokeWidth=2;gradientColor=none;movable=0;resizable=0;rotatable=0;deletable=0;editable=0;locked=1;connectable=0;" vertex="1" parent="1">
          <mxGeometry x="428" y="1531.38" width="140" height="50.62" as="geometry" />
        </mxCell>
        <mxCell id="oiw9RieTrFUaGt8_zSmy-252" value="" style="edgeStyle=orthogonalEdgeStyle;rounded=0;orthogonalLoop=1;jettySize=auto;html=1;movable=0;resizable=0;rotatable=0;deletable=0;editable=0;locked=1;connectable=0;" edge="1" parent="1" source="oiw9RieTrFUaGt8_zSmy-253" target="oiw9RieTrFUaGt8_zSmy-251">
          <mxGeometry relative="1" as="geometry" />
        </mxCell>
        <mxCell id="oiw9RieTrFUaGt8_zSmy-253" value="B" style="ellipse;whiteSpace=wrap;html=1;fillColor=#23445d;strokeColor=#c0cdd7;fontColor=#cce5ff;glass=0;rounded=1;gradientColor=none;movable=0;resizable=0;rotatable=0;deletable=0;editable=0;locked=1;connectable=0;" vertex="1" parent="1">
          <mxGeometry x="480.5" y="1475.94" width="35" height="35.12" as="geometry" />
        </mxCell>
        <mxCell id="oiw9RieTrFUaGt8_zSmy-254" value="B" style="ellipse;whiteSpace=wrap;html=1;fillColor=#23445d;strokeColor=#c0cdd7;fontColor=#cce5ff;glass=0;rounded=1;gradientColor=none;movable=0;resizable=0;rotatable=0;deletable=0;editable=0;locked=1;connectable=0;" vertex="1" parent="1">
          <mxGeometry x="606" y="2074.13" width="35" height="35.12" as="geometry" />
        </mxCell>
        <mxCell id="oiw9RieTrFUaGt8_zSmy-255" value="" style="edgeStyle=orthogonalEdgeStyle;rounded=0;orthogonalLoop=1;jettySize=auto;html=1;movable=0;resizable=0;rotatable=0;deletable=0;editable=0;locked=1;connectable=0;entryX=0;entryY=0.5;entryDx=0;entryDy=0;exitX=1;exitY=0.5;exitDx=0;exitDy=0;" edge="1" parent="1" source="oiw9RieTrFUaGt8_zSmy-69" target="oiw9RieTrFUaGt8_zSmy-254">
          <mxGeometry relative="1" as="geometry">
            <mxPoint x="620.5" y="2084.5" as="targetPoint" />
            <mxPoint x="551" y="2085" as="sourcePoint" />
          </mxGeometry>
        </mxCell>
        <mxCell id="oiw9RieTrFUaGt8_zSmy-256" value="" style="edgeStyle=orthogonalEdgeStyle;rounded=0;orthogonalLoop=1;jettySize=auto;html=1;movable=0;resizable=0;rotatable=0;deletable=0;editable=0;locked=1;connectable=0;" edge="1" parent="1" source="oiw9RieTrFUaGt8_zSmy-257" target="oiw9RieTrFUaGt8_zSmy-288">
          <mxGeometry relative="1" as="geometry" />
        </mxCell>
        <mxCell id="oiw9RieTrFUaGt8_zSmy-257" value="&lt;b&gt;BILLING&lt;/b&gt;" style="shape=process;whiteSpace=wrap;html=1;backgroundOutline=1;glass=0;rounded=1;strokeColor=#c0cdd7;fillColor=#23445d;gradientColor=none;fontColor=#cce5ff;movable=0;resizable=0;rotatable=0;deletable=0;editable=0;locked=1;connectable=0;" vertex="1" parent="1">
          <mxGeometry x="360" y="2909" width="100" height="35" as="geometry" />
        </mxCell>
        <mxCell id="oiw9RieTrFUaGt8_zSmy-258" style="edgeStyle=orthogonalEdgeStyle;rounded=0;orthogonalLoop=1;jettySize=auto;html=1;movable=0;resizable=0;rotatable=0;deletable=0;editable=0;locked=1;connectable=0;entryX=0;entryY=0.5;entryDx=0;entryDy=0;" edge="1" parent="1" source="oiw9RieTrFUaGt8_zSmy-262" target="oiw9RieTrFUaGt8_zSmy-264">
          <mxGeometry relative="1" as="geometry">
            <mxPoint x="240.00000000000003" y="3459.5" as="targetPoint" />
          </mxGeometry>
        </mxCell>
        <mxCell id="oiw9RieTrFUaGt8_zSmy-259" value="NO" style="edgeLabel;html=1;align=center;verticalAlign=middle;resizable=0;points=[];movable=0;rotatable=0;deletable=0;editable=0;locked=1;connectable=0;" connectable="0" vertex="1" parent="oiw9RieTrFUaGt8_zSmy-258">
          <mxGeometry x="-0.7174" y="-1" relative="1" as="geometry">
            <mxPoint x="7" y="-2" as="offset" />
          </mxGeometry>
        </mxCell>
        <mxCell id="oiw9RieTrFUaGt8_zSmy-260" style="edgeStyle=orthogonalEdgeStyle;rounded=0;orthogonalLoop=1;jettySize=auto;html=1;movable=0;resizable=0;rotatable=0;deletable=0;editable=0;locked=1;connectable=0;entryX=0.5;entryY=0;entryDx=0;entryDy=0;" edge="1" parent="1" source="oiw9RieTrFUaGt8_zSmy-262" target="oiw9RieTrFUaGt8_zSmy-266">
          <mxGeometry relative="1" as="geometry">
            <mxPoint x="158.83000000000004" y="3527.6399999999994" as="targetPoint" />
          </mxGeometry>
        </mxCell>
        <mxCell id="oiw9RieTrFUaGt8_zSmy-261" value="YES" style="edgeLabel;html=1;align=center;verticalAlign=middle;resizable=0;points=[];movable=0;rotatable=0;deletable=0;editable=0;locked=1;connectable=0;" connectable="0" vertex="1" parent="oiw9RieTrFUaGt8_zSmy-260">
          <mxGeometry x="-0.6743" y="-1" relative="1" as="geometry">
            <mxPoint y="3" as="offset" />
          </mxGeometry>
        </mxCell>
        <mxCell id="oiw9RieTrFUaGt8_zSmy-262" value="&lt;font style=&quot;font-size: 10px;&quot; color=&quot;#cce5ff&quot;&gt;&lt;b style=&quot;&quot;&gt;IF&lt;/b&gt;&lt;/font&gt;&lt;div&gt;&lt;b style=&quot;color: rgb(204, 229, 255); background-color: initial;&quot;&gt;&lt;font style=&quot;font-size: 10px;&quot;&gt;QUEUED&lt;/font&gt;&lt;/b&gt;&lt;/div&gt;" style="rhombus;whiteSpace=wrap;html=1;fillColor=#23445D;strokeColor=#23445D;rounded=1;strokeWidth=2;gradientColor=none;movable=0;resizable=0;rotatable=0;deletable=0;editable=0;locked=1;connectable=0;" vertex="1" parent="1">
          <mxGeometry x="118.67000000000003" y="3424.5" width="80" height="70" as="geometry" />
        </mxCell>
        <mxCell id="oiw9RieTrFUaGt8_zSmy-263" value="B" style="ellipse;whiteSpace=wrap;html=1;fillColor=#23445d;strokeColor=#c0cdd7;fontColor=#cce5ff;glass=0;rounded=1;gradientColor=none;movable=0;resizable=0;rotatable=0;deletable=0;editable=0;locked=1;connectable=0;" vertex="1" parent="1">
          <mxGeometry x="252.00000000000009" y="3007.44" width="35" height="35.12" as="geometry" />
        </mxCell>
        <mxCell id="oiw9RieTrFUaGt8_zSmy-264" value="B" style="ellipse;whiteSpace=wrap;html=1;fillColor=#23445d;strokeColor=#c0cdd7;fontColor=#cce5ff;glass=0;rounded=1;gradientColor=none;movable=0;resizable=0;rotatable=0;deletable=0;editable=0;locked=1;connectable=0;" vertex="1" parent="1">
          <mxGeometry x="248.00000000000009" y="3441.94" width="35" height="35.12" as="geometry" />
        </mxCell>
        <mxCell id="oiw9RieTrFUaGt8_zSmy-265" value="" style="edgeStyle=orthogonalEdgeStyle;rounded=0;orthogonalLoop=1;jettySize=auto;html=1;movable=0;resizable=0;rotatable=0;deletable=0;editable=0;locked=1;connectable=0;" edge="1" parent="1" source="oiw9RieTrFUaGt8_zSmy-266" target="oiw9RieTrFUaGt8_zSmy-271">
          <mxGeometry relative="1" as="geometry" />
        </mxCell>
        <mxCell id="oiw9RieTrFUaGt8_zSmy-266" value="&lt;div&gt;&lt;font&gt;&lt;span style=&quot;font-size: 10px;&quot;&gt;&lt;b&gt;HOSPITAL PLAN&lt;/b&gt;&lt;/span&gt;&lt;/font&gt;&lt;/div&gt;" style="whiteSpace=wrap;html=1;fillColor=#23445D;strokeColor=#23445D;rounded=1;strokeWidth=2;gradientColor=none;movable=0;resizable=0;rotatable=0;deletable=0;editable=0;locked=1;connectable=0;fontColor=#CCE5FF;" vertex="1" parent="1">
          <mxGeometry x="115.17" y="3530" width="87" height="26.13" as="geometry" />
        </mxCell>
        <mxCell id="oiw9RieTrFUaGt8_zSmy-267" value="" style="edgeStyle=orthogonalEdgeStyle;rounded=0;orthogonalLoop=1;jettySize=auto;html=1;entryX=-0.031;entryY=0.52;entryDx=0;entryDy=0;entryPerimeter=0;movable=0;resizable=0;rotatable=0;deletable=0;editable=0;locked=1;connectable=0;" edge="1" parent="1" source="oiw9RieTrFUaGt8_zSmy-271" target="oiw9RieTrFUaGt8_zSmy-277">
          <mxGeometry relative="1" as="geometry">
            <mxPoint x="350" y="3550" as="targetPoint" />
          </mxGeometry>
        </mxCell>
        <mxCell id="oiw9RieTrFUaGt8_zSmy-268" value="YES" style="edgeLabel;html=1;align=center;verticalAlign=middle;resizable=0;points=[];movable=0;rotatable=0;deletable=0;editable=0;locked=1;connectable=0;" connectable="0" vertex="1" parent="oiw9RieTrFUaGt8_zSmy-267">
          <mxGeometry x="-0.4248" y="-1" relative="1" as="geometry">
            <mxPoint x="3" y="-1" as="offset" />
          </mxGeometry>
        </mxCell>
        <mxCell id="oiw9RieTrFUaGt8_zSmy-269" value="" style="edgeStyle=orthogonalEdgeStyle;rounded=0;orthogonalLoop=1;jettySize=auto;html=1;movable=0;resizable=0;rotatable=0;deletable=0;editable=0;locked=1;connectable=0;" edge="1" parent="1" source="oiw9RieTrFUaGt8_zSmy-271" target="oiw9RieTrFUaGt8_zSmy-276">
          <mxGeometry relative="1" as="geometry" />
        </mxCell>
        <mxCell id="oiw9RieTrFUaGt8_zSmy-270" value="NO" style="edgeLabel;html=1;align=center;verticalAlign=middle;resizable=0;points=[];movable=0;rotatable=0;deletable=0;editable=0;locked=1;connectable=0;" connectable="0" vertex="1" parent="oiw9RieTrFUaGt8_zSmy-269">
          <mxGeometry x="-0.7976" relative="1" as="geometry">
            <mxPoint x="-1" y="5" as="offset" />
          </mxGeometry>
        </mxCell>
        <mxCell id="oiw9RieTrFUaGt8_zSmy-271" value="&lt;div&gt;&lt;b style=&quot;font-size: 10px; color: rgb(204, 229, 255); background-color: initial;&quot;&gt;IS&lt;/b&gt;&lt;/div&gt;&lt;div&gt;&lt;b style=&quot;font-size: 10px; color: rgb(204, 229, 255); background-color: initial;&quot;&gt;PHILHEALTH&lt;/b&gt;&lt;br&gt;&lt;/div&gt;&lt;div&gt;&lt;b style=&quot;font-size: 10px; color: rgb(204, 229, 255); background-color: initial;&quot;&gt;?&lt;/b&gt;&lt;br&gt;&lt;/div&gt;" style="rhombus;whiteSpace=wrap;html=1;fillColor=#23445D;strokeColor=#23445D;rounded=1;strokeWidth=2;gradientColor=none;movable=0;resizable=0;rotatable=0;deletable=0;editable=0;locked=1;connectable=0;" vertex="1" parent="1">
          <mxGeometry x="225.5" y="3508.06" width="80" height="70" as="geometry" />
        </mxCell>
        <mxCell id="oiw9RieTrFUaGt8_zSmy-272" style="edgeStyle=orthogonalEdgeStyle;rounded=0;orthogonalLoop=1;jettySize=auto;html=1;movable=0;resizable=0;rotatable=0;deletable=0;editable=0;locked=1;connectable=0;" edge="1" parent="1">
          <mxGeometry relative="1" as="geometry">
            <mxPoint x="270" y="3600" as="targetPoint" />
            <mxPoint x="399.5" y="3556.13" as="sourcePoint" />
            <Array as="points">
              <mxPoint x="399" y="3600" />
            </Array>
          </mxGeometry>
        </mxCell>
        <mxCell id="oiw9RieTrFUaGt8_zSmy-273" value="" style="edgeStyle=orthogonalEdgeStyle;rounded=0;orthogonalLoop=1;jettySize=auto;html=1;movable=0;resizable=0;rotatable=0;deletable=0;editable=0;locked=1;connectable=0;entryX=0;entryY=0.5;entryDx=0;entryDy=0;" edge="1" parent="1" source="oiw9RieTrFUaGt8_zSmy-276" target="oiw9RieTrFUaGt8_zSmy-281">
          <mxGeometry relative="1" as="geometry">
            <mxPoint x="340" y="3670" as="targetPoint" />
          </mxGeometry>
        </mxCell>
        <mxCell id="oiw9RieTrFUaGt8_zSmy-274" value="YES" style="edgeLabel;html=1;align=center;verticalAlign=middle;resizable=0;points=[];movable=0;rotatable=0;deletable=0;editable=0;locked=1;connectable=0;" connectable="0" vertex="1" parent="oiw9RieTrFUaGt8_zSmy-273">
          <mxGeometry x="-0.5987" y="1" relative="1" as="geometry">
            <mxPoint x="4" y="1" as="offset" />
          </mxGeometry>
        </mxCell>
        <mxCell id="oiw9RieTrFUaGt8_zSmy-275" value="" style="edgeStyle=orthogonalEdgeStyle;rounded=0;orthogonalLoop=1;jettySize=auto;html=1;movable=0;resizable=0;rotatable=0;deletable=0;editable=0;locked=1;connectable=0;" edge="1" parent="1" source="oiw9RieTrFUaGt8_zSmy-276" target="oiw9RieTrFUaGt8_zSmy-317">
          <mxGeometry relative="1" as="geometry" />
        </mxCell>
        <mxCell id="oiw9RieTrFUaGt8_zSmy-276" value="&lt;div&gt;&lt;font color=&quot;#cce5ff&quot;&gt;&lt;span style=&quot;font-size: 10px;&quot;&gt;&lt;b&gt;IS&lt;/b&gt;&lt;/span&gt;&lt;/font&gt;&lt;/div&gt;&lt;font color=&quot;#cce5ff&quot;&gt;&lt;span style=&quot;font-size: 10px;&quot;&gt;&lt;b&gt;GUARANTOR&lt;/b&gt;&lt;/span&gt;&lt;/font&gt;&lt;div&gt;&lt;font color=&quot;#cce5ff&quot;&gt;&lt;span style=&quot;font-size: 10px;&quot;&gt;&lt;b&gt;?&lt;/b&gt;&lt;/span&gt;&lt;/font&gt;&lt;/div&gt;" style="rhombus;whiteSpace=wrap;html=1;fillColor=#23445D;strokeColor=#23445D;rounded=1;strokeWidth=2;gradientColor=none;movable=0;resizable=0;rotatable=0;deletable=0;editable=0;locked=1;connectable=0;" vertex="1" parent="1">
          <mxGeometry x="225.5" y="3620" width="80" height="70" as="geometry" />
        </mxCell>
        <mxCell id="oiw9RieTrFUaGt8_zSmy-277" value="&lt;span style=&quot;font-size: 10px;&quot;&gt;&lt;b&gt;ENCODE PHIC&lt;/b&gt;&lt;/span&gt;&lt;div&gt;&lt;span style=&quot;font-size: 10px;&quot;&gt;&lt;b&gt;INFORMATION&lt;/b&gt;&lt;/span&gt;&lt;/div&gt;" style="whiteSpace=wrap;html=1;fillColor=#23445D;strokeColor=#23445D;rounded=1;strokeWidth=2;gradientColor=none;movable=0;resizable=0;rotatable=0;deletable=0;editable=0;locked=1;connectable=0;fontColor=#CCE5FF;" vertex="1" parent="1">
          <mxGeometry x="355.5" y="3523.88" width="103" height="36.12" as="geometry" />
        </mxCell>
        <mxCell id="oiw9RieTrFUaGt8_zSmy-278" style="edgeStyle=orthogonalEdgeStyle;rounded=0;orthogonalLoop=1;jettySize=auto;html=1;movable=0;resizable=0;rotatable=0;deletable=0;editable=0;locked=1;connectable=0;" edge="1" parent="1" source="oiw9RieTrFUaGt8_zSmy-279">
          <mxGeometry relative="1" as="geometry">
            <mxPoint x="540" y="3720" as="targetPoint" />
            <Array as="points">
              <mxPoint x="674" y="3720" />
            </Array>
          </mxGeometry>
        </mxCell>
        <mxCell id="oiw9RieTrFUaGt8_zSmy-279" value="&lt;div&gt;&lt;font&gt;&lt;span style=&quot;font-size: 10px;&quot;&gt;&lt;b&gt;POST A/R&lt;/b&gt;&lt;/span&gt;&lt;/font&gt;&lt;/div&gt;" style="whiteSpace=wrap;html=1;fillColor=#23445D;strokeColor=#23445D;rounded=1;strokeWidth=2;gradientColor=none;movable=0;resizable=0;rotatable=0;deletable=0;editable=0;locked=1;connectable=0;fontColor=#CCE5FF;" vertex="1" parent="1">
          <mxGeometry x="622" y="3641.93" width="104" height="26.13" as="geometry" />
        </mxCell>
        <mxCell id="oiw9RieTrFUaGt8_zSmy-280" value="" style="edgeStyle=orthogonalEdgeStyle;rounded=0;orthogonalLoop=1;jettySize=auto;html=1;movable=0;resizable=0;rotatable=0;deletable=0;editable=0;locked=1;connectable=0;" edge="1" parent="1" source="oiw9RieTrFUaGt8_zSmy-281" target="oiw9RieTrFUaGt8_zSmy-286">
          <mxGeometry relative="1" as="geometry" />
        </mxCell>
        <mxCell id="oiw9RieTrFUaGt8_zSmy-281" value="&lt;b&gt;SOCIAL&lt;/b&gt;&lt;div&gt;&lt;b&gt;WELFARE&lt;/b&gt;&lt;/div&gt;" style="shape=process;whiteSpace=wrap;html=1;backgroundOutline=1;glass=0;rounded=1;strokeColor=#c0cdd7;fillColor=#23445d;gradientColor=none;fontColor=#cce5ff;movable=0;resizable=0;rotatable=0;deletable=0;editable=0;locked=1;connectable=0;" vertex="1" parent="1">
          <mxGeometry x="355" y="3633.74" width="104" height="42.5" as="geometry" />
        </mxCell>
        <mxCell id="oiw9RieTrFUaGt8_zSmy-282" value="" style="edgeStyle=orthogonalEdgeStyle;rounded=0;orthogonalLoop=1;jettySize=auto;html=1;movable=0;resizable=0;rotatable=0;deletable=0;editable=0;locked=1;connectable=0;" edge="1" parent="1" source="oiw9RieTrFUaGt8_zSmy-286" target="oiw9RieTrFUaGt8_zSmy-279">
          <mxGeometry relative="1" as="geometry" />
        </mxCell>
        <mxCell id="oiw9RieTrFUaGt8_zSmy-283" value="YES" style="edgeLabel;html=1;align=center;verticalAlign=middle;resizable=0;points=[];movable=0;rotatable=0;deletable=0;editable=0;locked=1;connectable=0;" connectable="0" vertex="1" parent="oiw9RieTrFUaGt8_zSmy-282">
          <mxGeometry x="-0.2305" relative="1" as="geometry">
            <mxPoint x="-2" as="offset" />
          </mxGeometry>
        </mxCell>
        <mxCell id="oiw9RieTrFUaGt8_zSmy-284" style="edgeStyle=orthogonalEdgeStyle;rounded=0;orthogonalLoop=1;jettySize=auto;html=1;movable=0;resizable=0;rotatable=0;deletable=0;editable=0;locked=1;connectable=0;" edge="1" parent="1" source="oiw9RieTrFUaGt8_zSmy-286">
          <mxGeometry relative="1" as="geometry">
            <mxPoint x="270" y="3720" as="targetPoint" />
            <Array as="points">
              <mxPoint x="533" y="3720" />
              <mxPoint x="270" y="3720" />
            </Array>
          </mxGeometry>
        </mxCell>
        <mxCell id="oiw9RieTrFUaGt8_zSmy-285" value="&lt;font style=&quot;font-size: 11px;&quot;&gt;NO&lt;/font&gt;" style="edgeLabel;html=1;align=center;verticalAlign=middle;resizable=0;points=[];opacity=90;strokeColor=default;strokeWidth=2;fontFamily=Helvetica;fontSize=11;fontColor=default;fillColor=#BAC8D3;movable=0;rotatable=0;deletable=0;editable=0;locked=1;connectable=0;" connectable="0" vertex="1" parent="oiw9RieTrFUaGt8_zSmy-284">
          <mxGeometry x="-0.9228" relative="1" as="geometry">
            <mxPoint as="offset" />
          </mxGeometry>
        </mxCell>
        <mxCell id="oiw9RieTrFUaGt8_zSmy-286" value="&lt;font color=&quot;#cce5ff&quot;&gt;&lt;span style=&quot;font-size: 10px;&quot;&gt;&lt;b&gt;IS&lt;/b&gt;&lt;/span&gt;&lt;/font&gt;&lt;div&gt;&lt;font color=&quot;#cce5ff&quot;&gt;&lt;span style=&quot;font-size: 10px;&quot;&gt;&lt;b&gt;ACCREDITED&lt;/b&gt;&lt;/span&gt;&lt;/font&gt;&lt;/div&gt;&lt;div&gt;&lt;font color=&quot;#cce5ff&quot;&gt;&lt;span style=&quot;font-size: 10px;&quot;&gt;&lt;b&gt;?&lt;/b&gt;&lt;/span&gt;&lt;/font&gt;&lt;/div&gt;" style="rhombus;whiteSpace=wrap;html=1;fillColor=#23445D;strokeColor=#23445D;rounded=1;strokeWidth=2;gradientColor=none;movable=0;resizable=0;rotatable=0;deletable=0;editable=0;locked=1;connectable=0;" vertex="1" parent="1">
          <mxGeometry x="493" y="3620" width="80" height="70" as="geometry" />
        </mxCell>
        <mxCell id="oiw9RieTrFUaGt8_zSmy-287" value="&lt;font style=&quot;font-size: 10px;&quot; color=&quot;#cce5ff&quot;&gt;&lt;b&gt;END&lt;/b&gt;&lt;/font&gt;" style="strokeWidth=2;html=1;shape=mxgraph.flowchart.terminator;whiteSpace=wrap;fillColor=#23445D;strokeColor=#23445D;movable=0;resizable=0;rotatable=0;deletable=0;editable=0;locked=1;connectable=0;" vertex="1" parent="1">
          <mxGeometry x="642" y="1700" width="64" height="32.81" as="geometry" />
        </mxCell>
        <mxCell id="oiw9RieTrFUaGt8_zSmy-288" value="&lt;font color=&quot;#cce5ff&quot;&gt;&lt;span style=&quot;font-size: 10px;&quot;&gt;&lt;b&gt;END&lt;/b&gt;&lt;/span&gt;&lt;/font&gt;" style="strokeWidth=2;html=1;shape=mxgraph.flowchart.terminator;whiteSpace=wrap;fillColor=#23445D;strokeColor=#23445D;movable=0;resizable=0;rotatable=0;deletable=0;editable=0;locked=1;connectable=0;" vertex="1" parent="1">
          <mxGeometry x="493" y="2906.5" width="80" height="40" as="geometry" />
        </mxCell>
        <mxCell id="oiw9RieTrFUaGt8_zSmy-289" value="" style="edgeStyle=orthogonalEdgeStyle;rounded=0;orthogonalLoop=1;jettySize=auto;html=1;movable=0;resizable=0;rotatable=0;deletable=0;editable=0;locked=1;connectable=0;" edge="1" parent="1" source="oiw9RieTrFUaGt8_zSmy-290" target="oiw9RieTrFUaGt8_zSmy-291">
          <mxGeometry relative="1" as="geometry" />
        </mxCell>
        <mxCell id="oiw9RieTrFUaGt8_zSmy-290" value="&lt;font color=&quot;#cce5ff&quot; style=&quot;font-size: 10px;&quot;&gt;&lt;b&gt;PRINT RESULT&lt;/b&gt;&lt;/font&gt;" style="shape=parallelogram;perimeter=parallelogramPerimeter;whiteSpace=wrap;html=1;fixedSize=1;fillColor=#23445D;strokeColor=#23445D;rounded=1;strokeWidth=2;gradientColor=none;movable=0;resizable=0;rotatable=0;deletable=0;editable=0;locked=1;connectable=0;" vertex="1" parent="1">
          <mxGeometry x="360" y="2323.69" width="122.33" height="27.63" as="geometry" />
        </mxCell>
        <mxCell id="oiw9RieTrFUaGt8_zSmy-291" value="&lt;font color=&quot;#cce5ff&quot;&gt;&lt;span style=&quot;font-size: 10px;&quot;&gt;&lt;b&gt;END&lt;/b&gt;&lt;/span&gt;&lt;/font&gt;" style="strokeWidth=2;html=1;shape=mxgraph.flowchart.terminator;whiteSpace=wrap;fillColor=#23445D;strokeColor=#23445D;movable=0;resizable=0;rotatable=0;deletable=0;editable=0;locked=1;connectable=0;" vertex="1" parent="1">
          <mxGeometry x="503" y="2317.5" width="80" height="40" as="geometry" />
        </mxCell>
        <mxCell id="oiw9RieTrFUaGt8_zSmy-292" value="" style="edgeStyle=orthogonalEdgeStyle;rounded=0;orthogonalLoop=1;jettySize=auto;html=1;movable=0;resizable=0;rotatable=0;deletable=0;editable=0;locked=1;connectable=0;" edge="1" parent="1" source="oiw9RieTrFUaGt8_zSmy-293" target="oiw9RieTrFUaGt8_zSmy-294">
          <mxGeometry relative="1" as="geometry" />
        </mxCell>
        <mxCell id="oiw9RieTrFUaGt8_zSmy-293" value="&lt;font color=&quot;#cce5ff&quot; style=&quot;font-size: 10px;&quot;&gt;&lt;b&gt;PRINT RESULT&lt;/b&gt;&lt;/font&gt;" style="shape=parallelogram;perimeter=parallelogramPerimeter;whiteSpace=wrap;html=1;fixedSize=1;fillColor=#23445D;strokeColor=#23445D;rounded=1;strokeWidth=2;gradientColor=none;movable=0;resizable=0;rotatable=0;deletable=0;editable=0;locked=1;connectable=0;" vertex="1" parent="1">
          <mxGeometry x="360" y="2493.69" width="122.33" height="27.63" as="geometry" />
        </mxCell>
        <mxCell id="oiw9RieTrFUaGt8_zSmy-294" value="&lt;font color=&quot;#cce5ff&quot;&gt;&lt;span style=&quot;font-size: 10px;&quot;&gt;&lt;b&gt;END&lt;/b&gt;&lt;/span&gt;&lt;/font&gt;" style="strokeWidth=2;html=1;shape=mxgraph.flowchart.terminator;whiteSpace=wrap;fillColor=#23445D;strokeColor=#23445D;movable=0;resizable=0;rotatable=0;deletable=0;editable=0;locked=1;connectable=0;" vertex="1" parent="1">
          <mxGeometry x="506.67" y="2487.5" width="80" height="40" as="geometry" />
        </mxCell>
        <mxCell id="oiw9RieTrFUaGt8_zSmy-295" value="" style="edgeStyle=orthogonalEdgeStyle;rounded=0;orthogonalLoop=1;jettySize=auto;html=1;movable=0;resizable=0;rotatable=0;deletable=0;editable=0;locked=1;connectable=0;" edge="1" parent="1" source="oiw9RieTrFUaGt8_zSmy-296" target="oiw9RieTrFUaGt8_zSmy-297">
          <mxGeometry relative="1" as="geometry" />
        </mxCell>
        <mxCell id="oiw9RieTrFUaGt8_zSmy-296" value="&lt;font color=&quot;#cce5ff&quot; style=&quot;font-size: 10px;&quot;&gt;&lt;b&gt;PRINT RESULT&lt;/b&gt;&lt;/font&gt;" style="shape=parallelogram;perimeter=parallelogramPerimeter;whiteSpace=wrap;html=1;fixedSize=1;fillColor=#23445D;strokeColor=#23445D;rounded=1;strokeWidth=2;gradientColor=none;movable=0;resizable=0;rotatable=0;deletable=0;editable=0;locked=1;connectable=0;" vertex="1" parent="1">
          <mxGeometry x="357.34" y="2706.19" width="122.33" height="27.63" as="geometry" />
        </mxCell>
        <mxCell id="oiw9RieTrFUaGt8_zSmy-297" value="&lt;font color=&quot;#cce5ff&quot;&gt;&lt;span style=&quot;font-size: 10px;&quot;&gt;&lt;b&gt;END&lt;/b&gt;&lt;/span&gt;&lt;/font&gt;" style="strokeWidth=2;html=1;shape=mxgraph.flowchart.terminator;whiteSpace=wrap;fillColor=#23445D;strokeColor=#23445D;movable=0;resizable=0;rotatable=0;deletable=0;editable=0;locked=1;connectable=0;" vertex="1" parent="1">
          <mxGeometry x="504.01" y="2700" width="80" height="40" as="geometry" />
        </mxCell>
        <mxCell id="oiw9RieTrFUaGt8_zSmy-298" value="" style="edgeStyle=orthogonalEdgeStyle;rounded=0;orthogonalLoop=1;jettySize=auto;html=1;movable=0;resizable=0;rotatable=0;deletable=0;editable=0;locked=1;connectable=0;" edge="1" parent="1" source="oiw9RieTrFUaGt8_zSmy-299">
          <mxGeometry relative="1" as="geometry">
            <mxPoint x="670" y="1680" as="targetPoint" />
            <Array as="points">
              <mxPoint x="610" y="1825" />
              <mxPoint x="610" y="1680" />
              <mxPoint x="670" y="1680" />
            </Array>
          </mxGeometry>
        </mxCell>
        <mxCell id="oiw9RieTrFUaGt8_zSmy-299" value="&lt;font color=&quot;#cce5ff&quot;&gt;&lt;span style=&quot;font-size: 10px;&quot;&gt;&lt;b&gt;CLEARANCE&lt;/b&gt;&lt;/span&gt;&lt;/font&gt;&lt;div&gt;&lt;font color=&quot;#cce5ff&quot;&gt;&lt;span style=&quot;font-size: 10px;&quot;&gt;&lt;b&gt;/ DISCHARGE&lt;/b&gt;&lt;/span&gt;&lt;/font&gt;&lt;/div&gt;" style="whiteSpace=wrap;html=1;fillColor=#23445D;strokeColor=#23445D;rounded=1;strokeWidth=2;gradientColor=none;movable=0;resizable=0;rotatable=0;deletable=0;editable=0;locked=1;connectable=0;" vertex="1" parent="1">
          <mxGeometry x="443" y="1810" width="110" height="29.75" as="geometry" />
        </mxCell>
        <mxCell id="oiw9RieTrFUaGt8_zSmy-300" style="edgeStyle=orthogonalEdgeStyle;rounded=0;orthogonalLoop=1;jettySize=auto;html=1;movable=0;resizable=0;rotatable=0;deletable=0;editable=0;locked=1;connectable=0;" edge="1" parent="1" source="oiw9RieTrFUaGt8_zSmy-301">
          <mxGeometry relative="1" as="geometry">
            <mxPoint x="495.0000000000001" y="1786.69" as="targetPoint" />
          </mxGeometry>
        </mxCell>
        <mxCell id="oiw9RieTrFUaGt8_zSmy-301" value="D" style="ellipse;whiteSpace=wrap;html=1;fillColor=#23445d;strokeColor=#c0cdd7;fontColor=#cce5ff;glass=0;rounded=1;gradientColor=none;movable=0;resizable=0;rotatable=0;deletable=0;editable=0;locked=1;connectable=0;" vertex="1" parent="1">
          <mxGeometry x="400.83" y="1769.13" width="35" height="35.12" as="geometry" />
        </mxCell>
        <mxCell id="oiw9RieTrFUaGt8_zSmy-302" style="edgeStyle=orthogonalEdgeStyle;rounded=0;orthogonalLoop=1;jettySize=auto;html=1;entryX=0.5;entryY=0;entryDx=0;entryDy=0;movable=0;resizable=0;rotatable=0;deletable=0;editable=0;locked=1;connectable=0;" edge="1" parent="1" source="oiw9RieTrFUaGt8_zSmy-306" target="oiw9RieTrFUaGt8_zSmy-249">
          <mxGeometry relative="1" as="geometry" />
        </mxCell>
        <mxCell id="oiw9RieTrFUaGt8_zSmy-303" value="YES" style="edgeLabel;html=1;align=center;verticalAlign=middle;resizable=0;points=[];movable=0;rotatable=0;deletable=0;editable=0;locked=1;connectable=0;" connectable="0" vertex="1" parent="oiw9RieTrFUaGt8_zSmy-302">
          <mxGeometry x="-0.5906" y="-1" relative="1" as="geometry">
            <mxPoint as="offset" />
          </mxGeometry>
        </mxCell>
        <mxCell id="oiw9RieTrFUaGt8_zSmy-304" value="" style="edgeStyle=orthogonalEdgeStyle;rounded=0;orthogonalLoop=1;jettySize=auto;html=1;movable=0;resizable=0;rotatable=0;deletable=0;editable=0;locked=1;connectable=0;" edge="1" parent="1" source="oiw9RieTrFUaGt8_zSmy-306" target="oiw9RieTrFUaGt8_zSmy-307">
          <mxGeometry relative="1" as="geometry" />
        </mxCell>
        <mxCell id="oiw9RieTrFUaGt8_zSmy-305" value="NO" style="edgeLabel;html=1;align=center;verticalAlign=middle;resizable=0;points=[];movable=0;rotatable=0;deletable=0;editable=0;locked=1;connectable=0;" connectable="0" vertex="1" parent="oiw9RieTrFUaGt8_zSmy-304">
          <mxGeometry x="-0.507" y="2" relative="1" as="geometry">
            <mxPoint x="3" y="2" as="offset" />
          </mxGeometry>
        </mxCell>
        <mxCell id="oiw9RieTrFUaGt8_zSmy-306" value="&lt;font color=&quot;#cce5ff&quot;&gt;&lt;span style=&quot;font-size: 10px;&quot;&gt;&lt;b&gt;FOR&lt;/b&gt;&lt;/span&gt;&lt;/font&gt;&lt;div&gt;&lt;font color=&quot;#cce5ff&quot;&gt;&lt;span style=&quot;font-size: 10px;&quot;&gt;&lt;b&gt;BILL/ DISCHARGE&lt;/b&gt;&lt;/span&gt;&lt;/font&gt;&lt;/div&gt;&lt;div&gt;&lt;font color=&quot;#cce5ff&quot;&gt;&lt;span style=&quot;font-size: 10px;&quot;&gt;&lt;b&gt;?&lt;/b&gt;&lt;/span&gt;&lt;/font&gt;&lt;/div&gt;" style="rhombus;whiteSpace=wrap;html=1;fillColor=#23445D;strokeColor=#23445D;rounded=1;strokeWidth=2;gradientColor=none;movable=0;resizable=0;rotatable=0;deletable=0;editable=0;locked=1;connectable=0;" vertex="1" parent="1">
          <mxGeometry x="447.99999999999994" y="1610" width="100" height="90" as="geometry" />
        </mxCell>
        <mxCell id="oiw9RieTrFUaGt8_zSmy-307" value="B" style="ellipse;whiteSpace=wrap;html=1;fillColor=#23445d;strokeColor=#c0cdd7;fontColor=#cce5ff;glass=0;rounded=1;gradientColor=none;movable=0;resizable=0;rotatable=0;deletable=0;editable=0;locked=1;connectable=0;" vertex="1" parent="1">
          <mxGeometry x="583" y="1637.4400000000003" width="35" height="35.12" as="geometry" />
        </mxCell>
        <mxCell id="oiw9RieTrFUaGt8_zSmy-308" value="&lt;font style=&quot;font-size: 10px;&quot; color=&quot;#cce5ff&quot;&gt;&lt;b&gt;END&lt;/b&gt;&lt;/font&gt;" style="strokeWidth=2;html=1;shape=mxgraph.flowchart.terminator;whiteSpace=wrap;fillColor=#23445D;strokeColor=#23445D;movable=0;resizable=0;rotatable=0;deletable=0;editable=0;locked=1;connectable=0;" vertex="1" parent="1">
          <mxGeometry x="1298" y="1662.56" width="64" height="32.81" as="geometry" />
        </mxCell>
        <mxCell id="oiw9RieTrFUaGt8_zSmy-309" value="" style="edgeStyle=orthogonalEdgeStyle;rounded=0;orthogonalLoop=1;jettySize=auto;html=1;movable=0;resizable=0;rotatable=0;deletable=0;editable=0;locked=1;connectable=0;" edge="1" parent="1" source="oiw9RieTrFUaGt8_zSmy-313" target="oiw9RieTrFUaGt8_zSmy-101">
          <mxGeometry relative="1" as="geometry" />
        </mxCell>
        <mxCell id="oiw9RieTrFUaGt8_zSmy-310" value="NO" style="edgeLabel;html=1;align=center;verticalAlign=middle;resizable=0;points=[];movable=0;rotatable=0;deletable=0;editable=0;locked=1;connectable=0;" connectable="0" vertex="1" parent="oiw9RieTrFUaGt8_zSmy-309">
          <mxGeometry x="-0.6235" y="-1" relative="1" as="geometry">
            <mxPoint as="offset" />
          </mxGeometry>
        </mxCell>
        <mxCell id="oiw9RieTrFUaGt8_zSmy-311" value="" style="edgeStyle=orthogonalEdgeStyle;rounded=0;orthogonalLoop=1;jettySize=auto;html=1;movable=0;resizable=0;rotatable=0;deletable=0;editable=0;locked=1;connectable=0;" edge="1" parent="1" source="oiw9RieTrFUaGt8_zSmy-313" target="oiw9RieTrFUaGt8_zSmy-315">
          <mxGeometry relative="1" as="geometry" />
        </mxCell>
        <mxCell id="oiw9RieTrFUaGt8_zSmy-312" value="YES" style="edgeLabel;html=1;align=center;verticalAlign=middle;resizable=0;points=[];movable=0;rotatable=0;deletable=0;editable=0;locked=1;connectable=0;" connectable="0" vertex="1" parent="oiw9RieTrFUaGt8_zSmy-311">
          <mxGeometry x="-0.4874" relative="1" as="geometry">
            <mxPoint as="offset" />
          </mxGeometry>
        </mxCell>
        <mxCell id="oiw9RieTrFUaGt8_zSmy-313" value="&lt;font color=&quot;#cce5ff&quot;&gt;&lt;span style=&quot;font-size: 10px;&quot;&gt;&lt;b&gt;IS&lt;/b&gt;&lt;/span&gt;&lt;/font&gt;&lt;div&gt;&lt;font color=&quot;#cce5ff&quot;&gt;&lt;span style=&quot;font-size: 10px;&quot;&gt;&lt;b&gt;WALK IN&lt;/b&gt;&lt;/span&gt;&lt;/font&gt;&lt;/div&gt;&lt;div&gt;&lt;font color=&quot;#cce5ff&quot;&gt;&lt;span style=&quot;font-size: 10px;&quot;&gt;&lt;b&gt;?&lt;/b&gt;&lt;/span&gt;&lt;/font&gt;&lt;/div&gt;" style="rhombus;whiteSpace=wrap;html=1;fillColor=#23445D;strokeColor=#23445D;rounded=1;strokeWidth=2;gradientColor=none;movable=0;resizable=0;rotatable=0;deletable=0;editable=0;locked=1;connectable=0;" vertex="1" parent="1">
          <mxGeometry x="230.83" y="3050" width="80" height="70" as="geometry" />
        </mxCell>
        <mxCell id="oiw9RieTrFUaGt8_zSmy-314" style="edgeStyle=orthogonalEdgeStyle;rounded=0;orthogonalLoop=1;jettySize=auto;html=1;movable=0;resizable=0;rotatable=0;deletable=0;editable=0;locked=1;connectable=0;" edge="1" parent="1" source="oiw9RieTrFUaGt8_zSmy-315">
          <mxGeometry relative="1" as="geometry">
            <mxPoint x="270" y="3140" as="targetPoint" />
            <Array as="points">
              <mxPoint x="416" y="3140" />
              <mxPoint x="270" y="3140" />
            </Array>
          </mxGeometry>
        </mxCell>
        <mxCell id="oiw9RieTrFUaGt8_zSmy-315" value="&lt;font color=&quot;#cce5ff&quot;&gt;&lt;span style=&quot;font-size: 10px;&quot;&gt;&lt;b&gt;REQUEST | CHARGE&lt;/b&gt;&lt;/span&gt;&lt;/font&gt;&lt;div&gt;&lt;font style=&quot;background-color: initial; font-size: 8px;&quot; color=&quot;#cce5ff&quot;&gt;&lt;b&gt;(MEDS &amp;amp; SUPPLY, EXAMINATION AND OTHER SERVICES&lt;/b&gt;&lt;/font&gt;&lt;b style=&quot;background-color: initial; font-size: 8px; color: rgb(204, 229, 255);&quot;&gt;)&lt;/b&gt;&lt;/div&gt;" style="whiteSpace=wrap;html=1;fillColor=#23445D;strokeColor=#23445D;rounded=1;strokeWidth=2;gradientColor=none;movable=0;resizable=0;rotatable=0;deletable=0;editable=0;locked=1;connectable=0;" vertex="1" parent="1">
          <mxGeometry x="360" y="3059.69" width="140" height="50.62" as="geometry" />
        </mxCell>
        <mxCell id="oiw9RieTrFUaGt8_zSmy-316" value="" style="edgeStyle=orthogonalEdgeStyle;rounded=0;orthogonalLoop=1;jettySize=auto;html=1;movable=0;resizable=0;rotatable=0;deletable=0;editable=0;locked=1;connectable=0;" edge="1" parent="1" source="oiw9RieTrFUaGt8_zSmy-317" target="oiw9RieTrFUaGt8_zSmy-319">
          <mxGeometry relative="1" as="geometry" />
        </mxCell>
        <mxCell id="oiw9RieTrFUaGt8_zSmy-317" value="&lt;div&gt;&lt;font&gt;&lt;span style=&quot;font-size: 10px;&quot;&gt;&lt;b&gt;APPLY DISCOUNT&lt;/b&gt;&lt;/span&gt;&lt;/font&gt;&lt;/div&gt;" style="whiteSpace=wrap;html=1;fillColor=#23445D;strokeColor=#23445D;rounded=1;strokeWidth=2;gradientColor=none;movable=0;resizable=0;rotatable=0;deletable=0;editable=0;locked=1;connectable=0;fontColor=#CCE5FF;" vertex="1" parent="1">
          <mxGeometry x="216.5" y="3736" width="98" height="26.13" as="geometry" />
        </mxCell>
        <mxCell id="oiw9RieTrFUaGt8_zSmy-318" value="" style="edgeStyle=orthogonalEdgeStyle;rounded=0;orthogonalLoop=1;jettySize=auto;html=1;movable=0;resizable=0;rotatable=0;deletable=0;editable=0;locked=1;connectable=0;" edge="1" parent="1" source="oiw9RieTrFUaGt8_zSmy-319" target="oiw9RieTrFUaGt8_zSmy-335">
          <mxGeometry relative="1" as="geometry" />
        </mxCell>
        <mxCell id="oiw9RieTrFUaGt8_zSmy-319" value="&lt;div&gt;&lt;font&gt;&lt;span style=&quot;font-size: 10px;&quot;&gt;&lt;b&gt;ADJUSTMENTS&lt;/b&gt;&lt;/span&gt;&lt;/font&gt;&lt;/div&gt;" style="whiteSpace=wrap;html=1;fillColor=#23445D;strokeColor=#23445D;rounded=1;strokeWidth=2;gradientColor=none;movable=0;resizable=0;rotatable=0;deletable=0;editable=0;locked=1;connectable=0;fontColor=#CCE5FF;" vertex="1" parent="1">
          <mxGeometry x="216.5" y="3787" width="98" height="26.13" as="geometry" />
        </mxCell>
        <mxCell id="oiw9RieTrFUaGt8_zSmy-320" value="B" style="ellipse;whiteSpace=wrap;html=1;fillColor=#23445d;strokeColor=#c0cdd7;fontColor=#cce5ff;glass=0;rounded=1;gradientColor=none;movable=0;resizable=0;rotatable=0;deletable=0;editable=0;locked=1;connectable=0;" vertex="1" parent="1">
          <mxGeometry x="1225" y="2051.81" width="35" height="35.12" as="geometry" />
        </mxCell>
        <mxCell id="oiw9RieTrFUaGt8_zSmy-321" style="edgeStyle=orthogonalEdgeStyle;rounded=0;orthogonalLoop=1;jettySize=auto;html=1;movable=0;resizable=0;rotatable=0;deletable=0;editable=0;locked=1;connectable=0;" edge="1" parent="1" source="oiw9RieTrFUaGt8_zSmy-322">
          <mxGeometry relative="1" as="geometry">
            <mxPoint x="1170" y="1675.25" as="targetPoint" />
          </mxGeometry>
        </mxCell>
        <mxCell id="oiw9RieTrFUaGt8_zSmy-322" value="B" style="ellipse;whiteSpace=wrap;html=1;fillColor=#23445d;strokeColor=#c0cdd7;fontColor=#cce5ff;glass=0;rounded=1;gradientColor=none;movable=0;resizable=0;rotatable=0;deletable=0;editable=0;locked=1;connectable=0;" vertex="1" parent="1">
          <mxGeometry x="1056" y="1657.69" width="35" height="35.12" as="geometry" />
        </mxCell>
        <mxCell id="oiw9RieTrFUaGt8_zSmy-323" style="edgeStyle=orthogonalEdgeStyle;rounded=0;orthogonalLoop=1;jettySize=auto;html=1;movable=0;resizable=0;rotatable=0;deletable=0;editable=0;locked=1;connectable=0;" edge="1" parent="1" source="oiw9RieTrFUaGt8_zSmy-324">
          <mxGeometry relative="1" as="geometry">
            <mxPoint x="1712.5" y="1690.81" as="targetPoint" />
          </mxGeometry>
        </mxCell>
        <mxCell id="oiw9RieTrFUaGt8_zSmy-324" value="B" style="ellipse;whiteSpace=wrap;html=1;fillColor=#23445d;strokeColor=#c0cdd7;fontColor=#cce5ff;glass=0;rounded=1;gradientColor=none;movable=0;resizable=0;rotatable=0;deletable=0;editable=0;locked=1;connectable=0;" vertex="1" parent="1">
          <mxGeometry x="1695" y="1617" width="35" height="35.12" as="geometry" />
        </mxCell>
        <mxCell id="oiw9RieTrFUaGt8_zSmy-325" value="" style="edgeStyle=orthogonalEdgeStyle;rounded=0;orthogonalLoop=1;jettySize=auto;html=1;movable=0;resizable=0;rotatable=0;deletable=0;editable=0;locked=1;connectable=0;" edge="1" parent="1" source="oiw9RieTrFUaGt8_zSmy-326" target="oiw9RieTrFUaGt8_zSmy-333">
          <mxGeometry relative="1" as="geometry" />
        </mxCell>
        <mxCell id="oiw9RieTrFUaGt8_zSmy-326" value="&lt;b&gt;BILLING&lt;/b&gt;" style="shape=process;whiteSpace=wrap;html=1;backgroundOutline=1;glass=0;rounded=1;strokeColor=#c0cdd7;fillColor=#23445d;gradientColor=none;fontColor=#cce5ff;movable=0;resizable=0;rotatable=0;deletable=0;editable=0;locked=1;connectable=0;" vertex="1" parent="1">
          <mxGeometry x="1555" y="1855.06" width="100" height="35" as="geometry" />
        </mxCell>
        <mxCell id="oiw9RieTrFUaGt8_zSmy-327" value="" style="edgeStyle=orthogonalEdgeStyle;rounded=0;orthogonalLoop=1;jettySize=auto;html=1;movable=0;resizable=0;rotatable=0;deletable=0;editable=0;locked=1;connectable=0;" edge="1" parent="1" source="oiw9RieTrFUaGt8_zSmy-329" target="oiw9RieTrFUaGt8_zSmy-326">
          <mxGeometry relative="1" as="geometry" />
        </mxCell>
        <mxCell id="oiw9RieTrFUaGt8_zSmy-328" value="" style="edgeStyle=orthogonalEdgeStyle;rounded=0;orthogonalLoop=1;jettySize=auto;html=1;movable=0;resizable=0;rotatable=0;deletable=0;editable=0;locked=1;connectable=0;" edge="1" parent="1" source="oiw9RieTrFUaGt8_zSmy-329" target="oiw9RieTrFUaGt8_zSmy-332">
          <mxGeometry relative="1" as="geometry" />
        </mxCell>
        <mxCell id="oiw9RieTrFUaGt8_zSmy-329" value="&lt;font color=&quot;#cce5ff&quot;&gt;&lt;span style=&quot;font-size: 10px;&quot;&gt;&lt;b&gt;FOR&lt;/b&gt;&lt;/span&gt;&lt;/font&gt;&lt;div&gt;&lt;font color=&quot;#cce5ff&quot;&gt;&lt;span style=&quot;font-size: 10px;&quot;&gt;&lt;b&gt;BILL/ DISCHARGE&lt;/b&gt;&lt;/span&gt;&lt;/font&gt;&lt;/div&gt;&lt;div&gt;&lt;font color=&quot;#cce5ff&quot;&gt;&lt;span style=&quot;font-size: 10px;&quot;&gt;&lt;b&gt;?&lt;/b&gt;&lt;/span&gt;&lt;/font&gt;&lt;/div&gt;" style="rhombus;whiteSpace=wrap;html=1;fillColor=#23445D;strokeColor=#23445D;rounded=1;strokeWidth=2;gradientColor=none;movable=0;resizable=0;rotatable=0;deletable=0;editable=0;locked=1;connectable=0;" vertex="1" parent="1">
          <mxGeometry x="1555" y="1743.62" width="100" height="90" as="geometry" />
        </mxCell>
        <mxCell id="oiw9RieTrFUaGt8_zSmy-330" value="" style="edgeStyle=orthogonalEdgeStyle;rounded=0;orthogonalLoop=1;jettySize=auto;html=1;movable=0;resizable=0;rotatable=0;deletable=0;editable=0;locked=1;connectable=0;" edge="1" parent="1" source="oiw9RieTrFUaGt8_zSmy-331" target="oiw9RieTrFUaGt8_zSmy-195">
          <mxGeometry relative="1" as="geometry" />
        </mxCell>
        <mxCell id="oiw9RieTrFUaGt8_zSmy-331" value="&lt;b&gt;DOCTOR&#39;S&lt;/b&gt;" style="shape=process;whiteSpace=wrap;html=1;backgroundOutline=1;glass=0;rounded=1;strokeColor=#c0cdd7;fillColor=#23445d;gradientColor=none;fontColor=#cce5ff;movable=0;resizable=0;rotatable=0;deletable=0;editable=0;locked=1;connectable=0;" vertex="1" parent="1">
          <mxGeometry x="1750" y="1590" width="100" height="35" as="geometry" />
        </mxCell>
        <mxCell id="oiw9RieTrFUaGt8_zSmy-332" value="A" style="ellipse;whiteSpace=wrap;html=1;fillColor=#23445d;strokeColor=#c0cdd7;fontColor=#cce5ff;glass=0;rounded=1;gradientColor=none;movable=0;resizable=0;rotatable=0;deletable=0;editable=0;locked=1;connectable=0;" vertex="1" parent="1">
          <mxGeometry x="1695" y="1771.06" width="35" height="35.12" as="geometry" />
        </mxCell>
        <mxCell id="oiw9RieTrFUaGt8_zSmy-333" value="B" style="ellipse;whiteSpace=wrap;html=1;fillColor=#23445d;strokeColor=#c0cdd7;fontColor=#cce5ff;glass=0;rounded=1;gradientColor=none;movable=0;resizable=0;rotatable=0;deletable=0;editable=0;locked=1;connectable=0;" vertex="1" parent="1">
          <mxGeometry x="1695" y="1854.94" width="35" height="35.12" as="geometry" />
        </mxCell>
        <mxCell id="oiw9RieTrFUaGt8_zSmy-334" value="" style="edgeStyle=orthogonalEdgeStyle;rounded=0;orthogonalLoop=1;jettySize=auto;html=1;" edge="1" parent="1" source="oiw9RieTrFUaGt8_zSmy-335" target="oiw9RieTrFUaGt8_zSmy-336">
          <mxGeometry relative="1" as="geometry" />
        </mxCell>
        <mxCell id="oiw9RieTrFUaGt8_zSmy-335" value="&lt;font color=&quot;#cce5ff&quot;&gt;&lt;span style=&quot;font-size: 10px;&quot;&gt;&lt;b&gt;PRINT SOA&lt;/b&gt;&lt;/span&gt;&lt;/font&gt;" style="shape=parallelogram;perimeter=parallelogramPerimeter;whiteSpace=wrap;html=1;fixedSize=1;fillColor=#23445D;strokeColor=#23445D;rounded=1;strokeWidth=2;gradientColor=none;movable=1;resizable=1;rotatable=1;deletable=1;editable=1;locked=0;connectable=1;" vertex="1" parent="1">
          <mxGeometry x="200.5" y="3836" width="130" height="27.63" as="geometry" />
        </mxCell>
        <mxCell id="oiw9RieTrFUaGt8_zSmy-336" value="D" style="ellipse;whiteSpace=wrap;html=1;fillColor=#23445d;strokeColor=#c0cdd7;fontColor=#cce5ff;glass=0;rounded=1;gradientColor=none;movable=1;resizable=1;rotatable=1;deletable=1;editable=1;locked=0;connectable=1;" vertex="1" parent="1">
          <mxGeometry x="248.0000000000001" y="3890" width="35" height="35.12" as="geometry" />
        </mxCell>
      </root>
    </mxGraphModel>
  </diagram>
</mxfile>
